<svg width="485" height="69" viewBox="0 0 485 69" fill="none" xmlns="http://www.w3.org/2000/svg">
<path d="M45.0006 69L70.6551 0H48.7104H26.7657L0 69H45.0006Z" fill="#8BCC00"/>
<mask id="mask0_2403_1140" style="mask-type:alpha" maskUnits="userSpaceOnUse" x="1" y="2" width="68" height="66">
<path d="M44.0045 67.7879L68.132 2.89502H47.4935H26.855L1.68253 67.7879H44.0045Z" fill="#9AB83D"/>
</mask>
<g mask="url(#mask0_2403_1140)">
<path d="M-38.6039 10.4118C-38.7928 10.0651 -38.9721 9.72883 -39.142 9.40292C-39.1515 9.38543 -39.1562 9.36575 -39.1558 9.34585C-39.1554 9.32595 -39.1498 9.30652 -39.1395 9.28945C-39.1293 9.27238 -39.1148 9.25827 -39.0974 9.24853C-39.0801 9.23879 -39.0605 9.23375 -39.0406 9.2339L-33.842 9.22609C-33.6875 9.22521 -33.5346 9.25854 -33.394 9.3237C-33.2534 9.38886 -33.1286 9.48425 -33.0285 9.60314C-28.5716 14.9164 0.94466 52.4577 5.37554 57.8871C8.55964 61.7875 11.6736 65.8596 14.7693 69.7132C15.4243 70.5297 16.1703 71.3401 17.0073 72.1445C17.1147 72.2467 17.0956 72.2814 16.9501 72.2485C11.2993 70.9171 6.04095 67.9372 1.34928 64.406C-0.683346 62.8797 -2.42745 61.2649 -3.79986 59.1248C-7.04547 54.0612 -35.3618 16.3769 -38.6039 10.4118Z" fill="#171C0C"/>
<path d="M17.9007 42.0464C19.2731 42.9721 20.6455 43.9499 22.0595 44.8548C23.9518 46.07 25.9108 47.3935 27.9365 48.8254C33.5336 52.783 39.2433 56.8022 45.0656 60.8829C48.8034 63.5066 52.4527 66.2005 56.1593 68.8138C56.2962 68.9109 56.2979 69.0106 56.1645 69.1129C55.7815 69.4041 55.3735 69.6546 54.9402 69.8643C53.1398 70.7363 50.9833 71.6273 48.4707 72.5374C47.8338 72.7689 47.5401 72.4438 47.0489 71.968C44.9955 69.9813 42.4924 67.7581 39.5396 65.2982C34.6192 61.2002 29.6156 57.1151 24.677 52.9677C20.0867 49.1088 15.4323 45.3332 10.7137 41.6408C10.7001 41.6303 10.6891 41.6165 10.6819 41.6007C10.6747 41.5848 10.6713 41.5674 10.6722 41.5498C10.6756 41.4839 10.7051 41.451 10.7605 41.451C12.632 41.4493 14.4342 41.4874 16.167 41.5654C16.7752 41.594 17.3783 41.6928 17.9007 42.0464Z" fill="#171C0C"/>
<path d="M50.0413 51.4747C55.0596 54.3419 60.0684 57.2343 65.0676 60.1518C65.8578 60.6129 66.5475 61.055 67.1366 61.478C67.4416 61.6964 67.4485 61.9235 67.1574 62.1593C65.5857 63.4317 63.9075 64.594 62.1227 65.6462C61.9875 65.726 61.8549 65.7225 61.725 65.6358C55.5058 61.5031 49.1367 57.3063 42.6178 53.0453C41.1726 52.1022 39.7716 51.1886 38.4148 50.3045C34.9144 48.025 31.2936 45.6873 27.5524 43.2916C26.6808 42.7334 25.7745 42.1674 24.8336 41.5936C24.8195 41.5849 24.8078 41.5727 24.7996 41.5583C24.7915 41.5439 24.787 41.5277 24.7868 41.5111C24.7865 41.4945 24.7904 41.4781 24.7982 41.4635C24.8059 41.4488 24.8172 41.4363 24.831 41.4272C24.8778 41.396 24.928 41.3812 24.9818 41.3829C27.1218 41.4124 29.4672 41.4558 32.018 41.513C32.4789 41.5234 32.9433 41.6707 33.4112 41.955C35.7782 43.399 38.2562 44.8231 40.8451 46.2273C43.959 47.9149 46.9793 49.7247 50.0413 51.4747Z" fill="#171C0C"/>
<path d="M63.9525 48.7732C67.7318 50.6012 71.5164 52.2575 75.3893 54.122C75.4118 54.1328 75.4318 54.1485 75.4478 54.1678C75.4638 54.1871 75.4755 54.2097 75.4821 54.234C75.4887 54.2584 75.4901 54.2839 75.4862 54.309C75.4823 54.334 75.4732 54.358 75.4595 54.3794C74.6641 55.6067 73.3696 56.7613 72.3221 57.7104C72.242 57.7828 72.1418 57.829 72.035 57.843C71.9281 57.8569 71.8197 57.8379 71.7243 57.7884C63.6475 53.5655 55.4737 49.2724 47.2028 44.9091C45.5532 44.0389 43.861 43.1262 42.1265 42.171C41.9133 42.0549 41.7149 41.924 41.5312 41.7784C41.5061 41.7586 41.487 41.732 41.4762 41.7018C41.4653 41.6717 41.4632 41.6392 41.47 41.6081C41.4768 41.577 41.4923 41.5486 41.5147 41.5263C41.537 41.504 41.5653 41.4886 41.5962 41.482C41.8509 41.423 42.1091 41.3936 42.3708 41.3936C44.4849 41.404 46.6171 41.4343 48.7676 41.4846C49.0798 41.4914 49.3854 41.5763 49.6565 41.7316C51.2802 42.6712 52.7315 43.4408 54.0103 44.0406C57.4396 45.6476 60.7537 47.2251 63.9525 48.7732Z" fill="#171C0C"/>
<path d="M62.9262 43.7311C61.4784 43.0966 59.9916 42.5193 58.5906 41.8407C58.095 41.6014 58.1219 41.4662 58.6712 41.435C59.8339 41.3709 61.0131 41.3726 62.2088 41.4402C62.8811 41.4766 63.5058 41.6049 64.0829 41.8251C68.6489 43.5551 73.5043 45.5686 78.6492 47.8655C79.0009 48.0215 79.3388 48.1958 79.6629 48.3882C79.7176 48.4215 79.7576 48.4743 79.7746 48.5358C79.7915 48.5973 79.7841 48.6627 79.7538 48.7184L79.0105 50.1122C78.8666 50.3809 78.6544 50.4563 78.3736 50.3384C73.1751 48.1628 68.026 45.9604 62.9262 43.7311Z" fill="#171C0C"/>
<path d="M21.6801 57.1568C24.8391 60.1176 27.9946 63.0516 31.1466 65.9587C34.264 68.8364 37.2419 71.7305 40.0803 74.6411C40.1 74.6614 40.1134 74.6871 40.1188 74.715C40.1242 74.7428 40.1213 74.7716 40.1105 74.7978C40.0998 74.8241 40.0816 74.8466 40.0582 74.8626C40.0348 74.8787 40.0073 74.8875 39.9789 74.8881C35.9969 74.9419 32.0832 74.8985 28.238 74.7581C27.7684 74.7408 27.3604 74.5068 27.0138 74.056C26.4939 73.3817 25.962 72.7221 25.4178 72.0772C20.7513 66.5386 15.9271 61.0867 10.9451 55.7214C6.52638 50.9629 2.17781 46.1628 -2.3839 41.6382C-2.51906 41.503 -2.49134 41.4363 -2.30072 41.438C-0.325281 41.4658 1.60684 41.4744 3.49564 41.464C3.85087 41.4623 4.16711 41.5784 4.44437 41.8125C10.2355 46.6975 15.9808 51.8123 21.6801 57.1568Z" fill="#171C0C"/>
</g>
<mask id="mask1_2403_1140" style="mask-type:alpha" maskUnits="userSpaceOnUse" x="1" y="0" width="72" height="69">
<path d="M46.3662 69L72.0208 0H50.076H28.1313L1.36563 69H46.3662Z" fill="#8BCC00"/>
</mask>
<g mask="url(#mask1_2403_1140)">
<path fill-rule="evenodd" clip-rule="evenodd" d="M26.1645 6.8722C26.2148 6.8898 28.1483 6.95224 30.4612 7.01082C32.774 7.0695 34.6985 7.13743 34.7378 7.16173C34.7771 7.18611 34.6308 7.40505 34.4127 7.64828C33.9791 8.13189 33.7989 8.59598 33.7989 9.22894C33.7989 9.61382 34.2628 11.2652 36.1738 17.6831C36.533 18.8896 36.8623 19.943 36.9056 20.024C36.9504 20.108 37.6453 20.4023 38.523 20.7091C40.7747 21.4962 41.0216 21.6274 41.2826 22.1755C41.4782 22.5865 43.0043 26.554 43.1686 27.0788L43.2377 27.2998L42.1069 27.2388C41.485 27.2053 40.9624 27.1368 40.9457 27.0866C40.9016 26.9548 35.9932 26.9626 35.9932 27.0946C35.9932 27.399 37.1383 30.4206 37.3068 30.5608C37.5028 30.7239 37.7076 30.1363 37.7806 29.2012C37.8634 28.1396 37.9414 28.0503 38.8545 27.9719C39.2168 27.9407 41.8574 27.9101 44.7225 27.9037L49.9317 27.892L51.6132 30.7213C52.538 32.2774 53.7013 34.2155 54.1983 35.0282C54.6953 35.8408 55.102 36.5845 55.102 36.6809C55.102 36.7772 55.0408 36.9436 54.966 37.0507C54.8459 37.2227 54.7103 37.2521 53.8003 37.3028C53.2339 37.3344 51.2894 37.4506 49.4791 37.561C46.0747 37.7688 40.0544 37.8371 38.5304 37.6853C37.8627 37.6188 37.8218 37.602 37.8218 37.3944C37.8218 37.2408 37.6277 36.9888 37.1818 36.5632C36.7938 36.193 36.4489 35.7621 36.3059 35.469C36.1762 35.2031 36.0144 34.9642 35.9465 34.938C35.8786 34.9119 35.0774 34.8829 34.1663 34.8737C32.6069 34.8578 32.4977 34.8679 32.3084 35.0457C32.0813 35.2591 31.1732 35.7033 30.9646 35.7031C30.8891 35.703 30.7451 35.5309 30.6446 35.3205C30.427 34.8654 30.1629 34.5132 30.0392 34.5132C29.9901 34.5132 29.8734 34.6846 29.7798 34.8942L29.6097 35.2752L30.0453 35.9715C30.543 36.7667 30.5977 36.7822 31.4961 36.3838C32.1984 36.0724 32.2473 36.106 31.7836 36.581C31.3919 36.9821 30.5446 37.4646 30.0359 37.5762C29.8172 37.6242 29.7645 37.5789 29.5072 37.1216C29.1649 36.5136 29.0174 36.4377 28.7206 36.7172L28.4974 36.9275L28.7253 37.3363C28.8506 37.5611 28.9531 37.7669 28.9531 37.7933C28.9531 37.859 23.945 37.7381 23.6199 37.6645C23.4282 37.6213 23.3721 37.5632 23.4039 37.4412C23.4297 37.3424 23.3554 37.1911 23.2187 37.0637C22.8556 36.7255 22.2246 35.7964 21.9784 35.2374C21.593 34.3624 21.4319 33.5445 21.4294 32.4504C21.4264 31.2086 21.5851 30.5384 22.1506 29.404C23.4937 26.7096 26.7102 25.7688 29.7988 27.1668C30.154 27.3275 30.416 27.4022 30.416 27.3426C30.416 27.2856 30.4793 27.1689 30.5566 27.0832C30.6858 26.9401 30.6597 26.9031 30.2395 26.6328C28.9877 25.8273 27.1301 25.5228 25.4978 25.8555C24.3954 26.0802 23.5405 26.5451 22.7359 27.3574C21.6825 28.4208 21.1367 29.5132 20.8999 31.0314C20.7401 32.0565 20.9037 33.8676 21.2336 34.7264C21.294 34.8835 21.2301 34.8924 20.1966 34.8717C19.1076 34.8498 19.0921 34.8523 18.7899 35.1081C18.4548 35.3918 17.8394 35.6999 17.6017 35.703C17.5185 35.7041 17.3479 35.5297 17.2226 35.3153C17.0973 35.101 16.9075 34.8464 16.801 34.7496C16.6099 34.5763 16.6054 34.5764 16.4773 34.7498C16.4059 34.8465 16.329 34.9945 16.3065 35.0785C16.2539 35.2744 16.5439 35.8464 16.9289 36.3062L17.23 36.6658L17.8346 36.4687L18.4391 36.2716L18.2485 36.5155C18.008 36.8232 17.2927 37.4202 16.9543 37.5957C16.6868 37.7344 16.0179 37.6836 16.1116 37.5318C16.1382 37.4886 16.0776 37.2972 15.9772 37.1063C15.6429 36.4719 15.6581 36.4794 15.2944 36.7703C14.9134 37.0752 14.8879 37.216 15.161 37.5074C15.3439 37.7027 15.3463 37.7216 15.195 37.7798C14.9808 37.8622 10.7009 37.7459 10.3472 37.648C10.154 37.5946 10.0634 37.5062 10.0409 37.3492C10.0233 37.2265 9.82861 36.9327 9.60835 36.6964C9.06645 36.115 8.47289 35.177 8.47289 34.9018C8.47289 34.7782 8.40422 34.4237 8.32029 34.1138C8.11192 33.3445 8.1122 31.644 8.32093 30.846C8.91011 28.5927 10.3921 27.1081 12.4958 26.6637C13.7635 26.3958 15.4086 26.6587 16.5914 27.3182C16.9744 27.5317 16.9911 27.5332 17.271 27.3764C17.4288 27.288 17.571 27.1762 17.587 27.1279C17.6372 26.9771 16.4861 26.2615 15.871 26.0609C15.1481 25.8252 13.1827 25.7238 12.5303 25.8885C12.2979 25.9472 12.0933 25.9807 12.0757 25.9629C12.058 25.9452 12.2861 25.3554 12.5827 24.6523L13.1219 23.374L14.0889 23.348L15.0558 23.3219V21.7242V20.1264L14.582 19.9854C14.3215 19.9077 14.072 19.8443 14.0276 19.8443C13.949 19.8443 13.4081 20.9473 12.9981 21.9435L12.7945 22.4383L12.2597 21.4393C11.4431 19.9135 11.1266 19.1174 11.0624 18.4274C10.9982 17.738 10.841 17.5523 10.3221 17.5523C10.0572 17.5523 9.9994 17.5965 9.87533 17.8944C9.60515 18.5427 9.86362 19.5968 10.7129 21.3112C11.5065 22.9129 11.6754 23.6436 11.4532 24.5134C11.219 25.4302 10.9706 25.7973 9.80456 26.9495C8.87829 27.865 8.62841 28.1728 8.31673 28.7832C7.86479 29.668 7.67306 30.2861 7.54945 31.2563C7.49816 31.6585 7.44174 32.0022 7.42391 32.02C7.33075 32.1135 6.84645 31.657 6.54848 31.1948C5.88772 30.1695 5.90006 30.3398 5.93096 22.6864L5.95857 15.8562L6.24054 15.2596C6.74733 14.1873 7.42867 13.7073 8.44903 13.7037C9.48693 13.7 10.4384 14.2221 11.7602 15.5203L12.5415 16.2877L13.7679 16.5991C14.4423 16.7704 15.0345 16.9105 15.0839 16.9105C15.1739 16.9105 15.0918 7.62637 14.9982 7.23278C14.9537 7.04548 14.9853 7.04318 19.279 6.93317C23.4332 6.82663 25.9707 6.80417 26.1645 6.8722ZM25.8444 8.62807C25.4839 8.84159 25.2045 9.38214 25.2045 9.86612C25.2045 10.0952 25.5401 11.4524 25.9835 13.0166C26.412 14.5279 26.9126 16.3421 27.096 17.048C27.2794 17.754 27.4354 18.341 27.4428 18.3526C27.4501 18.3642 28.1529 18.5203 29.0046 18.6996C29.8563 18.8788 31.4789 19.2688 32.6103 19.5662C35.0523 20.2081 35.2618 20.2533 35.2618 20.1374C35.2618 20.0413 33.6502 14.3852 32.8646 11.7239C32.3282 9.90738 32.0452 9.38526 31.3254 8.88505C30.8242 8.53676 30.5362 8.50082 28.1443 8.48734C26.3912 8.47753 26.0649 8.49752 25.8444 8.62807ZM17.3171 8.65777C17.178 8.72598 16.9414 8.96756 16.7914 9.19465L16.5187 9.60749V12.7951C16.5187 14.5484 16.5512 16.003 16.5908 16.0276C16.6306 16.0522 17.9574 16.4654 19.5394 16.9457C24.9091 18.5761 30.3995 20.4272 31.4674 20.9673C32.1341 21.3045 32.5053 21.6687 32.7818 22.2573C32.9283 22.5689 33.5493 24.2679 34.162 26.0327C35.1704 28.9382 36.5044 32.5676 36.6039 32.6769C36.6602 32.7388 36.7756 32.5303 36.9086 32.1261C37.0136 31.8071 36.9979 31.6949 36.7341 30.8754C36.5747 30.3801 36.1804 29.253 35.858 28.3706C35.5355 27.4882 35.0589 26.1473 34.7987 25.391C34.5385 24.6346 34.1043 23.4621 33.8336 22.7854C33.5631 22.1087 33.3417 21.5414 33.3417 21.5248C33.3417 21.3908 33.6907 21.5511 33.9373 21.7984C34.1795 22.0412 34.3199 22.352 34.6364 23.3463L35.0324 24.5902L35.5719 24.6468C36.3649 24.7299 40.6561 24.7157 40.6561 24.63C40.6561 24.449 37.749 22.7055 36.0411 21.8622C35.1687 21.4315 32.6945 20.5478 27.9413 18.9695L25.7866 18.2539L25.5724 17.4676C25.4547 17.0352 25.1424 16.0006 24.8784 15.1686C24.6144 14.3366 24.2815 13.2845 24.1386 12.8307L23.8788 12.0056L23.8331 14.7102L23.7873 17.4147L23.5816 17.4082C23.4685 17.4046 23.2516 17.3943 23.0996 17.3853L22.8233 17.3689L22.8591 13.6329C22.8787 11.5781 22.9023 9.81836 22.9115 9.72237C22.932 9.506 22.5028 8.95986 22.0874 8.67409C21.7787 8.46167 21.7565 8.46002 19.673 8.49669C18.1555 8.52346 17.4997 8.56829 17.3171 8.65777ZM16.5187 21.8415V23.1969L17.0024 23.6759L17.4861 24.1549L22.4196 24.1312C25.3626 24.117 27.3462 24.0734 27.3362 24.023C27.3126 23.9055 26.845 23.7348 23.5588 22.6445C19.6514 21.348 16.9577 20.5111 16.633 20.4926C16.5464 20.4876 16.5187 20.8148 16.5187 21.8415ZM42.6068 22.2509C42.812 22.4402 43.6395 24.506 44.3513 26.6057L44.5767 27.2704H44.3229C44.0751 27.2704 44.0468 27.212 43.1315 24.818C42.6158 23.4692 42.1722 22.2933 42.1458 22.2051C42.0767 21.9747 42.335 22.0003 42.6068 22.2509ZM27.6731 27.3968C27.6731 27.545 28.7525 28.2028 29.2731 28.3719C30.0468 28.623 30.8424 29.0128 31.204 29.3179L31.4706 29.5429L31.7138 29.1061L31.957 28.6693L31.6457 28.2057C31.2416 27.604 31.1833 27.5767 31.0118 27.9092C30.8434 28.2357 30.5533 28.2753 30.2226 28.0168C29.9202 27.7805 29.4168 27.5275 29.0903 27.4478C28.8026 27.3776 27.6731 27.337 27.6731 27.3968ZM14.8298 27.7316C15.0963 28.0105 16.073 28.5539 16.3078 28.5539C16.4714 28.5539 17.3109 28.9765 17.6616 29.2354C18.1396 29.5884 18.146 29.5881 18.3897 29.2009C18.6878 28.7275 18.6819 28.6224 18.3304 28.1316L18.0393 27.725L17.7845 28.0047L17.5298 28.2843L16.8947 27.9507C16.1502 27.5597 15.843 27.4759 15.1073 27.4631L14.5645 27.4538L14.8298 27.7316ZM39.0332 28.5208C38.92 28.5507 38.8275 28.6427 38.8276 28.7251C38.8277 28.8074 39.2231 29.5349 39.7064 30.3417C40.1898 31.1485 41.1421 32.7781 41.8226 33.9631C43.2384 36.4287 43.5807 36.9829 43.7981 37.1626C43.969 37.3038 43.6447 37.3132 49.8448 36.9861C54.5617 36.7372 54.4895 36.7449 54.4416 36.499C54.4204 36.3901 53.7662 35.2489 52.9879 33.9631C52.2094 32.6773 51.2531 31.0886 50.8625 30.4329C50.472 29.777 50.0061 29.038 49.827 28.7907L49.5016 28.341L44.3703 28.4036C41.548 28.438 39.1464 28.4907 39.0332 28.5208ZM49.6162 29.3103C49.7353 29.5246 50.5511 30.8964 51.4291 32.3587C52.3071 33.821 53.7358 36.2177 53.7358 36.2177C53.7358 36.2177 53.1453 36.2371 52.1047 36.2998C50.4336 36.4004 44.1902 36.5934 44.0589 36.5484C43.9321 36.505 43.4829 35.757 41.2151 31.8133C40.4047 30.404 39.7725 29.2206 39.8103 29.1833C39.8832 29.1116 45.9066 28.9207 48.0984 28.9207H49.3997L49.6162 29.3103ZM24.7701 29.3098C24.2301 29.5616 23.5238 30.3657 23.2795 31.0067C22.7641 32.3589 23.0856 34.2161 24.0199 35.2829C25.2156 36.6485 27.3888 36.1869 28.2908 34.3757C28.9564 33.0391 28.7185 31.0785 27.7576 29.9811C26.9774 29.0901 25.8057 28.8268 24.7701 29.3098ZM11.4386 29.3562C9.99272 30.1054 9.38344 32.1469 10.037 34.0521C10.3284 34.9016 11.1311 35.718 11.8902 35.9367C13.0834 36.2805 14.3742 35.6281 15.0163 34.3564C15.2719 33.8503 15.2844 33.77 15.2844 32.6337C15.2844 31.5348 15.2655 31.4014 15.0412 30.9216C14.2992 29.3345 12.766 28.6684 11.4386 29.3562ZM32.2031 29.8146C32.1735 29.9028 32.0311 30.1176 31.8867 30.2918L31.6242 30.6087L31.0499 30.222C30.4229 29.7997 29.8201 29.572 29.6882 29.7075C29.4459 29.9565 30.1484 30.668 31.7625 31.8086C31.8616 31.8787 31.9876 31.792 32.2957 31.4419C32.5176 31.1898 32.7215 30.9161 32.7489 30.8339C32.8062 30.6612 32.4535 29.6541 32.3357 29.6541C32.2923 29.6541 32.2327 29.7264 32.2031 29.8146ZM17.8959 30.2455C17.3566 29.857 16.8852 29.6541 16.5216 29.6541C16.1931 29.6541 16.1934 29.6528 16.4279 30.1138C16.5494 30.3527 16.7886 30.5877 17.1365 30.8099C17.4253 30.9945 17.8622 31.3132 18.1073 31.5181L18.553 31.8907L18.8387 31.5668C19.519 30.7956 19.5217 30.7844 19.2321 29.942L19.1262 29.634L18.7295 30.097L18.3327 30.5602L17.8959 30.2455ZM26.4928 29.9632C27.0315 30.1563 27.4483 30.5406 27.7757 31.1459C28.0707 31.6914 28.0845 31.7598 28.0845 32.6796C28.0845 33.7303 28.0146 33.9461 27.4743 34.5632C27.0462 35.0522 26.54 35.2834 25.8873 35.2884C25.3993 35.292 25.2844 35.2555 24.8894 34.971C24.5817 34.7494 24.3413 34.4647 24.1152 34.0542C23.8001 33.4821 23.7874 33.4232 23.7884 32.5421C23.7893 31.7606 23.8218 31.5595 24.0089 31.1799C24.298 30.5927 24.7574 30.1575 25.2745 29.9809C25.7755 29.8097 26.0533 29.8057 26.4928 29.9632ZM13.4785 30.1221C14.9606 30.8578 15.3094 33.4276 14.0928 34.6477C13.4645 35.2776 12.457 35.4642 11.8189 35.0688C10.7317 34.3949 10.2286 32.9347 10.6239 31.6001C11.0247 30.2465 12.3484 29.5612 13.4785 30.1221ZM12.0782 31.2186C11.6962 31.59 11.5495 32.0086 11.55 32.7254C11.5512 34.3156 13.0397 35.094 13.8733 33.9403C14.2259 33.452 14.2303 33.2788 13.885 33.4776C13.1856 33.88 12.4849 32.8933 12.9457 32.1549C13.1777 31.7831 13.5361 31.6808 13.8908 31.885C14.1492 32.0337 14.1523 32.0329 14.0885 31.8306C13.7837 30.8639 12.7629 30.5532 12.0782 31.2186ZM31.4102 32.9394C30.9913 32.4831 30.4205 32.0378 30.2543 32.0378C30.1466 32.0378 30.1277 32.125 30.1645 32.4518C30.2079 32.838 30.5094 33.2933 31.4324 34.366C31.5468 34.499 31.9942 34.2622 32.4425 33.8314C32.8795 33.4116 32.973 33.146 32.975 32.3192L32.976 31.9129L32.3474 32.5942L31.7188 33.2755L31.4102 32.9394ZM19.0184 32.5879C18.739 32.8904 18.467 33.138 18.4138 33.138C18.3606 33.138 18.0564 32.8871 17.7379 32.5803C17.4193 32.2735 17.1072 32.0396 17.0444 32.0603C16.9813 32.0811 16.9179 32.2839 16.9028 32.5126C16.8772 32.9018 16.9101 32.969 17.4372 33.6056C17.7461 33.9787 18.0337 34.3207 18.0761 34.3656C18.1686 34.4632 19.3994 33.5713 19.4866 33.3434C19.5781 33.1042 19.6626 32.0378 19.59 32.0378C19.5549 32.0378 19.2977 32.2854 19.0184 32.5879Z" fill="#11151A"/>
</g>
<path d="M70.674 57.0322V47.4922H79.512V57.0322H77.784V48.5722L78.198 49.0042H71.988L72.402 48.5722V57.0322H70.674ZM87.7336 57.1402C86.9416 57.1402 86.2156 56.9602 85.5556 56.6002C84.9076 56.2282 84.3856 55.6822 83.9896 54.9622C83.6056 54.2422 83.4136 53.3422 83.4136 52.2622C83.4136 51.1822 83.5996 50.2822 83.9716 49.5622C84.3556 48.8422 84.8716 48.3022 85.5196 47.9422C86.1796 47.5822 86.9176 47.4022 87.7336 47.4022C88.6696 47.4022 89.4976 47.6062 90.2176 48.0142C90.9376 48.4222 91.5076 48.9922 91.9276 49.7242C92.3476 50.4442 92.5576 51.2902 92.5576 52.2622C92.5576 53.2342 92.3476 54.0862 91.9276 54.8182C91.5076 55.5502 90.9376 56.1202 90.2176 56.5282C89.4976 56.9362 88.6696 57.1402 87.7336 57.1402ZM82.6756 60.5242V47.4922H84.3316V50.0662L84.2236 52.2802L84.4036 54.4942V60.5242H82.6756ZM87.5896 55.6282C88.2016 55.6282 88.7476 55.4902 89.2276 55.2142C89.7196 54.9382 90.1036 54.5482 90.3796 54.0442C90.6676 53.5282 90.8116 52.9342 90.8116 52.2622C90.8116 51.5782 90.6676 50.9902 90.3796 50.4982C90.1036 49.9942 89.7196 49.6042 89.2276 49.3282C88.7476 49.0522 88.2016 48.9142 87.5896 48.9142C86.9896 48.9142 86.4436 49.0522 85.9516 49.3282C85.4716 49.6042 85.0876 49.9942 84.7996 50.4982C84.5236 50.9902 84.3856 51.5782 84.3856 52.2622C84.3856 52.9342 84.5236 53.5282 84.7996 54.0442C85.0876 54.5482 85.4716 54.9382 85.9516 55.2142C86.4436 55.4902 86.9896 55.6282 87.5896 55.6282ZM98.9742 57.1402C98.0142 57.1402 97.1622 56.9302 96.4182 56.5102C95.6742 56.0902 95.0862 55.5142 94.6542 54.7822C94.2222 54.0382 94.0062 53.1982 94.0062 52.2622C94.0062 51.3142 94.2222 50.4742 94.6542 49.7422C95.0862 49.0102 95.6742 48.4402 96.4182 48.0322C97.1622 47.6122 98.0142 47.4022 98.9742 47.4022C99.9222 47.4022 100.768 47.6122 101.512 48.0322C102.268 48.4402 102.856 49.0102 103.276 49.7422C103.708 50.4622 103.924 51.3022 103.924 52.2622C103.924 53.2102 103.708 54.0502 103.276 54.7822C102.856 55.5142 102.268 56.0902 101.512 56.5102C100.768 56.9302 99.9222 57.1402 98.9742 57.1402ZM98.9742 55.6282C99.5862 55.6282 100.132 55.4902 100.612 55.2142C101.104 54.9382 101.488 54.5482 101.764 54.0442C102.04 53.5282 102.178 52.9342 102.178 52.2622C102.178 51.5782 102.04 50.9902 101.764 50.4982C101.488 49.9942 101.104 49.6042 100.612 49.3282C100.132 49.0522 99.5862 48.9142 98.9742 48.9142C98.3622 48.9142 97.8162 49.0522 97.3362 49.3282C96.8562 49.6042 96.4722 49.9942 96.1842 50.4982C95.8962 50.9902 95.7522 51.5782 95.7522 52.2622C95.7522 52.9342 95.8962 53.5282 96.1842 54.0442C96.4722 54.5482 96.8562 54.9382 97.3362 55.2142C97.8162 55.4902 98.3622 55.6282 98.9742 55.6282ZM112.685 56.2222V49.0042H108.545L108.455 50.8402C108.431 51.4402 108.389 52.0222 108.329 52.5862C108.281 53.1382 108.197 53.6482 108.077 54.1162C107.969 54.5842 107.807 54.9682 107.591 55.2682C107.375 55.5682 107.087 55.7542 106.727 55.8262L105.017 55.5202C105.389 55.5322 105.689 55.4122 105.917 55.1602C106.145 54.8962 106.319 54.5362 106.439 54.0802C106.571 53.6242 106.667 53.1082 106.727 52.5322C106.787 51.9442 106.835 51.3382 106.871 50.7142L107.015 47.4922H114.413V56.2222H112.685ZM104.639 59.2462V55.5202H115.871V59.2462H114.251V57.0322H106.277V59.2462H104.639ZM123.792 57.0322V55.0162L123.702 54.6382V51.2002C123.702 50.4682 123.486 49.9042 123.054 49.5082C122.634 49.1002 121.998 48.8962 121.146 48.8962C120.582 48.8962 120.03 48.9922 119.49 49.1842C118.95 49.3642 118.494 49.6102 118.122 49.9222L117.402 48.6262C117.894 48.2302 118.482 47.9302 119.166 47.7262C119.862 47.5102 120.588 47.4022 121.344 47.4022C122.652 47.4022 123.66 47.7202 124.368 48.3562C125.076 48.9922 125.43 49.9642 125.43 51.2722V57.0322H123.792ZM120.66 57.1402C119.952 57.1402 119.328 57.0202 118.788 56.7802C118.26 56.5402 117.852 56.2102 117.564 55.7902C117.276 55.3582 117.132 54.8722 117.132 54.3322C117.132 53.8162 117.252 53.3482 117.492 52.9282C117.744 52.5082 118.146 52.1722 118.698 51.9202C119.262 51.6682 120.018 51.5422 120.966 51.5422H123.99V52.7842H121.038C120.174 52.7842 119.592 52.9282 119.292 53.2162C118.992 53.5042 118.842 53.8522 118.842 54.2602C118.842 54.7282 119.028 55.1062 119.4 55.3942C119.772 55.6702 120.288 55.8082 120.948 55.8082C121.596 55.8082 122.16 55.6642 122.64 55.3762C123.132 55.0882 123.486 54.6682 123.702 54.1162L124.044 55.3042C123.816 55.8682 123.414 56.3182 122.838 56.6542C122.262 56.9782 121.536 57.1402 120.66 57.1402ZM139.684 57.0322L136.642 52.3882L138.064 51.5242L141.736 57.0322H139.684ZM134.662 53.0002V51.5242H137.758V53.0002H134.662ZM138.226 52.4602L136.588 52.2442L139.63 47.4922H141.484L138.226 52.4602ZM128.974 57.0322H126.922L130.576 51.5242L131.998 52.3882L128.974 57.0322ZM135.184 57.0322H133.456V47.4922H135.184V57.0322ZM133.978 53.0002H130.9V51.5242H133.978V53.0002ZM130.432 52.4602L127.174 47.4922H129.01L132.052 52.2442L130.432 52.4602ZM149.131 57.0322V55.0162L149.041 54.6382V51.2002C149.041 50.4682 148.825 49.9042 148.393 49.5082C147.973 49.1002 147.337 48.8962 146.485 48.8962C145.921 48.8962 145.369 48.9922 144.829 49.1842C144.289 49.3642 143.833 49.6102 143.461 49.9222L142.741 48.6262C143.233 48.2302 143.821 47.9302 144.505 47.7262C145.201 47.5102 145.927 47.4022 146.683 47.4022C147.991 47.4022 148.999 47.7202 149.707 48.3562C150.415 48.9922 150.769 49.9642 150.769 51.2722V57.0322H149.131ZM145.999 57.1402C145.291 57.1402 144.667 57.0202 144.127 56.7802C143.599 56.5402 143.191 56.2102 142.903 55.7902C142.615 55.3582 142.471 54.8722 142.471 54.3322C142.471 53.8162 142.591 53.3482 142.831 52.9282C143.083 52.5082 143.485 52.1722 144.037 51.9202C144.601 51.6682 145.357 51.5422 146.305 51.5422H149.329V52.7842H146.377C145.513 52.7842 144.931 52.9282 144.631 53.2162C144.331 53.5042 144.181 53.8522 144.181 54.2602C144.181 54.7282 144.367 55.1062 144.739 55.3942C145.111 55.6702 145.627 55.8082 146.287 55.8082C146.935 55.8082 147.499 55.6642 147.979 55.3762C148.471 55.0882 148.825 54.6682 149.041 54.1162L149.383 55.3042C149.155 55.8682 148.753 56.3182 148.177 56.6542C147.601 56.9782 146.875 57.1402 145.999 57.1402ZM162.513 57.1402C161.541 57.1402 160.671 56.9302 159.903 56.5102C159.147 56.0902 158.553 55.5142 158.121 54.7822C157.689 54.0502 157.473 53.2102 157.473 52.2622C157.473 51.3142 157.689 50.4742 158.121 49.7422C158.553 49.0102 159.147 48.4402 159.903 48.0322C160.671 47.6122 161.541 47.4022 162.513 47.4022C163.377 47.4022 164.145 47.5762 164.817 47.9242C165.501 48.2602 166.029 48.7642 166.401 49.4362L165.087 50.2822C164.775 49.8142 164.391 49.4722 163.935 49.2562C163.491 49.0282 163.011 48.9142 162.495 48.9142C161.871 48.9142 161.313 49.0522 160.821 49.3282C160.329 49.6042 159.939 49.9942 159.651 50.4982C159.363 50.9902 159.219 51.5782 159.219 52.2622C159.219 52.9462 159.363 53.5402 159.651 54.0442C159.939 54.5482 160.329 54.9382 160.821 55.2142C161.313 55.4902 161.871 55.6282 162.495 55.6282C163.011 55.6282 163.491 55.5202 163.935 55.3042C164.391 55.0762 164.775 54.7282 165.087 54.2602L166.401 55.0882C166.029 55.7482 165.501 56.2582 164.817 56.6182C164.145 56.9662 163.377 57.1402 162.513 57.1402ZM170.225 57.0322V48.5542L170.657 49.0042H166.733V47.4922H175.445V49.0042H171.539L171.953 48.5542V57.0322H170.225ZM182.09 57.1402C181.298 57.1402 180.572 56.9602 179.912 56.6002C179.264 56.2282 178.742 55.6822 178.346 54.9622C177.962 54.2422 177.77 53.3422 177.77 52.2622C177.77 51.1822 177.956 50.2822 178.328 49.5622C178.712 48.8422 179.228 48.3022 179.876 47.9422C180.536 47.5822 181.274 47.4022 182.09 47.4022C183.026 47.4022 183.854 47.6062 184.574 48.0142C185.294 48.4222 185.864 48.9922 186.284 49.7242C186.704 50.4442 186.914 51.2902 186.914 52.2622C186.914 53.2342 186.704 54.0862 186.284 54.8182C185.864 55.5502 185.294 56.1202 184.574 56.5282C183.854 56.9362 183.026 57.1402 182.09 57.1402ZM177.032 60.5242V47.4922H178.688V50.0662L178.58 52.2802L178.76 54.4942V60.5242H177.032ZM181.946 55.6282C182.558 55.6282 183.104 55.4902 183.584 55.2142C184.076 54.9382 184.46 54.5482 184.736 54.0442C185.024 53.5282 185.168 52.9342 185.168 52.2622C185.168 51.5782 185.024 50.9902 184.736 50.4982C184.46 49.9942 184.076 49.6042 183.584 49.3282C183.104 49.0522 182.558 48.9142 181.946 48.9142C181.346 48.9142 180.8 49.0522 180.308 49.3282C179.828 49.6042 179.444 49.9942 179.156 50.4982C178.88 50.9902 178.742 51.5782 178.742 52.2622C178.742 52.9342 178.88 53.5282 179.156 54.0442C179.444 54.5482 179.828 54.9382 180.308 55.2142C180.8 55.4902 181.346 55.6282 181.946 55.6282ZM193.331 57.1402C192.371 57.1402 191.519 56.9302 190.775 56.5102C190.031 56.0902 189.443 55.5142 189.011 54.7822C188.579 54.0382 188.363 53.1982 188.363 52.2622C188.363 51.3142 188.579 50.4742 189.011 49.7422C189.443 49.0102 190.031 48.4402 190.775 48.0322C191.519 47.6122 192.371 47.4022 193.331 47.4022C194.279 47.4022 195.125 47.6122 195.869 48.0322C196.625 48.4402 197.213 49.0102 197.633 49.7422C198.065 50.4622 198.281 51.3022 198.281 52.2622C198.281 53.2102 198.065 54.0502 197.633 54.7822C197.213 55.5142 196.625 56.0902 195.869 56.5102C195.125 56.9302 194.279 57.1402 193.331 57.1402ZM193.331 55.6282C193.943 55.6282 194.489 55.4902 194.969 55.2142C195.461 54.9382 195.845 54.5482 196.121 54.0442C196.397 53.5282 196.535 52.9342 196.535 52.2622C196.535 51.5782 196.397 50.9902 196.121 50.4982C195.845 49.9942 195.461 49.6042 194.969 49.3282C194.489 49.0522 193.943 48.9142 193.331 48.9142C192.719 48.9142 192.173 49.0522 191.693 49.3282C191.213 49.6042 190.829 49.9942 190.541 50.4982C190.253 50.9902 190.109 51.5782 190.109 52.2622C190.109 52.9342 190.253 53.5282 190.541 54.0442C190.829 54.5482 191.213 54.9382 191.693 55.2142C192.173 55.4902 192.719 55.6282 193.331 55.6282ZM200.596 57.0322V47.4922H202.324V54.4402L208.174 47.4922H209.74V57.0322H208.012V50.0842L202.18 57.0322H200.596ZM214.804 57.0322V48.5542L215.236 49.0042H211.312V47.4922H220.024V49.0042H216.118L216.532 48.5542V57.0322H214.804ZM225.437 57.1402C224.417 57.1402 223.517 56.9302 222.737 56.5102C221.969 56.0902 221.369 55.5142 220.937 54.7822C220.517 54.0502 220.307 53.2102 220.307 52.2622C220.307 51.3142 220.511 50.4742 220.919 49.7422C221.339 49.0102 221.909 48.4402 222.629 48.0322C223.361 47.6122 224.183 47.4022 225.095 47.4022C226.019 47.4022 226.835 47.6062 227.543 48.0142C228.251 48.4222 228.803 48.9982 229.199 49.7422C229.607 50.4742 229.811 51.3322 229.811 52.3162C229.811 52.3882 229.805 52.4722 229.793 52.5682C229.793 52.6642 229.787 52.7542 229.775 52.8382H221.657V51.5962H228.875L228.173 52.0282C228.185 51.4162 228.059 50.8702 227.795 50.3902C227.531 49.9102 227.165 49.5382 226.697 49.2742C226.241 48.9982 225.707 48.8602 225.095 48.8602C224.495 48.8602 223.961 48.9982 223.493 49.2742C223.025 49.5382 222.659 49.9162 222.395 50.4082C222.131 50.8882 221.999 51.4402 221.999 52.0642V52.3522C221.999 52.9882 222.143 53.5582 222.431 54.0622C222.731 54.5542 223.145 54.9382 223.673 55.2142C224.201 55.4902 224.807 55.6282 225.491 55.6282C226.055 55.6282 226.565 55.5322 227.021 55.3402C227.489 55.1482 227.897 54.8602 228.245 54.4762L229.199 55.5922C228.767 56.0962 228.227 56.4802 227.579 56.7442C226.943 57.0082 226.229 57.1402 225.437 57.1402ZM230.57 57.0142L230.678 55.5562C230.762 55.5682 230.84 55.5802 230.912 55.5922C230.984 55.6042 231.05 55.6102 231.11 55.6102C231.494 55.6102 231.794 55.4782 232.01 55.2142C232.238 54.9502 232.406 54.6022 232.514 54.1702C232.622 53.7262 232.7 53.2282 232.748 52.6762C232.796 52.1242 232.832 51.5722 232.856 51.0202L233.018 47.4922H240.344V57.0322H238.616V48.5002L239.03 49.0042H234.134L234.53 48.4822L234.404 51.1282C234.368 51.9682 234.302 52.7542 234.206 53.4862C234.11 54.2182 233.96 54.8602 233.756 55.4122C233.564 55.9642 233.294 56.3962 232.946 56.7082C232.61 57.0202 232.172 57.1762 231.632 57.1762C231.476 57.1762 231.308 57.1582 231.128 57.1222C230.96 57.0982 230.774 57.0622 230.57 57.0142ZM247.915 50.7322C249.127 50.7442 250.051 51.0202 250.687 51.5602C251.323 52.1002 251.641 52.8622 251.641 53.8462C251.641 54.8782 251.293 55.6762 250.597 56.2402C249.901 56.7922 248.917 57.0622 247.645 57.0502L243.505 57.0322V47.4922H245.233V50.7142L247.915 50.7322ZM247.501 55.7362C248.281 55.7482 248.869 55.5922 249.265 55.2682C249.673 54.9442 249.877 54.4642 249.877 53.8282C249.877 53.2042 249.679 52.7482 249.283 52.4602C248.887 52.1722 248.293 52.0222 247.501 52.0102L245.233 51.9742V55.7182L247.501 55.7362ZM253.678 57.0322V47.4922H255.406V51.5422H260.842V47.4922H262.57V57.0322H260.842V53.0362H255.406V57.0322H253.678ZM269.836 57.1402C268.876 57.1402 268.024 56.9302 267.28 56.5102C266.536 56.0902 265.948 55.5142 265.516 54.7822C265.084 54.0382 264.868 53.1982 264.868 52.2622C264.868 51.3142 265.084 50.4742 265.516 49.7422C265.948 49.0102 266.536 48.4402 267.28 48.0322C268.024 47.6122 268.876 47.4022 269.836 47.4022C270.784 47.4022 271.63 47.6122 272.374 48.0322C273.13 48.4402 273.718 49.0102 274.138 49.7422C274.57 50.4622 274.786 51.3022 274.786 52.2622C274.786 53.2102 274.57 54.0502 274.138 54.7822C273.718 55.5142 273.13 56.0902 272.374 56.5102C271.63 56.9302 270.784 57.1402 269.836 57.1402ZM269.836 55.6282C270.448 55.6282 270.994 55.4902 271.474 55.2142C271.966 54.9382 272.35 54.5482 272.626 54.0442C272.902 53.5282 273.04 52.9342 273.04 52.2622C273.04 51.5782 272.902 50.9902 272.626 50.4982C272.35 49.9942 271.966 49.6042 271.474 49.3282C270.994 49.0522 270.448 48.9142 269.836 48.9142C269.224 48.9142 268.678 49.0522 268.198 49.3282C267.718 49.6042 267.334 49.9942 267.046 50.4982C266.758 50.9902 266.614 51.5782 266.614 52.2622C266.614 52.9342 266.758 53.5282 267.046 54.0442C267.334 54.5482 267.718 54.9382 268.198 55.2142C268.678 55.4902 269.224 55.6282 269.836 55.6282ZM277.102 57.0322V47.4922H278.83V54.4402L284.68 47.4922H286.246V57.0322H284.518V50.0842L278.686 57.0322H277.102ZM281.566 46.2502C280.69 46.2502 280 46.0402 279.496 45.6202C279.004 45.1882 278.752 44.5702 278.74 43.7662H279.91C279.922 44.2222 280.072 44.5822 280.36 44.8462C280.66 45.1102 281.056 45.2422 281.548 45.2422C282.04 45.2422 282.436 45.1102 282.736 44.8462C283.036 44.5822 283.192 44.2222 283.204 43.7662H284.41C284.398 44.5702 284.14 45.1882 283.636 45.6202C283.132 46.0402 282.442 46.2502 281.566 46.2502ZM294.074 57.0322V47.4922H295.802V54.4402L301.652 47.4922H303.218V57.0322H301.49V50.0842L295.658 57.0322H294.074ZM315.204 57.1402C314.232 57.1402 313.362 56.9302 312.594 56.5102C311.838 56.0902 311.244 55.5142 310.812 54.7822C310.38 54.0502 310.164 53.2102 310.164 52.2622C310.164 51.3142 310.38 50.4742 310.812 49.7422C311.244 49.0102 311.838 48.4402 312.594 48.0322C313.362 47.6122 314.232 47.4022 315.204 47.4022C316.068 47.4022 316.836 47.5762 317.508 47.9242C318.192 48.2602 318.72 48.7642 319.092 49.4362L317.778 50.2822C317.466 49.8142 317.082 49.4722 316.626 49.2562C316.182 49.0282 315.702 48.9142 315.186 48.9142C314.562 48.9142 314.004 49.0522 313.512 49.3282C313.02 49.6042 312.63 49.9942 312.342 50.4982C312.054 50.9902 311.91 51.5782 311.91 52.2622C311.91 52.9462 312.054 53.5402 312.342 54.0442C312.63 54.5482 313.02 54.9382 313.512 55.2142C314.004 55.4902 314.562 55.6282 315.186 55.6282C315.702 55.6282 316.182 55.5202 316.626 55.3042C317.082 55.0762 317.466 54.7282 317.778 54.2602L319.092 55.0882C318.72 55.7482 318.192 56.2582 317.508 56.6182C316.836 56.9662 316.068 57.1402 315.204 57.1402ZM325.256 57.1402C324.236 57.1402 323.336 56.9302 322.556 56.5102C321.788 56.0902 321.188 55.5142 320.756 54.7822C320.336 54.0502 320.126 53.2102 320.126 52.2622C320.126 51.3142 320.33 50.4742 320.738 49.7422C321.158 49.0102 321.728 48.4402 322.448 48.0322C323.18 47.6122 324.002 47.4022 324.914 47.4022C325.838 47.4022 326.654 47.6062 327.362 48.0142C328.07 48.4222 328.622 48.9982 329.018 49.7422C329.426 50.4742 329.63 51.3322 329.63 52.3162C329.63 52.3882 329.624 52.4722 329.612 52.5682C329.612 52.6642 329.606 52.7542 329.594 52.8382H321.476V51.5962H328.694L327.992 52.0282C328.004 51.4162 327.878 50.8702 327.614 50.3902C327.35 49.9102 326.984 49.5382 326.516 49.2742C326.06 48.9982 325.526 48.8602 324.914 48.8602C324.314 48.8602 323.78 48.9982 323.312 49.2742C322.844 49.5382 322.478 49.9162 322.214 50.4082C321.95 50.8882 321.818 51.4402 321.818 52.0642V52.3522C321.818 52.9882 321.962 53.5582 322.25 54.0622C322.55 54.5542 322.964 54.9382 323.492 55.2142C324.02 55.4902 324.626 55.6282 325.31 55.6282C325.874 55.6282 326.384 55.5322 326.84 55.3402C327.308 55.1482 327.716 54.8602 328.064 54.4762L329.018 55.5922C328.586 56.0962 328.046 56.4802 327.398 56.7442C326.762 57.0082 326.048 57.1402 325.256 57.1402ZM330.389 57.0142L330.497 55.5562C330.581 55.5682 330.659 55.5802 330.731 55.5922C330.803 55.6042 330.869 55.6102 330.929 55.6102C331.313 55.6102 331.613 55.4782 331.829 55.2142C332.057 54.9502 332.225 54.6022 332.333 54.1702C332.441 53.7262 332.519 53.2282 332.567 52.6762C332.615 52.1242 332.651 51.5722 332.675 51.0202L332.837 47.4922H340.163V57.0322H338.435V48.5002L338.849 49.0042H333.953L334.349 48.4822L334.223 51.1282C334.187 51.9682 334.121 52.7542 334.025 53.4862C333.929 54.2182 333.779 54.8602 333.575 55.4122C333.383 55.9642 333.113 56.3962 332.765 56.7082C332.429 57.0202 331.991 57.1762 331.451 57.1762C331.295 57.1762 331.127 57.1582 330.947 57.1222C330.779 57.0982 330.593 57.0622 330.389 57.0142ZM347.734 50.7322C348.946 50.7442 349.87 51.0202 350.506 51.5602C351.142 52.1002 351.46 52.8622 351.46 53.8462C351.46 54.8782 351.112 55.6762 350.416 56.2402C349.72 56.7922 348.736 57.0622 347.464 57.0502L343.324 57.0322V47.4922H345.052V50.7142L347.734 50.7322ZM347.32 55.7362C348.1 55.7482 348.688 55.5922 349.084 55.2682C349.492 54.9442 349.696 54.4642 349.696 53.8282C349.696 53.2042 349.498 52.7482 349.102 52.4602C348.706 52.1722 348.112 52.0222 347.32 52.0102L345.052 51.9742V55.7182L347.32 55.7362ZM351.3 57.0322L355.404 51.7042L355.386 52.5862L351.48 47.4922H353.406L356.394 51.4162H355.656L358.644 47.4922H360.534L356.574 52.6222L356.592 51.7042L360.732 57.0322H358.77L355.62 52.8562L356.322 52.9642L353.226 57.0322H351.3ZM366.14 57.1402C365.18 57.1402 364.328 56.9302 363.584 56.5102C362.84 56.0902 362.252 55.5142 361.82 54.7822C361.388 54.0382 361.172 53.1982 361.172 52.2622C361.172 51.3142 361.388 50.4742 361.82 49.7422C362.252 49.0102 362.84 48.4402 363.584 48.0322C364.328 47.6122 365.18 47.4022 366.14 47.4022C367.088 47.4022 367.934 47.6122 368.678 48.0322C369.434 48.4402 370.022 49.0102 370.442 49.7422C370.874 50.4622 371.09 51.3022 371.09 52.2622C371.09 53.2102 370.874 54.0502 370.442 54.7822C370.022 55.5142 369.434 56.0902 368.678 56.5102C367.934 56.9302 367.088 57.1402 366.14 57.1402ZM366.14 55.6282C366.752 55.6282 367.298 55.4902 367.778 55.2142C368.27 54.9382 368.654 54.5482 368.93 54.0442C369.206 53.5282 369.344 52.9342 369.344 52.2622C369.344 51.5782 369.206 50.9902 368.93 50.4982C368.654 49.9942 368.27 49.6042 367.778 49.3282C367.298 49.0522 366.752 48.9142 366.14 48.9142C365.528 48.9142 364.982 49.0522 364.502 49.3282C364.022 49.6042 363.638 49.9942 363.35 50.4982C363.062 50.9902 362.918 51.5782 362.918 52.2622C362.918 52.9342 363.062 53.5282 363.35 54.0442C363.638 54.5482 364.022 54.9382 364.502 55.2142C364.982 55.4902 365.528 55.6282 366.14 55.6282ZM376.09 57.1582C375.37 57.1582 374.662 57.0682 373.966 56.8882C373.282 56.6962 372.67 56.4262 372.13 56.0782L372.652 54.7642C373.108 55.0522 373.63 55.2802 374.218 55.4482C374.806 55.6042 375.4 55.6822 376 55.6822C376.552 55.6822 377.026 55.6162 377.422 55.4842C377.83 55.3522 378.142 55.1722 378.358 54.9442C378.574 54.7042 378.682 54.4282 378.682 54.1162C378.682 53.6722 378.484 53.3302 378.088 53.0902C377.692 52.8502 377.14 52.7302 376.432 52.7302H374.704V51.4882H376.324C376.744 51.4882 377.11 51.4402 377.422 51.3442C377.734 51.2482 377.974 51.1042 378.142 50.9122C378.322 50.7082 378.412 50.4742 378.412 50.2102C378.412 49.9222 378.31 49.6762 378.106 49.4722C377.902 49.2682 377.614 49.1122 377.242 49.0042C376.882 48.8962 376.456 48.8422 375.964 48.8422C375.484 48.8542 374.992 48.9202 374.488 49.0402C373.996 49.1602 373.492 49.3462 372.976 49.5982L372.508 48.2482C373.084 47.9722 373.648 47.7622 374.2 47.6182C374.764 47.4622 375.322 47.3782 375.874 47.3662C376.702 47.3422 377.44 47.4382 378.088 47.6542C378.736 47.8582 379.246 48.1582 379.618 48.5542C380.002 48.9502 380.194 49.4182 380.194 49.9582C380.194 50.4142 380.05 50.8222 379.762 51.1822C379.474 51.5302 379.09 51.8062 378.61 52.0102C378.13 52.2142 377.578 52.3162 376.954 52.3162L377.026 51.9022C378.094 51.9022 378.934 52.1122 379.546 52.5322C380.158 52.9522 380.464 53.5222 380.464 54.2422C380.464 54.8182 380.272 55.3282 379.888 55.7722C379.504 56.2042 378.982 56.5462 378.322 56.7982C377.674 57.0382 376.93 57.1582 376.09 57.1582ZM389.455 57.0322V48.5542L389.887 49.0042H385.963V47.4922H394.675V49.0042H390.769L391.183 48.5542V57.0322H389.455ZM400.088 57.1402C399.068 57.1402 398.168 56.9302 397.388 56.5102C396.62 56.0902 396.02 55.5142 395.588 54.7822C395.168 54.0502 394.958 53.2102 394.958 52.2622C394.958 51.3142 395.162 50.4742 395.57 49.7422C395.99 49.0102 396.56 48.4402 397.28 48.0322C398.012 47.6122 398.834 47.4022 399.746 47.4022C400.67 47.4022 401.486 47.6062 402.194 48.0142C402.902 48.4222 403.454 48.9982 403.85 49.7422C404.258 50.4742 404.462 51.3322 404.462 52.3162C404.462 52.3882 404.456 52.4722 404.444 52.5682C404.444 52.6642 404.438 52.7542 404.426 52.8382H396.308V51.5962H403.526L402.824 52.0282C402.836 51.4162 402.71 50.8702 402.446 50.3902C402.182 49.9102 401.816 49.5382 401.348 49.2742C400.892 48.9982 400.358 48.8602 399.746 48.8602C399.146 48.8602 398.612 48.9982 398.144 49.2742C397.676 49.5382 397.31 49.9162 397.046 50.4082C396.782 50.8882 396.65 51.4402 396.65 52.0642V52.3522C396.65 52.9882 396.794 53.5582 397.082 54.0622C397.382 54.5542 397.796 54.9382 398.324 55.2142C398.852 55.4902 399.458 55.6282 400.142 55.6282C400.706 55.6282 401.216 55.5322 401.672 55.3402C402.14 55.1482 402.548 54.8602 402.896 54.4762L403.85 55.5922C403.418 56.0962 402.878 56.4802 402.23 56.7442C401.594 57.0082 400.88 57.1402 400.088 57.1402ZM405.187 57.0322L409.291 51.7042L409.273 52.5862L405.367 47.4922H407.293L410.281 51.4162H409.543L412.531 47.4922H414.421L410.461 52.6222L410.479 51.7042L414.619 57.0322H412.657L409.507 52.8562L410.209 52.9642L407.113 57.0322H405.187ZM416.257 57.0322V47.4922H417.985V51.5422H423.421V47.4922H425.149V57.0322H423.421V53.0362H417.985V57.0322H416.257ZM428.329 57.0322V47.4922H430.057V54.4402L435.907 47.4922H437.473V57.0322H435.745V50.0842L429.913 57.0322H428.329ZM447.559 57.0322L443.869 52.3882L445.291 51.5242L449.593 57.0322H447.559ZM440.647 57.0322V47.4922H442.375V57.0322H440.647ZM441.853 53.0002V51.5242H445.003V53.0002H441.853ZM445.435 52.4602L443.833 52.2442L447.487 47.4922H449.341L445.435 52.4602ZM451.225 57.0322V47.4922H452.953V54.4402L458.803 47.4922H460.369V57.0322H458.641V50.0842L452.809 57.0322H451.225Z" fill="white"/>
<path d="M111.302 20.1887L108.528 27.3775H121.547C121.689 27.3209 121.915 27.1228 122 27.0096L125.51 17.8963H112.114H106.943L107.481 16.5095C108.217 14.5849 110.396 13 112.321 13L113.849 13L132.642 13L126.557 28.7926C125.821 30.7171 123.642 32.2737 121.717 32.2737H104.906C103.406 32.2737 102.5 31.3398 102.5 30.0379C102.5 29.6416 102.585 29.2171 102.755 28.7926L106.066 20.1887H111.302Z" fill="white"/>
<path d="M159.005 13L156.26 20.1887H150.996L151.902 17.8963H138.574H133.335L133.873 16.5095C134.609 14.5849 136.788 13 138.713 13L140.454 13L159.005 13ZM137.694 20.1887L134.92 27.3775H147.939C148.081 27.3209 148.307 27.1228 148.364 27.0096L149.128 25.085H154.364L152.949 28.7926C152.185 30.7171 150.005 32.2737 148.081 32.2737H131.298C129.826 32.2737 128.892 31.3398 128.892 30.0379C128.892 29.6699 128.977 29.2454 129.147 28.7926L132.458 20.1887H137.694Z" fill="white"/>
<path d="M263.657 13L260.883 20.1887H255.647L256.525 17.8963H237.987L238.524 16.5095C239.26 14.5849 241.44 13 243.364 13H263.657ZM250.864 20.1887L248.968 25.085H240.449L239.572 27.3775H252.562C252.732 27.3209 252.959 27.1228 253.015 27.0096L253.751 25.085H259.015L257.572 28.7926C256.836 30.7171 254.657 32.2737 252.732 32.2737H235.921C234.421 32.2737 233.515 31.3398 233.515 30.0379C233.515 29.6416 233.6 29.2171 233.77 28.7926L237.081 20.1887H250.864Z" fill="#8BCC00"/>
<path d="M271.929 13C271.346 14.5069 270.919 15.6102 270.572 16.5095C269.333 19.7145 269.1 20.3273 266.381 27.3775H279.4C279.542 27.3209 279.768 27.1228 279.853 27.0096L285.231 13H290.495L284.41 28.7926C283.646 30.7171 281.466 32.2737 279.57 32.2737H262.759C261.259 32.2737 260.353 31.3398 260.353 30.0379C260.353 29.6416 260.438 29.2171 260.608 28.7926L265.334 16.5095C266.07 14.5849 268.249 13 270.174 13H271.929Z" fill="#8BCC00"/>
<path d="M352.865 13L350.119 20.1887H344.855L345.761 17.8963H327.195L327.732 16.5095C328.468 14.5849 330.648 13 332.572 13H352.865ZM331.553 20.1887L328.78 27.3775H341.799C341.94 27.3209 342.167 27.1228 342.223 27.0096L342.987 25.085H348.223L346.808 28.7926C346.044 30.7171 343.865 32.2737 341.94 32.2737H325.157C323.685 32.2737 322.751 31.3398 322.751 30.0379C322.751 29.6699 322.836 29.2454 323.006 28.7926L326.317 20.1887H331.553Z" fill="white"/>
<path d="M379.204 13L376.43 20.1887H371.194L372.071 17.8963H353.534L354.071 16.5095C354.807 14.5849 356.986 13 358.911 13H379.204ZM366.411 20.1887L364.515 25.085H355.996L355.118 27.3775H368.109C368.279 27.3209 368.505 27.1228 368.562 27.0096L369.298 25.085H374.562L373.119 28.7926C372.383 30.7171 370.203 32.2737 368.279 32.2737H351.467C349.967 32.2737 349.062 31.3398 349.062 30.0379C349.062 29.6416 349.147 29.2171 349.317 28.7926L352.628 20.1887H366.411Z" fill="white"/>
<path d="M431.852 13L425.767 28.7926C425.031 30.7171 422.852 32.2737 420.927 32.2737H404.116C402.616 32.2737 401.71 31.3398 401.71 30.0379C401.71 29.6416 401.795 29.2171 401.965 28.7926L405.276 20.1887H410.512L407.739 27.3775H420.758C420.899 27.3209 421.126 27.1228 421.211 27.0096L421.946 25.085H410.909L412.776 20.1887H423.814L424.72 17.8963H406.154L406.692 16.5095C407.427 14.5849 409.607 13 411.531 13H431.852Z" fill="white"/>
<path d="M439.624 13C436.964 19.8774 437.558 18.3491 434.077 27.3775H447.096C447.237 27.3209 447.464 27.1228 447.549 27.0096L452.926 13H458.19L452.105 28.7926C451.341 30.7171 449.162 32.2737 447.266 32.2737H430.454C428.954 32.2737 428.048 31.3398 428.048 30.0379C428.048 29.6416 428.133 29.2171 428.303 28.7926L433.03 16.5095C433.766 14.5849 435.945 13 437.869 13H439.624Z" fill="white"/>
<path d="M484.5 13L481.755 20.1887H476.491L477.396 17.8963H458.83L459.368 16.5095C460.104 14.5849 462.283 13 464.207 13H484.5ZM463.189 20.1887L460.415 27.3775H473.434C473.575 27.3209 473.802 27.1228 473.858 27.0096L474.623 25.085H479.859L478.443 28.7926C477.679 30.7171 475.5 32.2737 473.575 32.2737H456.792C455.321 32.2737 454.387 31.3398 454.387 30.0379C454.387 29.6699 454.471 29.2454 454.641 28.7926L457.953 20.1887H463.189Z" fill="white"/>
<path d="M311.675 25.085L314.42 17.8963H301.43C301.288 17.9529 301.062 18.151 300.977 18.2642L297.467 27.3775H310.734H315.986H321.02L319.124 32.2737H290.335L292.222 27.3775L296.42 16.4812C297.156 14.5566 299.335 13 301.26 13H321.581L316.911 25.085H311.675Z" fill="#8BCC00"/>
<path d="M290.335 32.2737L292.222 27.3775H290.588C288.664 27.3775 286.484 28.9341 285.749 30.8586L285.183 32.2737H290.335Z" fill="#8BCC00"/>
<path d="M112.114 17.8963H106.943L106.066 20.1887H111.302L112.114 17.8963Z" fill="white"/>
<path d="M138.574 17.8963H133.335L132.458 20.1887H137.694L138.574 17.8963Z" fill="white"/>
<path d="M83.8312 25.0833L82.9615 27.3755L81.0819 32.2711H79.3426C77.8557 32.2711 76.002 32.2711 76.002 32.2711C76.002 32.2711 77.0421 29.1866 77.2105 28.7621C78.7815 24.6872 80.3525 20.584 81.9235 16.4807C82.6529 14.5565 84.8131 13.0001 86.7208 13.0001H106.836L103.553 21.5744C102.824 23.4987 100.664 25.0833 98.756 25.0833H83.8312ZM98.5876 20.1878C98.756 20.1029 98.9804 19.9331 99.0365 19.7916L99.7659 17.8956H86.8891C86.7208 17.9522 86.4963 18.1503 86.4402 18.2635L85.7108 20.1878H98.5876Z" fill="white"/>
<path d="M214.212 25.0833L213.342 27.3754L211.463 32.271H209.723C208.236 32.271 206.383 32.271 206.383 32.271C206.383 32.271 207.423 29.1865 207.591 28.762C209.162 24.6871 210.733 20.5839 212.304 16.4807C213.034 14.5564 215.194 13 217.102 13H237.216L233.934 21.5743C233.204 23.4986 231.044 25.0833 229.137 25.0833H214.212ZM228.968 20.1877C229.137 20.1028 229.361 19.933 229.417 19.7915L230.147 17.8956H217.27C217.101 17.9522 216.877 18.1502 216.821 18.2634L216.092 20.1877H228.968Z" fill="#8BCC00"/>
<path d="M382.362 25.0837L381.492 27.3759L379.612 32.2715H377.873C376.386 32.2715 374.532 32.2715 374.532 32.2715C374.532 32.2715 375.573 29.187 375.741 28.7625C377.312 24.6876 378.883 20.5844 380.454 16.4811C381.183 14.5569 383.344 13.0005 385.251 13.0005H405.366L402.084 21.5748C401.354 23.4991 399.194 25.0837 397.286 25.0837H382.362ZM397.118 20.1882C397.286 20.1033 397.511 19.9335 397.567 19.792L398.296 17.896H385.419C385.251 17.9526 385.027 18.1507 384.971 18.2639L384.241 20.1882H397.118Z" fill="white"/>
<path d="M185.282 13.0005L182.518 20.1882H177.273L178.175 17.896H174.706L169.179 32.2715H163.933L169.461 17.896H165.897L165.033 20.1882H159.091L160.21 16.4811C160.944 14.5569 163.115 13.0005 165.033 13.0005H185.282Z" fill="white"/>
<path d="M211.174 13.0005L208.411 20.1882H203.165L204.067 17.896H200.599L195.071 32.2715H189.826L195.353 17.896H191.789L190.925 20.1882H184.983L186.103 16.4811C186.836 14.5569 189.008 13.0005 190.925 13.0005H211.174Z" fill="#8BCC00"/>
<path d="M242.66 17.8963H237.987L237.081 20.1887H241.755L242.66 17.8963Z" fill="#8BCC00"/>
<path d="M316.911 25.085H311.675L310.734 27.3775H315.986L316.911 25.085Z" fill="#8BCC00"/>
<path fill-rule="evenodd" clip-rule="evenodd" d="M274.101 16.5095C274.143 16.3987 274.19 16.289 274.242 16.1807L274.101 16.5095Z" fill="#8BCC00"/>
<path d="M280.695 13H278.94C277.127 13 275.087 14.4077 274.242 16.1807L274.101 16.5095H279.338C279.686 15.6102 280.112 14.5069 280.695 13Z" fill="#8BCC00"/>
<path d="M332.431 17.8963H327.195L326.317 20.1887H331.553L332.431 17.8963Z" fill="white"/>
<path d="M358.101 17.8963H353.534L352.628 20.1887H357.196L358.101 17.8963Z" fill="white"/>
<path d="M405.276 20.1887H410.512L411.39 17.8963H406.154L405.276 20.1887Z" fill="white"/>
<path d="M464.066 17.8963H458.83L457.953 20.1887H463.189L464.066 17.8963Z" fill="white"/>
</svg>
