<svg width="144" height="45" viewBox="0 0 144 45" fill="none" xmlns="http://www.w3.org/2000/svg">
<path d="M45.9126 29.0321V35.1553H44.7561V29.9447H42.1655V35.1553H41.009V29.0321H45.9126ZM48.1891 31.4797V36.9048H47.0747V30.6049H48.105L48.1891 31.4797ZM51.1119 32.8339V32.9222C51.1119 33.253 51.0727 33.56 50.9942 33.8432C50.9185 34.1235 50.8064 34.3688 50.6578 34.5791C50.5092 34.7866 50.3241 34.9492 50.1026 35.067C49.8839 35.1819 49.6316 35.2394 49.3456 35.2394C49.0653 35.2394 48.8214 35.1861 48.6139 35.0796C48.4064 34.9702 48.2312 34.816 48.0882 34.617C47.9452 34.4179 47.8303 34.1866 47.7434 33.9231C47.6593 33.6567 47.5962 33.3665 47.5541 33.0525V32.7708C47.5962 32.4371 47.6593 32.1343 47.7434 31.8624C47.8303 31.5876 47.9452 31.3507 48.0882 31.1517C48.2312 30.9498 48.405 30.7942 48.6097 30.6849C48.8172 30.5755 49.0597 30.5208 49.3372 30.5208C49.626 30.5208 49.8797 30.5755 50.0984 30.6849C50.3199 30.7942 50.5064 30.9512 50.6578 31.1559C50.8092 31.3605 50.9227 31.6044 50.9984 31.8876C51.0741 32.1708 51.1119 32.4862 51.1119 32.8339ZM49.9975 32.9222V32.8339C49.9975 32.632 49.9793 32.4455 49.9428 32.2745C49.9064 32.1007 49.8503 31.9493 49.7746 31.8203C49.6989 31.6886 49.6008 31.5862 49.4802 31.5133C49.3597 31.4404 49.2139 31.404 49.0429 31.404C48.8718 31.404 48.7246 31.432 48.6013 31.4881C48.4779 31.5442 48.377 31.6241 48.2985 31.7278C48.22 31.8315 48.1583 31.9549 48.1134 32.0979C48.0714 32.2381 48.0434 32.3937 48.0293 32.5647V33.2628C48.0546 33.4703 48.1036 33.6567 48.1765 33.8221C48.2494 33.9876 48.356 34.1193 48.4961 34.2175C48.6391 34.3156 48.8242 34.3646 49.0513 34.3646C49.2223 34.3646 49.3681 34.3268 49.4886 34.2511C49.6092 34.1754 49.7073 34.0717 49.783 33.9399C49.8587 33.8053 49.9134 33.6511 49.947 33.4773C49.9807 33.3035 49.9975 33.1184 49.9975 32.9222ZM51.7862 32.9264V32.8381C51.7862 32.5044 51.8339 32.1974 51.9292 31.9171C52.0245 31.6339 52.1633 31.3886 52.3456 31.1811C52.5278 30.9736 52.7507 30.8124 53.0142 30.6975C53.2778 30.5797 53.5778 30.5208 53.9142 30.5208C54.2563 30.5208 54.559 30.5797 54.8226 30.6975C55.0889 30.8124 55.3132 30.9736 55.4955 31.1811C55.6777 31.3886 55.8165 31.6339 55.9118 31.9171C56.0071 32.1974 56.0548 32.5044 56.0548 32.8381V32.9264C56.0548 33.2572 56.0071 33.5642 55.9118 33.8474C55.8165 34.1277 55.6777 34.3731 55.4955 34.5833C55.3132 34.7908 55.0903 34.952 54.8268 35.067C54.5633 35.1819 54.2619 35.2394 53.9226 35.2394C53.5862 35.2394 53.2848 35.1819 53.0184 35.067C52.7521 34.952 52.5278 34.7908 52.3456 34.5833C52.1633 34.3731 52.0245 34.1277 51.9292 33.8474C51.8339 33.5642 51.7862 33.2572 51.7862 32.9264ZM52.8965 32.8381V32.9264C52.8965 33.1254 52.9161 33.3119 52.9554 33.4857C52.9946 33.6595 53.0549 33.8123 53.1362 33.9441C53.2175 34.0759 53.3226 34.1796 53.4516 34.2553C53.5834 34.3282 53.7404 34.3646 53.9226 34.3646C54.1021 34.3646 54.2563 34.3282 54.3852 34.2553C54.5142 34.1796 54.6193 34.0759 54.7006 33.9441C54.7847 33.8123 54.8464 33.6595 54.8857 33.4857C54.9249 33.3119 54.9446 33.1254 54.9446 32.9264V32.8381C54.9446 32.6418 54.9249 32.4582 54.8857 32.2871C54.8464 32.1133 54.7847 31.9605 54.7006 31.8287C54.6193 31.6942 54.5128 31.589 54.381 31.5133C54.252 31.4348 54.0964 31.3956 53.9142 31.3956C53.7348 31.3956 53.5806 31.4348 53.4516 31.5133C53.3226 31.589 53.2175 31.6942 53.1362 31.8287C53.0549 31.9605 52.9946 32.1133 52.9554 32.2871C52.9161 32.4582 52.8965 32.6418 52.8965 32.8381ZM57.4398 30.6049H58.5501L58.508 32.1694C58.494 32.6432 58.4379 33.0525 58.3398 33.3974C58.2445 33.7394 58.1169 34.0268 57.9571 34.2595C57.8001 34.4922 57.6206 34.6801 57.4188 34.823C57.2197 34.966 57.0109 35.0768 56.7922 35.1553H56.5272L56.523 34.2889L56.6534 34.2805C56.7852 34.1404 56.8959 34.003 56.9856 33.8684C57.0781 33.731 57.1524 33.5838 57.2085 33.4268C57.2646 33.2698 57.3066 33.0904 57.3347 32.8885C57.3655 32.6839 57.3851 32.4441 57.3936 32.1694L57.4398 30.6049ZM57.7384 30.6049H60.6864V35.1553H59.5762V31.5175H57.7384V30.6049ZM56.2749 34.2805H61.3215V36.5178H60.2112V35.1553H57.4062V36.5178H56.2707L56.2749 34.2805ZM64.5695 34.188V32.0895C64.5695 31.9353 64.5429 31.8021 64.4896 31.69C64.4363 31.5778 64.355 31.4909 64.2457 31.4292C64.1363 31.3675 63.9976 31.3367 63.8293 31.3367C63.6807 31.3367 63.5504 31.3619 63.4382 31.4124C63.3289 31.4629 63.2448 31.5344 63.1859 31.6269C63.127 31.7166 63.0976 31.8203 63.0976 31.9381H61.9831C61.9831 31.7502 62.028 31.5722 62.1177 31.404C62.2074 31.233 62.335 31.0816 62.5004 30.9498C62.6686 30.8152 62.8691 30.7101 63.1018 30.6344C63.3373 30.5587 63.6008 30.5208 63.8924 30.5208C64.2373 30.5208 64.5443 30.5797 64.8134 30.6975C65.0854 30.8124 65.2985 30.9862 65.4527 31.2189C65.6097 31.4517 65.6882 31.7446 65.6882 32.0979V34.0829C65.6882 34.31 65.7022 34.5048 65.7302 34.6674C65.7611 34.8272 65.8059 34.966 65.8648 35.0838V35.1553H64.7335C64.6802 35.0403 64.6396 34.8945 64.6116 34.7179C64.5835 34.5385 64.5695 34.3618 64.5695 34.188ZM64.7251 32.3839L64.7335 33.0441H64.0312C63.8574 33.0441 63.7046 33.0623 63.5728 33.0988C63.441 33.1324 63.3331 33.1829 63.249 33.2502C63.1649 33.3147 63.1018 33.3932 63.0597 33.4857C63.0177 33.5754 62.9967 33.6777 62.9967 33.7927C62.9967 33.9048 63.0219 34.0058 63.0724 34.0955C63.1256 34.1852 63.2013 34.2567 63.2995 34.31C63.4004 34.3604 63.5181 34.3857 63.6527 34.3857C63.849 34.3857 64.02 34.3464 64.1658 34.2679C64.3116 34.1866 64.4251 34.0885 64.5064 33.9735C64.5877 33.8586 64.6312 33.7492 64.6368 33.6455L64.9564 34.1249C64.9172 34.2399 64.8583 34.3618 64.7798 34.4908C64.7013 34.6198 64.6003 34.7403 64.477 34.8525C64.3536 34.9646 64.205 35.0571 64.0312 35.13C63.8574 35.2029 63.6555 35.2394 63.4256 35.2394C63.1312 35.2394 62.8677 35.1805 62.635 35.0628C62.4023 34.945 62.2186 34.7838 62.0841 34.5791C61.9495 34.3745 61.8822 34.1418 61.8822 33.881C61.8822 33.6399 61.9271 33.4268 62.0168 33.2418C62.1065 33.0567 62.2397 32.9011 62.4163 32.775C62.5929 32.646 62.8116 32.5493 63.0724 32.4848C63.3359 32.4175 63.6373 32.3839 63.9765 32.3839H64.7251ZM68.3012 33.3806L66.4508 30.6049H67.8218L68.8353 32.3586H69.7142L69.5754 33.3806H68.3012ZM68.8563 33.2039L67.7545 35.1553H66.4045L67.9816 32.6236L68.8563 33.2039ZM70.4123 30.6049V35.1553H69.3021V30.6049H70.4123ZM73.2763 30.6049L71.4216 33.3806H70.1474L70.0086 32.3586H70.8875L71.9011 30.6049H73.2763ZM71.9684 35.1553L70.8665 33.2039L71.7707 32.6236L73.3435 35.1553H71.9684ZM76.5243 34.188V32.0895C76.5243 31.9353 76.4977 31.8021 76.4444 31.69C76.3911 31.5778 76.3098 31.4909 76.2005 31.4292C76.0911 31.3675 75.9524 31.3367 75.7841 31.3367C75.6355 31.3367 75.5052 31.3619 75.393 31.4124C75.2837 31.4629 75.1996 31.5344 75.1407 31.6269C75.0818 31.7166 75.0524 31.8203 75.0524 31.9381H73.9379C73.9379 31.7502 73.9828 31.5722 74.0725 31.404C74.1622 31.233 74.2898 31.0816 74.4552 30.9498C74.6234 30.8152 74.8239 30.7101 75.0566 30.6344C75.2921 30.5587 75.5556 30.5208 75.8472 30.5208C76.1921 30.5208 76.4991 30.5797 76.7682 30.6975C77.0402 30.8124 77.2532 30.9862 77.4074 31.2189C77.5644 31.4517 77.643 31.7446 77.643 32.0979V34.0829C77.643 34.31 77.657 34.5048 77.685 34.6674C77.7158 34.8272 77.7607 34.966 77.8196 35.0838V35.1553H76.6883C76.635 35.0403 76.5944 34.8945 76.5663 34.7179C76.5383 34.5385 76.5243 34.3618 76.5243 34.188ZM76.6799 32.3839L76.6883 33.0441H75.986C75.8122 33.0441 75.6594 33.0623 75.5276 33.0988C75.3958 33.1324 75.2879 33.1829 75.2038 33.2502C75.1197 33.3147 75.0566 33.3932 75.0145 33.4857C74.9725 33.5754 74.9514 33.6777 74.9514 33.7927C74.9514 33.9048 74.9767 34.0058 75.0271 34.0955C75.0804 34.1852 75.1561 34.2567 75.2542 34.31C75.3552 34.3604 75.4729 34.3857 75.6075 34.3857C75.8038 34.3857 75.9748 34.3464 76.1206 34.2679C76.2664 34.1866 76.3799 34.0885 76.4612 33.9735C76.5425 33.8586 76.586 33.7492 76.5916 33.6455L76.9112 34.1249C76.8719 34.2399 76.8131 34.3618 76.7346 34.4908C76.6561 34.6198 76.5551 34.7403 76.4318 34.8525C76.3084 34.9646 76.1598 35.0571 75.986 35.13C75.8122 35.2029 75.6103 35.2394 75.3804 35.2394C75.086 35.2394 74.8225 35.1805 74.5898 35.0628C74.3571 34.945 74.1734 34.7838 74.0389 34.5791C73.9043 34.3745 73.837 34.1418 73.837 33.881C73.837 33.6399 73.8819 33.4268 73.9716 33.2418C74.0613 33.0567 74.1945 32.9011 74.3711 32.775C74.5477 32.646 74.7664 32.5493 75.0271 32.4848C75.2907 32.4175 75.5921 32.3839 75.9313 32.3839H76.6799ZM82.7765 34.3646C82.9335 34.3646 83.0736 34.3338 83.197 34.2721C83.3204 34.2104 83.4185 34.1235 83.4914 34.0114C83.5671 33.8992 83.6077 33.7689 83.6133 33.6203H84.6605C84.6549 33.9287 84.568 34.2048 84.3998 34.4488C84.2316 34.6927 84.0073 34.8861 83.7269 35.0291C83.4493 35.1693 83.1381 35.2394 82.7933 35.2394C82.4428 35.2394 82.1372 35.1805 81.8765 35.0628C81.6157 34.945 81.3985 34.781 81.2246 34.5707C81.0536 34.3604 80.9246 34.1165 80.8377 33.839C80.7536 33.5614 80.7116 33.2642 80.7116 32.9474V32.8128C80.7116 32.496 80.7536 32.1988 80.8377 31.9213C80.9246 31.6437 81.0536 31.3998 81.2246 31.1895C81.3985 30.9792 81.6157 30.8152 81.8765 30.6975C82.1372 30.5797 82.4414 30.5208 82.7891 30.5208C83.1564 30.5208 83.4788 30.5923 83.7563 30.7353C84.0367 30.8783 84.2554 31.0802 84.4124 31.3409C84.5722 31.6016 84.6549 31.9086 84.6605 32.2619H83.6133C83.6077 32.0993 83.5713 31.9535 83.504 31.8245C83.4367 31.6956 83.3414 31.5918 83.218 31.5133C83.0947 31.4348 82.9447 31.3956 82.768 31.3956C82.5802 31.3956 82.4232 31.4348 82.297 31.5133C82.1737 31.5918 82.0769 31.6998 82.0069 31.8372C81.9396 31.9717 81.8919 32.1231 81.8639 32.2913C81.8386 32.4568 81.826 32.6306 81.826 32.8128V32.9474C81.826 33.1324 81.8386 33.3091 81.8639 33.4773C81.8919 33.6455 81.9396 33.7969 82.0069 33.9315C82.0769 34.0633 82.1737 34.1684 82.297 34.2469C82.4232 34.3254 82.583 34.3646 82.7765 34.3646ZM87.6688 30.6049V35.1553H86.5544V30.6049H87.6688ZM89.1492 30.6049V31.4713H85.0993V30.6049H89.1492ZM90.9716 31.4797V36.9048H89.8571V30.6049H90.8874L90.9716 31.4797ZM93.8944 32.8339V32.9222C93.8944 33.253 93.8551 33.56 93.7766 33.8432C93.7009 34.1235 93.5888 34.3688 93.4402 34.5791C93.2916 34.7866 93.1065 34.9492 92.885 35.067C92.6664 35.1819 92.414 35.2394 92.1281 35.2394C91.8477 35.2394 91.6038 35.1861 91.3963 35.0796C91.1888 34.9702 91.0136 34.816 90.8706 34.617C90.7276 34.4179 90.6127 34.1866 90.5258 33.9231C90.4417 33.6567 90.3786 33.3665 90.3365 33.0525V32.7708C90.3786 32.4371 90.4417 32.1343 90.5258 31.8624C90.6127 31.5876 90.7276 31.3507 90.8706 31.1517C91.0136 30.9498 91.1874 30.7942 91.3921 30.6849C91.5996 30.5755 91.8421 30.5208 92.1196 30.5208C92.4084 30.5208 92.6622 30.5755 92.8808 30.6849C93.1023 30.7942 93.2888 30.9512 93.4402 31.1559C93.5916 31.3605 93.7051 31.6044 93.7808 31.8876C93.8565 32.1708 93.8944 32.4862 93.8944 32.8339ZM92.7799 32.9222V32.8339C92.7799 32.632 92.7617 32.4455 92.7252 32.2745C92.6888 32.1007 92.6327 31.9493 92.557 31.8203C92.4813 31.6886 92.3832 31.5862 92.2626 31.5133C92.1421 31.4404 91.9963 31.404 91.8253 31.404C91.6542 31.404 91.507 31.432 91.3837 31.4881C91.2603 31.5442 91.1594 31.6241 91.0809 31.7278C91.0024 31.8315 90.9407 31.9549 90.8959 32.0979C90.8538 32.2381 90.8258 32.3937 90.8117 32.5647V33.2628C90.837 33.4703 90.886 33.6567 90.9589 33.8221C91.0318 33.9876 91.1384 34.1193 91.2786 34.2175C91.4215 34.3156 91.6066 34.3646 91.8337 34.3646C92.0047 34.3646 92.1505 34.3268 92.271 34.2511C92.3916 34.1754 92.4897 34.0717 92.5654 33.9399C92.6411 33.8053 92.6958 33.6511 92.7294 33.4773C92.7631 33.3035 92.7799 33.1184 92.7799 32.9222ZM94.5686 32.9264V32.8381C94.5686 32.5044 94.6163 32.1974 94.7116 31.9171C94.807 31.6339 94.9457 31.3886 95.128 31.1811C95.3102 30.9736 95.5331 30.8124 95.7966 30.6975C96.0602 30.5797 96.3602 30.5208 96.6966 30.5208C97.0387 30.5208 97.3415 30.5797 97.605 30.6975C97.8713 30.8124 98.0956 30.9736 98.2779 31.1811C98.4601 31.3886 98.5989 31.6339 98.6942 31.9171C98.7895 32.1974 98.8372 32.5044 98.8372 32.8381V32.9264C98.8372 33.2572 98.7895 33.5642 98.6942 33.8474C98.5989 34.1277 98.4601 34.3731 98.2779 34.5833C98.0956 34.7908 97.8727 34.952 97.6092 35.067C97.3457 35.1819 97.0443 35.2394 96.705 35.2394C96.3686 35.2394 96.0672 35.1819 95.8008 35.067C95.5345 34.952 95.3102 34.7908 95.128 34.5833C94.9457 34.3731 94.807 34.1277 94.7116 33.8474C94.6163 33.5642 94.5686 33.2572 94.5686 32.9264ZM95.6789 32.8381V32.9264C95.6789 33.1254 95.6985 33.3119 95.7378 33.4857C95.777 33.6595 95.8373 33.8123 95.9186 33.9441C95.9999 34.0759 96.105 34.1796 96.234 34.2553C96.3658 34.3282 96.5228 34.3646 96.705 34.3646C96.8845 34.3646 97.0387 34.3282 97.1676 34.2553C97.2966 34.1796 97.4017 34.0759 97.483 33.9441C97.5671 33.8123 97.6288 33.6595 97.6681 33.4857C97.7073 33.3119 97.727 33.1254 97.727 32.9264V32.8381C97.727 32.6418 97.7073 32.4582 97.6681 32.2871C97.6288 32.1133 97.5671 31.9605 97.483 31.8287C97.4017 31.6942 97.2952 31.589 97.1634 31.5133C97.0345 31.4348 96.8789 31.3956 96.6966 31.3956C96.5172 31.3956 96.363 31.4348 96.234 31.5133C96.105 31.589 95.9999 31.6942 95.9186 31.8287C95.8373 31.9605 95.777 32.1133 95.7378 32.2871C95.6985 32.4582 95.6789 32.6418 95.6789 32.8381ZM100.828 33.5698L102.485 30.6049H103.599V35.1553H102.485V32.1862L100.828 35.1553H99.7134V30.6049H100.828V33.5698ZM106.877 30.6049V35.1553H105.762V30.6049H106.877ZM108.357 30.6049V31.4713H104.307V30.6049H108.357ZM110.81 35.2394C110.465 35.2394 110.156 35.1833 109.881 35.0712C109.606 34.959 109.372 34.8034 109.179 34.6044C108.988 34.4025 108.841 34.1684 108.737 33.902C108.636 33.6329 108.586 33.3441 108.586 33.0357V32.8675C108.586 32.517 108.636 32.1988 108.737 31.9129C108.838 31.6241 108.981 31.376 109.166 31.1685C109.351 30.961 109.572 30.8012 109.83 30.6891C110.088 30.5769 110.373 30.5208 110.684 30.5208C111.006 30.5208 111.291 30.5755 111.538 30.6849C111.784 30.7914 111.991 30.9428 112.156 31.139C112.321 31.3353 112.446 31.5708 112.53 31.8456C112.614 32.1175 112.656 32.4189 112.656 32.7497V33.2165H109.09V32.4512H111.563V32.367C111.557 32.1904 111.524 32.0292 111.462 31.8834C111.4 31.7348 111.305 31.6171 111.176 31.5302C111.047 31.4404 110.88 31.3956 110.676 31.3956C110.51 31.3956 110.366 31.432 110.242 31.5049C110.122 31.575 110.021 31.6759 109.94 31.8077C109.861 31.9367 109.802 32.0909 109.763 32.2703C109.724 32.4498 109.704 32.6488 109.704 32.8675V33.0357C109.704 33.2264 109.729 33.403 109.78 33.5656C109.833 33.7282 109.91 33.8698 110.011 33.9904C110.115 34.1081 110.238 34.2006 110.381 34.2679C110.527 34.3324 110.692 34.3646 110.878 34.3646C111.11 34.3646 111.32 34.3198 111.508 34.2301C111.699 34.1375 111.864 34.0016 112.005 33.8221L112.564 34.4025C112.469 34.5427 112.34 34.6773 112.177 34.8062C112.017 34.9352 111.824 35.0403 111.597 35.1216C111.37 35.2001 111.107 35.2394 110.81 35.2394ZM116.518 30.6049V31.4839H114.29V30.6049H116.518ZM117.355 30.6049V35.1553H116.245V30.6049H117.355ZM114.012 30.6049H115.11L114.988 32.8759C114.968 33.2095 114.933 33.5025 114.883 33.7548C114.832 34.0044 114.765 34.2189 114.681 34.3983C114.597 34.5749 114.494 34.7193 114.374 34.8315C114.253 34.9436 114.113 35.0263 113.953 35.0796C113.796 35.13 113.619 35.1553 113.423 35.1553H113.083L113.07 34.2595L113.23 34.2469C113.328 34.2385 113.412 34.2118 113.482 34.167C113.555 34.1221 113.617 34.0576 113.667 33.9735C113.72 33.8894 113.764 33.7815 113.798 33.6497C113.834 33.5151 113.862 33.3581 113.882 33.1787C113.904 32.9965 113.919 32.7862 113.928 32.5479L114.012 30.6049ZM119.224 32.0054H120.553C120.957 32.0054 121.3 32.0727 121.583 32.2072C121.869 32.339 122.087 32.524 122.235 32.7624C122.387 32.9979 122.462 33.2712 122.462 33.5824C122.462 33.8067 122.419 34.0156 122.332 34.209C122.248 34.3997 122.124 34.5665 121.962 34.7095C121.799 34.8497 121.599 34.959 121.36 35.0375C121.125 35.116 120.856 35.1553 120.553 35.1553H118.509V30.6049H119.624V34.2847H120.553C120.746 34.2847 120.901 34.2525 121.016 34.188C121.133 34.1207 121.217 34.0352 121.268 33.9315C121.321 33.8249 121.348 33.7114 121.348 33.5908C121.348 33.4675 121.321 33.3525 121.268 33.246C121.217 33.1366 121.133 33.0483 121.016 32.981C120.901 32.9138 120.746 32.8801 120.553 32.8801H119.224V32.0054ZM126.379 32.4722V33.3427H124.045V32.4722H126.379ZM124.394 30.6049V35.1553H123.28V30.6049H124.394ZM127.157 30.6049V35.1553H126.038V30.6049H127.157ZM128.029 32.9264V32.8381C128.029 32.5044 128.077 32.1974 128.172 31.9171C128.267 31.6339 128.406 31.3886 128.588 31.1811C128.77 30.9736 128.993 30.8124 129.257 30.6975C129.52 30.5797 129.82 30.5208 130.157 30.5208C130.499 30.5208 130.802 30.5797 131.065 30.6975C131.332 30.8124 131.556 30.9736 131.738 31.1811C131.92 31.3886 132.059 31.6339 132.154 31.9171C132.25 32.1974 132.297 32.5044 132.297 32.8381V32.9264C132.297 33.2572 132.25 33.5642 132.154 33.8474C132.059 34.1277 131.92 34.3731 131.738 34.5833C131.556 34.7908 131.333 34.952 131.069 35.067C130.806 35.1819 130.505 35.2394 130.165 35.2394C129.829 35.2394 129.527 35.1819 129.261 35.067C128.995 34.952 128.77 34.7908 128.588 34.5833C128.406 34.3731 128.267 34.1277 128.172 33.8474C128.077 33.5642 128.029 33.2572 128.029 32.9264ZM129.139 32.8381V32.9264C129.139 33.1254 129.159 33.3119 129.198 33.4857C129.237 33.6595 129.298 33.8123 129.379 33.9441C129.46 34.0759 129.565 34.1796 129.694 34.2553C129.826 34.3282 129.983 34.3646 130.165 34.3646C130.345 34.3646 130.499 34.3282 130.628 34.2553C130.757 34.1796 130.862 34.0759 130.943 33.9441C131.027 33.8123 131.089 33.6595 131.128 33.4857C131.168 33.3119 131.187 33.1254 131.187 32.9264V32.8381C131.187 32.6418 131.168 32.4582 131.128 32.2871C131.089 32.1133 131.027 31.9605 130.943 31.8287C130.862 31.6942 130.755 31.589 130.624 31.5133C130.495 31.4348 130.339 31.3956 130.157 31.3956C129.977 31.3956 129.823 31.4348 129.694 31.5133C129.565 31.589 129.46 31.6942 129.379 31.8287C129.298 31.9605 129.237 32.1133 129.198 32.2871C129.159 32.4582 129.139 32.6418 129.139 32.8381ZM134.288 33.5698L135.945 30.6049H137.059V35.1553H135.945V32.1862L134.288 35.1553H133.174V30.6049H134.288V33.5698ZM135.739 28.8176H136.546C136.546 29.0531 136.489 29.262 136.374 29.4442C136.259 29.6265 136.095 29.7695 135.882 29.8732C135.672 29.9741 135.422 30.0246 135.133 30.0246C134.699 30.0246 134.354 29.9124 134.099 29.6882C133.844 29.4639 133.716 29.1737 133.716 28.8176H134.524C134.524 28.9662 134.57 29.0994 134.662 29.2171C134.755 29.3349 134.912 29.3938 135.133 29.3938C135.355 29.3938 135.51 29.3349 135.6 29.2171C135.693 29.0994 135.739 28.9662 135.739 28.8176Z" fill="#171C0C"/>
<path d="M38.447 42.1806L40.104 39.2158H41.2185V43.7661H40.104V40.797L38.447 43.7661H37.3326V39.2158H38.447V42.1806ZM46.3604 42.9755C46.5174 42.9755 46.6576 42.9446 46.7809 42.883C46.9043 42.8213 47.0024 42.7344 47.0753 42.6222C47.151 42.5101 47.1917 42.3797 47.1973 42.2311H48.2444C48.2388 42.5395 48.1519 42.8157 47.9837 43.0596C47.8155 43.3035 47.5912 43.497 47.3108 43.6399C47.0332 43.7801 46.722 43.8502 46.3772 43.8502C46.0267 43.8502 45.7211 43.7913 45.4604 43.6736C45.1997 43.5558 44.9824 43.3918 44.8086 43.1816C44.6375 42.9713 44.5086 42.7274 44.4216 42.4498C44.3375 42.1722 44.2955 41.8751 44.2955 41.5582V41.4237C44.2955 41.1069 44.3375 40.8097 44.4216 40.5321C44.5086 40.2545 44.6375 40.0106 44.8086 39.8003C44.9824 39.5901 45.1997 39.4261 45.4604 39.3083C45.7211 39.1906 46.0253 39.1317 46.373 39.1317C46.7403 39.1317 47.0627 39.2032 47.3402 39.3462C47.6206 39.4891 47.8393 39.691 47.9963 39.9517C48.1561 40.2125 48.2388 40.5195 48.2444 40.8727H47.1973C47.1917 40.7101 47.1552 40.5643 47.0879 40.4354C47.0206 40.3064 46.9253 40.2027 46.8019 40.1242C46.6786 40.0457 46.5286 40.0064 46.352 40.0064C46.1641 40.0064 46.0071 40.0457 45.8809 40.1242C45.7576 40.2027 45.6609 40.3106 45.5908 40.448C45.5235 40.5826 45.4758 40.734 45.4478 40.9022C45.4225 41.0676 45.4099 41.2414 45.4099 41.4237V41.5582C45.4099 41.7433 45.4225 41.9199 45.4478 42.0881C45.4758 42.2563 45.5235 42.4077 45.5908 42.5423C45.6609 42.6741 45.7576 42.7792 45.8809 42.8577C46.0071 42.9362 46.1669 42.9755 46.3604 42.9755ZM51.0887 43.8502C50.7439 43.8502 50.4341 43.7941 50.1593 43.682C49.8846 43.5699 49.6505 43.4143 49.457 43.2152C49.2664 43.0133 49.1192 42.7792 49.0154 42.5129C48.9145 42.2437 48.864 41.955 48.864 41.6466V41.4783C48.864 41.1279 48.9145 40.8097 49.0154 40.5237C49.1164 40.2349 49.2594 39.9868 49.4444 39.7793C49.6294 39.5719 49.8509 39.412 50.1089 39.2999C50.3668 39.1878 50.6514 39.1317 50.9626 39.1317C51.285 39.1317 51.5696 39.1863 51.8163 39.2957C52.063 39.4022 52.2691 39.5536 52.4345 39.7499C52.5999 39.9461 52.7247 40.1816 52.8088 40.4564C52.8929 40.7284 52.9349 41.0298 52.9349 41.3606V41.8274H49.3687V41.062H51.8415V40.9779C51.8359 40.8013 51.8023 40.64 51.7406 40.4943C51.6789 40.3457 51.5836 40.2279 51.4546 40.141C51.3256 40.0513 51.1588 40.0064 50.9542 40.0064C50.7887 40.0064 50.6444 40.0429 50.521 40.1158C50.4004 40.1859 50.2995 40.2868 50.2182 40.4186C50.1397 40.5475 50.0808 40.7017 50.0416 40.8812C50.0023 41.0606 49.9827 41.2596 49.9827 41.4783V41.6466C49.9827 41.8372 50.0079 42.0138 50.0584 42.1764C50.1117 42.3391 50.1888 42.4806 50.2897 42.6012C50.3934 42.7189 50.5168 42.8115 50.6598 42.8788C50.8056 42.9432 50.971 42.9755 51.156 42.9755C51.3887 42.9755 51.599 42.9306 51.7868 42.8409C51.9775 42.7484 52.1429 42.6124 52.2831 42.433L52.8424 43.0133C52.7471 43.1535 52.6181 43.2881 52.4555 43.4171C52.2957 43.546 52.1023 43.6512 51.8752 43.7325C51.6481 43.811 51.3859 43.8502 51.0887 43.8502ZM56.797 39.2158V40.0947H54.5681V39.2158H56.797ZM57.6339 39.2158V43.7661H56.5236V39.2158H57.6339ZM54.2905 39.2158H55.3881L55.2662 41.4867C55.2466 41.8204 55.2115 42.1134 55.1611 42.3657C55.1106 42.6152 55.0433 42.8297 54.9592 43.0091C54.8751 43.1858 54.7727 43.3301 54.6522 43.4423C54.5316 43.5544 54.3915 43.6371 54.2316 43.6904C54.0746 43.7409 53.898 43.7661 53.7018 43.7661H53.3611L53.3485 42.8703L53.5083 42.8577C53.6064 42.8493 53.6905 42.8227 53.7606 42.7778C53.8335 42.733 53.8952 42.6685 53.9457 42.5844C53.9989 42.5003 54.0424 42.3923 54.076 42.2606C54.1125 42.126 54.1405 41.969 54.1602 41.7895C54.1826 41.6073 54.198 41.397 54.2064 41.1587L54.2905 39.2158ZM59.5025 40.6162H60.8314C61.2352 40.6162 61.5786 40.6835 61.8618 40.8181C62.1478 40.9498 62.365 41.1349 62.5136 41.3732C62.665 41.6087 62.7407 41.8821 62.7407 42.1933C62.7407 42.4176 62.6973 42.6264 62.6104 42.8199C62.5263 43.0105 62.4029 43.1773 62.2403 43.3203C62.0777 43.4605 61.8772 43.5699 61.6389 43.6484C61.4034 43.7269 61.1342 43.7661 60.8314 43.7661H58.7876V39.2158H59.902V42.8956H60.8314C61.0249 42.8956 61.1791 42.8633 61.294 42.7989C61.4118 42.7316 61.4959 42.6461 61.5464 42.5423C61.5996 42.4358 61.6263 42.3222 61.6263 42.2017C61.6263 42.0783 61.5996 41.9634 61.5464 41.8568C61.4959 41.7475 61.4118 41.6592 61.294 41.5919C61.1791 41.5246 61.0249 41.491 60.8314 41.491H59.5025V40.6162ZM64.3444 39.2158L65.1561 40.6625L65.9804 39.2158H67.1873L65.85 41.4447L67.242 43.7661H66.035L65.1645 42.2479L64.2898 43.7661H63.0828L64.4706 41.4447L63.1417 39.2158H64.3444ZM67.5672 41.5372V41.4489C67.5672 41.1153 67.6149 40.8083 67.7102 40.5279C67.8056 40.2447 67.9443 39.9994 68.1266 39.7919C68.3088 39.5845 68.5317 39.4233 68.7952 39.3083C69.0588 39.1906 69.3588 39.1317 69.6952 39.1317C70.0373 39.1317 70.3401 39.1906 70.6036 39.3083C70.8699 39.4233 71.0942 39.5845 71.2765 39.7919C71.4587 39.9994 71.5975 40.2447 71.6928 40.5279C71.7881 40.8083 71.8358 41.1153 71.8358 41.4489V41.5372C71.8358 41.868 71.7881 42.175 71.6928 42.4582C71.5975 42.7386 71.4587 42.9839 71.2765 43.1942C71.0942 43.4016 70.8713 43.5628 70.6078 43.6778C70.3443 43.7927 70.0429 43.8502 69.7036 43.8502C69.3672 43.8502 69.0658 43.7927 68.7994 43.6778C68.5331 43.5628 68.3088 43.4016 68.1266 43.1942C67.9443 42.9839 67.8056 42.7386 67.7102 42.4582C67.6149 42.175 67.5672 41.868 67.5672 41.5372ZM68.6775 41.4489V41.5372C68.6775 41.7363 68.6971 41.9227 68.7364 42.0965C68.7756 42.2704 68.8359 42.4232 68.9172 42.5549C68.9985 42.6867 69.1036 42.7904 69.2326 42.8661C69.3644 42.939 69.5214 42.9755 69.7036 42.9755C69.8831 42.9755 70.0373 42.939 70.1662 42.8661C70.2952 42.7904 70.4003 42.6867 70.4816 42.5549C70.5657 42.4232 70.6274 42.2704 70.6667 42.0965C70.7059 41.9227 70.7256 41.7363 70.7256 41.5372V41.4489C70.7256 41.2526 70.7059 41.069 70.6667 40.898C70.6274 40.7242 70.5657 40.5714 70.4816 40.4396C70.4003 40.305 70.2938 40.1999 70.162 40.1242C70.0331 40.0457 69.8774 40.0064 69.6952 40.0064C69.5158 40.0064 69.3616 40.0457 69.2326 40.1242C69.1036 40.1999 68.9985 40.305 68.9172 40.4396C68.8359 40.5714 68.7756 40.7242 68.7364 40.898C68.6971 41.069 68.6775 41.2526 68.6775 41.4489ZM74.6549 41.5961H73.7675V41.0662H74.4446C74.61 41.0662 74.7418 41.0438 74.8399 40.9989C74.9409 40.9541 75.0123 40.891 75.0544 40.8097C75.0993 40.7284 75.1217 40.6344 75.1217 40.5279C75.1217 40.4326 75.1007 40.3429 75.0586 40.2587C75.0166 40.1718 74.9465 40.1017 74.8483 40.0485C74.7502 39.9924 74.6142 39.9644 74.4404 39.9644C74.2974 39.9644 74.1698 39.9868 74.0577 40.0317C73.9456 40.0765 73.8572 40.1396 73.7928 40.2209C73.7283 40.3022 73.696 40.3989 73.696 40.5111H72.5816C72.5816 40.2251 72.6629 39.9798 72.8255 39.7751C72.9909 39.5705 73.211 39.4134 73.4858 39.3041C73.7605 39.192 74.0619 39.1359 74.3899 39.1359C74.6731 39.1359 74.9282 39.1653 75.1553 39.2242C75.3824 39.2803 75.5759 39.3644 75.7357 39.4765C75.8955 39.5887 76.0189 39.7275 76.1058 39.8929C76.1927 40.0555 76.2361 40.2447 76.2361 40.4606C76.2361 40.6148 76.1997 40.7606 76.1268 40.898C76.0539 41.0354 75.9488 41.1573 75.8114 41.2639C75.674 41.3676 75.5072 41.4489 75.3109 41.5078C75.1175 41.5666 74.8988 41.5961 74.6549 41.5961ZM73.7675 41.2933H74.6549C74.9268 41.2933 75.1651 41.3199 75.3698 41.3732C75.5773 41.4237 75.7511 41.4994 75.8913 41.6003C76.0315 41.7012 76.1366 41.826 76.2067 41.9746C76.2796 42.1204 76.316 42.2886 76.316 42.4792C76.316 42.6951 76.2684 42.8886 76.1731 43.0596C76.0805 43.2278 75.9488 43.3708 75.7777 43.4886C75.6067 43.6063 75.4035 43.696 75.1679 43.7577C74.9324 43.8194 74.6731 43.8502 74.3899 43.8502C74.0843 43.8502 73.7871 43.7998 73.4984 43.6988C73.2124 43.5979 72.9755 43.4423 72.7876 43.232C72.6026 43.0217 72.5101 42.7512 72.5101 42.4204H73.6245C73.6245 42.5269 73.6568 42.6264 73.7213 42.7189C73.7857 42.8115 73.8783 42.8858 73.9988 42.9418C74.1222 42.9951 74.2708 43.0217 74.4446 43.0217C74.6212 43.0217 74.7656 42.9937 74.8778 42.9376C74.9899 42.8816 75.0712 42.8073 75.1217 42.7147C75.175 42.6194 75.2016 42.5199 75.2016 42.4162C75.2016 42.2732 75.1736 42.1582 75.1175 42.0713C75.0642 41.9816 74.9801 41.9157 74.8652 41.8736C74.753 41.8316 74.6128 41.8106 74.4446 41.8106H73.7675V41.2933ZM81.5925 39.2158V43.7661H80.4781V39.2158H81.5925ZM83.0729 39.2158V40.0821H79.023V39.2158H83.0729ZM85.5261 43.8502C85.1812 43.8502 84.8714 43.7941 84.5967 43.682C84.3219 43.5699 84.0878 43.4143 83.8943 43.2152C83.7037 43.0133 83.5565 42.7792 83.4528 42.5129C83.3518 42.2437 83.3014 41.955 83.3014 41.6466V41.4783C83.3014 41.1279 83.3518 40.8097 83.4528 40.5237C83.5537 40.2349 83.6967 39.9868 83.8817 39.7793C84.0668 39.5719 84.2883 39.412 84.5462 39.2999C84.8041 39.1878 85.0887 39.1317 85.3999 39.1317C85.7223 39.1317 86.0069 39.1863 86.2536 39.2957C86.5003 39.4022 86.7064 39.5536 86.8718 39.7499C87.0372 39.9461 87.162 40.1816 87.2461 40.4564C87.3302 40.7284 87.3723 41.0298 87.3723 41.3606V41.8274H83.806V41.062H86.2789V40.9779C86.2732 40.8013 86.2396 40.64 86.1779 40.4943C86.1162 40.3457 86.0209 40.2279 85.8919 40.141C85.763 40.0513 85.5962 40.0064 85.3915 40.0064C85.2261 40.0064 85.0817 40.0429 84.9583 40.1158C84.8378 40.1859 84.7368 40.2868 84.6555 40.4186C84.577 40.5475 84.5182 40.7017 84.4789 40.8812C84.4397 41.0606 84.42 41.2596 84.42 41.4783V41.6466C84.42 41.8372 84.4453 42.0138 84.4957 42.1764C84.549 42.3391 84.6261 42.4806 84.727 42.6012C84.8308 42.7189 84.9541 42.8115 85.0971 42.8788C85.2429 42.9432 85.4083 42.9755 85.5934 42.9755C85.8261 42.9755 86.0363 42.9306 86.2242 42.8409C86.4148 42.7484 86.5802 42.6124 86.7204 42.433L87.2798 43.0133C87.1844 43.1535 87.0555 43.2881 86.8929 43.4171C86.733 43.546 86.5396 43.6512 86.3125 43.7325C86.0854 43.811 85.8233 43.8502 85.5261 43.8502ZM89.0475 39.2158L89.8591 40.6625L90.6834 39.2158H91.8904L90.553 41.4447L91.945 43.7661H90.7381L89.8675 42.2479L88.9928 43.7661H87.7858L89.1736 41.4447L87.8447 39.2158H89.0475ZM95.7019 41.083V41.9536H93.3679V41.083H95.7019ZM93.717 39.2158V43.7661H92.6025V39.2158H93.717ZM96.48 39.2158V43.7661H95.3613V39.2158H96.48ZM98.6724 42.1806L100.329 39.2158H101.444V43.7661H100.329V40.797L98.6724 43.7661H97.558V39.2158H98.6724V42.1806ZM103.699 39.2158V43.7661H102.589V39.2158H103.699ZM106.664 39.2158L104.658 42.0082H103.476L103.338 40.9905H104.158L105.264 39.2158H106.664ZM105.331 43.7661L104.086 41.8148L105.011 41.2344L106.807 43.7661H105.331ZM108.499 42.1806L110.156 39.2158H111.271V43.7661H110.156V40.797L108.499 43.7661H107.385V39.2158H108.499V42.1806Z" fill="#171C0C"/>
<path d="M51.217 16.5788L50.1465 19.3855L47.8328 25.3802H45.6917C43.8614 25.3802 41.5795 25.3802 41.5795 25.3802C41.5795 25.3802 42.8599 21.6032 43.0671 21.0835C45.001 16.0937 46.9349 11.0692 48.8688 6.04477C49.7666 3.68848 52.4257 1.78265 54.774 1.78265H79.5346L75.4942 12.282C74.5963 14.6383 71.9372 16.5788 69.5889 16.5788H51.217ZM69.3817 10.5841C69.5889 10.4801 69.8652 10.2722 69.9343 10.099L70.8322 7.77734H54.9812C54.774 7.84664 54.4977 8.0892 54.4287 8.2278L53.5308 10.5841H69.3817Z" fill="#171C0C"/>
<path d="M111.606 1.78265L108.222 10.5841H101.799L102.904 7.77734H98.656L91.8875 25.3802H85.4642L92.2328 7.77734H87.8688L86.811 10.5841H79.5347L80.9058 6.04477C81.8036 3.68848 84.4627 1.78265 86.811 1.78265H111.606Z" fill="#8BCC00"/>
<path d="M144.001 1.78265L140.616 10.5841H134.227L135.298 7.77734H119.447C119.24 7.84664 118.964 8.0892 118.895 8.2278L114.612 19.3855H130.463C130.671 19.2816 130.947 19.0737 131.016 18.9004L131.914 16.5788H138.337L136.576 21.0835C135.678 23.4397 133.019 25.3802 130.671 25.3802H110.158C108.327 25.3802 107.222 24.2367 107.222 22.6081C107.222 22.123 107.326 21.6032 107.533 21.0835L113.335 6.04477C114.232 3.68848 116.892 1.78265 119.24 1.78265H144.001Z" fill="#171C0C"/>
<path d="M29.3482 45L46.0794 0H31.7677H17.4559L0 45H29.3482Z" fill="#8BCC00"/>
<mask id="mask0_611_1269" style="mask-type:alpha" maskUnits="userSpaceOnUse" x="1" y="1" width="44" height="44">
<path d="M28.6986 44.2095L44.4339 1.88806H30.974H17.5141L1.09729 44.2095H28.6986Z" fill="#9AB83D"/>
</mask>
<g mask="url(#mask0_611_1269)">
<path d="M-25.1765 6.79038C-25.2997 6.56427 -25.4166 6.34494 -25.5274 6.1324C-25.5336 6.12099 -25.5367 6.10815 -25.5364 6.09518C-25.5361 6.0822 -25.5325 6.06952 -25.5258 6.05839C-25.5191 6.04726 -25.5097 6.03806 -25.4984 6.03171C-25.487 6.02535 -25.4743 6.02206 -25.4613 6.02216L-22.0709 6.01707C-21.9702 6.0165 -21.8704 6.03823 -21.7787 6.08073C-21.687 6.12322 -21.6056 6.18544 -21.5403 6.26297C-18.6337 9.72814 0.616051 34.2116 3.50576 37.7525C5.58234 40.2963 7.61317 42.952 9.63212 45.4652C10.0593 45.9977 10.5458 46.5262 11.0917 47.0508C11.1617 47.1175 11.1493 47.1401 11.0544 47.1186C7.36906 46.2504 3.93972 44.3069 0.879934 42.004C-0.445692 41.0085 -1.58315 39.9554 -2.4782 38.5597C-4.59491 35.2574 -23.062 10.6806 -25.1765 6.79038Z" fill="#171C0C"/>
<path d="M11.6743 27.4216C12.5694 28.0253 13.4644 28.663 14.3866 29.2531C15.6207 30.0457 16.8983 30.9088 18.2194 31.8427C21.8697 34.4237 25.5934 37.0449 29.3906 39.7063C31.8282 41.4174 34.2083 43.1743 36.6256 44.8786C36.7149 44.9419 36.716 45.0069 36.629 45.0736C36.3792 45.2636 36.1131 45.4269 35.8305 45.5637C34.6563 46.1324 33.2499 46.7135 31.6112 47.307C31.1959 47.458 31.0044 47.246 30.684 46.9356C29.3448 45.64 27.7124 44.1901 25.7866 42.5858C22.5777 39.9132 19.3145 37.249 16.0936 34.5441C13.1 32.0275 10.0645 29.5652 6.98717 27.1571C6.97825 27.1502 6.97113 27.1412 6.9664 27.1309C6.96168 27.1206 6.95949 27.1092 6.96004 27.0977C6.9623 27.0548 6.98152 27.0333 7.01768 27.0333C8.23821 27.0321 9.41353 27.057 10.5436 27.1079C10.9403 27.1265 11.3336 27.191 11.6743 27.4216Z" fill="#171C0C"/>
<path d="M32.6355 33.5705C35.9084 35.4405 39.175 37.3268 42.4353 39.2296C42.9507 39.5303 43.4005 39.8186 43.7847 40.0944C43.9836 40.2369 43.9881 40.385 43.7983 40.5387C42.7732 41.3686 41.6787 42.1266 40.5147 42.8129C40.4266 42.8649 40.3401 42.8626 40.2554 42.8061C36.1994 40.1108 32.0456 37.3737 27.7941 34.5948C26.8516 33.9798 25.9379 33.384 25.053 32.8074C22.7702 31.3207 20.4088 29.7962 17.9689 28.2337C17.4005 27.8697 16.8094 27.5006 16.1958 27.1263C16.1866 27.1207 16.179 27.1128 16.1736 27.1034C16.1683 27.094 16.1654 27.0834 16.1652 27.0725C16.1651 27.0617 16.1676 27.0511 16.1726 27.0415C16.1777 27.0319 16.1851 27.0238 16.1941 27.0178C16.2246 26.9975 16.2573 26.9879 16.2924 26.989C17.6881 27.0082 19.2177 27.0365 20.8812 27.0738C21.1818 27.0806 21.4847 27.1767 21.7898 27.3621C23.3336 28.3038 24.9496 29.2326 26.638 30.1483C28.6688 31.2489 30.6386 32.4292 32.6355 33.5705Z" fill="#171C0C"/>
<path d="M41.7081 31.8087C44.1729 33.0009 46.6411 34.0811 49.1669 35.297C49.1816 35.3041 49.1946 35.3143 49.205 35.3269C49.2155 35.3395 49.2231 35.3542 49.2274 35.3701C49.2318 35.386 49.2327 35.4026 49.2301 35.419C49.2276 35.4353 49.2216 35.451 49.2126 35.4649C48.6939 36.2653 47.8497 37.0183 47.1666 37.6373C47.1143 37.6845 47.049 37.7147 46.9793 37.7238C46.9096 37.7329 46.8389 37.7204 46.7767 37.6882C41.5092 34.9341 36.1785 32.1343 30.7844 29.2886C29.7086 28.7211 28.605 28.1259 27.4737 27.5029C27.3347 27.4272 27.2053 27.3418 27.0856 27.2469C27.0692 27.2339 27.0567 27.2166 27.0497 27.1969C27.0426 27.1773 27.0412 27.1561 27.0456 27.1358C27.0501 27.1155 27.0602 27.097 27.0748 27.0825C27.0893 27.0679 27.1078 27.0579 27.1279 27.0535C27.2941 27.0151 27.4624 26.9959 27.6331 26.9959C29.0118 27.0027 30.4024 27.0224 31.8049 27.0552C32.0085 27.0597 32.2078 27.1151 32.3847 27.2163C33.4436 27.8291 34.3901 28.3311 35.2241 28.7222C37.4606 29.7703 39.6219 30.7991 41.7081 31.8087Z" fill="#171C0C"/>
<path d="M41.0387 28.5203C40.0945 28.1066 39.1248 27.7301 38.2111 27.2875C37.8879 27.1314 37.9055 27.0433 38.2637 27.0229C39.022 26.9811 39.791 26.9822 40.5708 27.0263C41.0093 27.0501 41.4167 27.1337 41.7931 27.2773C44.7709 28.4056 47.9375 29.7187 51.2928 31.2167C51.5222 31.3185 51.7426 31.4321 51.9539 31.5576C51.9896 31.5793 52.0157 31.6138 52.0268 31.6539C52.0378 31.694 52.033 31.7366 52.0132 31.773L51.5284 32.6819C51.4346 32.8572 51.2962 32.9064 51.1131 32.8295C47.7228 31.4106 44.3646 29.9742 41.0387 28.5203Z" fill="#171C0C"/>
<path d="M14.1392 37.2762C16.1994 39.2072 18.2573 41.1207 20.313 43.0166C22.3461 44.8933 24.2882 46.7808 26.1393 48.679C26.1522 48.6923 26.1609 48.709 26.1644 48.7272C26.1679 48.7453 26.166 48.7641 26.159 48.7812C26.152 48.7983 26.1401 48.813 26.1249 48.8235C26.1096 48.834 26.0917 48.8397 26.0732 48.8401C23.4762 48.8752 20.9238 48.8469 18.4161 48.7553C18.1098 48.744 17.8437 48.5914 17.6177 48.2975C17.2786 47.8577 16.9317 47.4275 16.5768 47.0069C13.5334 43.3948 10.3872 39.8392 7.13809 36.3401C4.25629 33.2367 1.42027 30.1062 -1.55476 27.1554C-1.64291 27.0672 -1.62483 27.0237 -1.50051 27.0248C-0.212182 27.0429 1.04789 27.0486 2.27972 27.0418C2.51139 27.0407 2.71764 27.1164 2.89846 27.269C6.6753 30.455 10.4222 33.7907 14.1392 37.2762Z" fill="#171C0C"/>
</g>
<mask id="mask1_611_1269" style="mask-type:alpha" maskUnits="userSpaceOnUse" x="0" y="0" width="47" height="45">
<path d="M30.2388 45L46.9701 0H32.6583H18.3465L0.890625 45H30.2388Z" fill="#8BCC00"/>
</mask>
<g mask="url(#mask1_611_1269)">
<path fill-rule="evenodd" clip-rule="evenodd" d="M17.0638 4.48191C17.0966 4.49339 18.3576 4.5341 19.866 4.57231C21.3743 4.61058 22.6295 4.65488 22.6551 4.67073C22.6807 4.68663 22.5853 4.82942 22.4431 4.98804C22.1603 5.30344 22.0428 5.60611 22.0428 6.01891C22.0428 6.26992 22.3453 7.34689 23.5916 11.5325C23.8259 12.3193 24.0407 13.0064 24.0689 13.0592C24.0981 13.1139 24.5513 13.3059 25.1237 13.506C26.5922 14.0193 26.7533 14.1048 26.9234 14.4623C27.051 14.7304 28.0463 17.3179 28.1534 17.6601L28.1985 17.8042L27.461 17.7645C27.0555 17.7426 26.7146 17.698 26.7037 17.6652C26.675 17.5792 23.4738 17.5843 23.4738 17.6704C23.4738 17.869 24.2206 19.8395 24.3305 19.931C24.4584 20.0374 24.5919 19.6541 24.6395 19.0443C24.6935 18.3519 24.7444 18.2937 25.3399 18.2426C25.5762 18.2222 27.2983 18.2023 29.1669 18.1981L32.5642 18.1905L33.6608 20.0357C34.2639 21.0505 35.0226 22.3145 35.3467 22.8445C35.6709 23.3745 35.9361 23.8595 35.9361 23.9224C35.9361 23.9852 35.8962 24.0937 35.8474 24.1636C35.7691 24.2757 35.6806 24.2949 35.0872 24.3279C34.7178 24.3486 33.4496 24.4244 32.269 24.4964C30.0487 24.6318 26.1225 24.6764 25.1285 24.5774C24.6931 24.534 24.6664 24.5231 24.6664 24.3877C24.6664 24.2875 24.5398 24.1231 24.249 23.8456C23.9959 23.6041 23.771 23.3231 23.6778 23.132C23.5932 22.9586 23.4877 22.8028 23.4434 22.7857C23.3991 22.7687 22.8766 22.7498 22.2824 22.7437C21.2654 22.7334 21.1941 22.74 21.0707 22.8559C20.9226 22.9951 20.3304 23.2848 20.1943 23.2847C20.1451 23.2846 20.0512 23.1723 19.9856 23.0352C19.8437 22.7384 19.6715 22.5086 19.5908 22.5086C19.5588 22.5086 19.4826 22.6205 19.4216 22.7571L19.3107 23.0056L19.5948 23.4597C19.9194 23.9783 19.955 23.9884 20.541 23.7286C20.999 23.5255 21.0309 23.5474 20.7285 23.8572C20.473 24.1188 19.9204 24.4335 19.5887 24.5063C19.446 24.5376 19.4116 24.508 19.2438 24.2098C19.0206 23.8132 18.9244 23.7637 18.7309 23.946L18.5853 24.0832L18.7339 24.3498C18.8156 24.4964 18.8825 24.6306 18.8825 24.6479C18.8825 24.6907 15.6163 24.6118 15.4043 24.5639C15.2793 24.5356 15.2427 24.4978 15.2634 24.4182C15.2802 24.3538 15.2318 24.2551 15.1426 24.172C14.9058 23.9515 14.4943 23.3455 14.3338 22.9809C14.0824 22.4103 13.9774 21.8769 13.9757 21.1633C13.9737 20.3534 14.0772 19.9164 14.446 19.1766C15.322 17.4193 17.4197 16.8058 19.434 17.7175C19.6656 17.8223 19.8365 17.871 19.8365 17.8321C19.8365 17.795 19.8778 17.7189 19.9282 17.663C20.0125 17.5697 19.9955 17.5456 19.7215 17.3692C18.905 16.8439 17.6936 16.6453 16.629 16.8623C15.9101 17.0089 15.3525 17.3121 14.8278 17.8418C14.1408 18.5354 13.7848 19.2478 13.6304 20.2379C13.5262 20.9065 13.6328 22.0876 13.848 22.6477C13.8874 22.7501 13.8457 22.7559 13.1717 22.7424C12.4615 22.7281 12.4514 22.7298 12.2543 22.8966C12.0358 23.0816 11.6344 23.2826 11.4794 23.2846C11.4251 23.2853 11.3138 23.1716 11.2322 23.0318C11.1504 22.892 11.0267 22.7259 10.9572 22.6628C10.8326 22.5498 10.8296 22.5498 10.7461 22.663C10.6995 22.726 10.6493 22.8225 10.6347 22.8773C10.6004 23.0051 10.7895 23.3781 11.0406 23.678L11.237 23.9125L11.6312 23.784L12.0255 23.6554L11.9012 23.8145C11.7444 24.0152 11.2779 24.4045 11.0571 24.519C10.8827 24.6094 10.4465 24.5763 10.5076 24.4773C10.5249 24.4491 10.4854 24.3243 10.4199 24.1998C10.2019 23.786 10.2118 23.7909 9.97466 23.9807C9.72613 24.1795 9.70949 24.2714 9.8876 24.4614C10.0069 24.5887 10.0085 24.6011 9.90978 24.639C9.77013 24.6928 6.97889 24.6169 6.74819 24.5531C6.62219 24.5182 6.5631 24.4606 6.54843 24.3582C6.53693 24.2782 6.40998 24.0866 6.26633 23.9325C5.91292 23.5533 5.52581 22.9415 5.52581 22.7621C5.52581 22.6815 5.48103 22.4503 5.42629 22.2482C5.2904 21.7465 5.29058 20.6375 5.42671 20.117C5.81096 18.6475 6.77746 17.6793 8.14944 17.3894C8.97619 17.2147 10.0491 17.3862 10.8205 17.8162C11.0703 17.9555 11.0812 17.9565 11.2637 17.8542C11.3666 17.7966 11.4593 17.7236 11.4698 17.6921C11.5025 17.5938 10.7519 17.1271 10.3507 16.9963C9.87919 16.8425 8.59743 16.7764 8.17192 16.8839C8.02041 16.9221 7.88696 16.9439 7.87546 16.9323C7.86395 16.9208 8.01272 16.5362 8.20615 16.0776L8.55778 15.2439L9.1884 15.227L9.81903 15.21V14.168V13.1259L9.51004 13.034C9.34016 12.9833 9.17743 12.942 9.14845 12.942C9.09717 12.942 8.74441 13.6613 8.47704 14.311L8.34425 14.6337L7.99549 13.9822C7.46289 12.9871 7.25652 12.4679 7.2146 12.0179C7.17274 11.5683 7.07024 11.4472 6.73185 11.4472C6.55905 11.4472 6.52136 11.476 6.44045 11.6703C6.26425 12.0931 6.43281 12.7806 6.9867 13.8986C7.50427 14.9433 7.6144 15.4198 7.46951 15.987C7.31674 16.585 7.15473 16.8244 6.39429 17.5758C5.7902 18.1728 5.62724 18.3736 5.42397 18.7717C5.12923 19.3487 5.00419 19.7518 4.92357 20.3846C4.89012 20.6469 4.85333 20.8711 4.8417 20.8827C4.78094 20.9437 4.46509 20.6459 4.27076 20.3445C3.83983 19.6758 3.84788 19.7869 3.86803 14.7955L3.88604 10.341L4.06993 9.95196C4.40045 9.25263 4.8448 8.93956 5.51025 8.93723C6.18715 8.93484 6.8077 9.27529 7.66974 10.122L8.17926 10.6225L8.97905 10.8255C9.41893 10.9373 9.80514 11.0286 9.83734 11.0286C9.89607 11.0286 9.84246 4.97375 9.78146 4.71707C9.75242 4.59491 9.77306 4.59342 12.5732 4.52167C15.2826 4.45219 16.9374 4.43754 17.0638 4.48191ZM16.8551 5.62704C16.62 5.76629 16.4377 6.11883 16.4377 6.43447C16.4377 6.58389 16.6566 7.46898 16.9458 8.48915C17.2252 9.47476 17.5517 10.6579 17.6713 11.1183C17.7909 11.5787 17.8927 11.9616 17.8975 11.9691C17.9023 11.9767 18.3606 12.0785 18.9161 12.1954C19.4715 12.3123 20.5297 12.5666 21.2676 12.7606C22.8602 13.1792 22.9968 13.2087 22.9968 13.1331C22.9968 13.0705 21.9458 9.38166 21.4334 7.64603C21.0837 6.46137 20.899 6.12086 20.4296 5.79464C20.1028 5.56749 19.9149 5.54405 18.355 5.53526C17.2116 5.52886 16.9988 5.5419 16.8551 5.62704ZM11.2938 5.64641C11.2031 5.6909 11.0487 5.84845 10.9509 5.99655L10.7731 6.26579V8.34469C10.7731 9.48815 10.7942 10.4368 10.8201 10.4528C10.8461 10.4689 11.7114 10.7383 12.7431 11.0516C16.2451 12.1149 19.8258 13.3221 20.5223 13.6743C20.9571 13.8943 21.1991 14.1318 21.3795 14.5157C21.475 14.7189 21.88 15.8269 22.2796 16.9779C22.9373 18.8728 23.8072 21.2398 23.8721 21.3111C23.9088 21.3514 23.9841 21.2155 24.0708 20.9518C24.1393 20.7438 24.1291 20.6706 23.957 20.1362C23.8531 19.8132 23.596 19.0781 23.3857 18.5026C23.1753 17.9271 22.8645 17.0526 22.6948 16.5594C22.5251 16.0661 22.2419 15.3014 22.0654 14.8601C21.889 14.4188 21.7446 14.0488 21.7446 14.0379C21.7446 13.9505 21.9722 14.0551 22.133 14.2164C22.291 14.3748 22.3825 14.5774 22.589 15.2259L22.8472 16.0371L23.1991 16.074C23.7162 16.1283 26.5149 16.119 26.5149 16.0631C26.5149 15.9451 24.6189 14.808 23.5051 14.258C22.9361 13.9771 21.3225 13.4008 18.2226 12.3714L16.8173 11.9048L16.6777 11.392C16.6009 11.1099 16.3972 10.4352 16.225 9.89258C16.0529 9.34997 15.8358 8.66386 15.7426 8.36789L15.5731 7.82977L15.5433 9.59362L15.5135 11.3575L15.3793 11.3532C15.3056 11.3508 15.1641 11.3441 15.065 11.3383L14.8848 11.3276L14.9081 8.89107C14.9209 7.55096 14.9363 6.40332 14.9423 6.34071C14.9557 6.1996 14.6757 5.84342 14.4048 5.65705C14.2035 5.51852 14.189 5.51744 12.8302 5.54136C11.8405 5.55882 11.4129 5.58805 11.2938 5.64641ZM10.7731 14.2445V15.1284L11.0885 15.4408L11.404 15.7532L14.6215 15.7378C16.5408 15.7285 17.8345 15.7001 17.828 15.6672C17.8126 15.5906 17.5076 15.4793 15.3644 14.7682C12.8162 13.9227 11.0594 13.3768 10.8476 13.3647C10.7911 13.3615 10.7731 13.5749 10.7731 14.2445ZM27.787 14.5115C27.9209 14.635 28.4606 15.9822 28.9248 17.3516L29.0718 17.7851H28.9063C28.7447 17.7851 28.7262 17.747 28.1292 16.1857C27.7929 15.306 27.5036 14.5391 27.4864 14.4816C27.4413 14.3313 27.6098 14.3481 27.787 14.5115ZM18.0477 17.8675C18.0477 17.9642 18.7517 18.3932 19.0912 18.5034C19.5958 18.6672 20.1146 18.9214 20.3505 19.1204L20.5243 19.2671L20.683 18.9823L20.8416 18.6974L20.6385 18.3951C20.375 18.0026 20.3369 17.9849 20.2251 18.2017C20.1153 18.4146 19.9261 18.4405 19.7104 18.2719C19.5132 18.1178 19.1849 17.9527 18.9719 17.9008C18.7843 17.855 18.0477 17.8285 18.0477 17.8675ZM9.67163 18.0858C9.84545 18.2677 10.4824 18.6222 10.6355 18.6222C10.7423 18.6222 11.2898 18.8978 11.5184 19.0666C11.8302 19.2968 11.8343 19.2966 11.9933 19.0441C12.1877 18.7354 12.1839 18.6668 11.9546 18.3467L11.7647 18.0815L11.5986 18.264L11.4325 18.4463L11.0183 18.2287C10.5328 17.9737 10.3324 17.9191 9.8526 17.9108L9.49859 17.9047L9.67163 18.0858ZM25.4565 18.6005C25.3827 18.6201 25.3223 18.6801 25.3224 18.7338C25.3224 18.7875 25.5803 19.2619 25.8955 19.7881C26.2108 20.3143 26.8318 21.3771 27.2756 22.1499C28.199 23.7579 28.4222 24.1193 28.564 24.2365C28.6754 24.3286 28.4639 24.3347 32.5075 24.1214C35.5838 23.9591 35.5366 23.9641 35.5054 23.8037C35.4916 23.7327 35.0649 22.9885 34.5573 22.1499C34.0496 21.3113 33.4259 20.2752 33.1712 19.8476C32.9165 19.4198 32.6127 18.9379 32.4959 18.7766L32.2836 18.4833L28.9371 18.5241C27.0965 18.5465 25.5303 18.5809 25.4565 18.6005ZM32.3584 19.1155C32.4361 19.2552 32.9681 20.1499 33.5407 21.1035C34.1133 22.0572 35.0451 23.6203 35.0451 23.6203C35.0451 23.6203 34.66 23.6329 33.9814 23.6738C32.8915 23.7395 28.8197 23.8653 28.7341 23.836C28.6514 23.8077 28.3585 23.3198 26.8794 20.7478C26.3509 19.8287 25.9386 19.0569 25.9633 19.0326C26.0108 18.9858 29.9391 18.8613 31.3685 18.8613H32.2172L32.3584 19.1155ZM16.1544 19.1151C15.8023 19.2793 15.3416 19.8038 15.1823 20.2218C14.8461 21.1037 15.0559 22.3149 15.6651 23.0107C16.445 23.9013 17.8623 23.6002 18.4505 22.419C18.8846 21.5473 18.7295 20.2686 18.1028 19.5529C17.594 18.9718 16.8299 18.8001 16.1544 19.1151ZM7.45997 19.1454C6.51701 19.634 6.11965 20.9654 6.54587 22.2079C6.7359 22.762 7.25944 23.2944 7.75447 23.437C8.53267 23.6612 9.3745 23.2358 9.79327 22.4064C9.95993 22.0763 9.9681 22.024 9.9681 21.2829C9.9681 20.5662 9.95576 20.4792 9.80949 20.1663C9.32561 19.1312 8.32565 18.6968 7.45997 19.1454ZM21.002 19.4443C20.9827 19.5018 20.8899 19.6419 20.7957 19.7556L20.6245 19.9622L20.2499 19.71C19.841 19.4346 19.4479 19.2861 19.3619 19.3745C19.2039 19.5369 19.662 20.0009 20.7147 20.7448C20.7793 20.7905 20.8615 20.734 21.0624 20.5056C21.2071 20.3412 21.3401 20.1627 21.358 20.1091C21.3954 19.9965 21.1653 19.3397 21.0885 19.3397C21.0602 19.3397 21.0213 19.3868 21.002 19.4443ZM11.6713 19.7253C11.3196 19.472 11.0121 19.3397 10.775 19.3397C10.5607 19.3397 10.5609 19.3388 10.7139 19.6395C10.7931 19.7953 10.9491 19.9485 11.176 20.0935C11.3643 20.2138 11.6493 20.4217 11.8091 20.5553L12.0998 20.7983L12.2861 20.5871C12.7298 20.0841 12.7316 20.0768 12.5427 19.5274L12.4736 19.3265L12.2149 19.6285L11.9562 19.9306L11.6713 19.7253ZM17.2779 19.5412C17.6292 19.6672 17.9011 19.9178 18.1146 20.3125C18.307 20.6684 18.316 20.713 18.316 21.3128C18.316 21.9981 18.2704 22.1388 17.9181 22.5412C17.6388 22.8602 17.3087 23.011 16.883 23.0142C16.5647 23.0166 16.4899 22.9928 16.2323 22.8072C16.0316 22.6627 15.8748 22.477 15.7273 22.2093C15.5219 21.8362 15.5135 21.7978 15.5142 21.2231C15.5148 20.7135 15.536 20.5823 15.658 20.3347C15.8465 19.9518 16.1462 19.668 16.4834 19.5528C16.8101 19.4411 16.9913 19.4385 17.2779 19.5412ZM8.79033 19.6449C9.75696 20.1247 9.98444 21.8006 9.19097 22.5964C8.7812 23.0072 8.12416 23.1289 7.70802 22.871C6.99892 22.4315 6.67085 21.4792 6.92862 20.6088C7.19003 19.726 8.05332 19.279 8.79033 19.6449ZM7.87712 20.36C7.628 20.6022 7.5323 20.8752 7.53265 21.3427C7.53343 22.3798 8.50417 22.8874 9.0478 22.135C9.27778 21.8165 9.28065 21.7036 9.05543 21.8332C8.59933 22.0957 8.14235 21.4522 8.44288 20.9706C8.59415 20.7282 8.82789 20.6614 9.05925 20.7946C9.22776 20.8916 9.22978 20.891 9.18816 20.7591C8.98936 20.1287 8.32368 19.9261 7.87712 20.36ZM20.4849 21.4823C20.2117 21.1847 19.8395 20.8943 19.7311 20.8943C19.6609 20.8943 19.6485 20.9511 19.6725 21.1643C19.7008 21.4161 19.8975 21.7131 20.4994 22.4126C20.574 22.4994 20.8658 22.3449 21.1582 22.064C21.4432 21.7902 21.5042 21.617 21.5055 21.0778L21.5061 20.8128L21.0961 21.2571L20.6862 21.7015L20.4849 21.4823ZM12.4033 21.253C12.2211 21.4503 12.0437 21.6118 12.009 21.6118C11.9743 21.6118 11.776 21.4481 11.5682 21.2481C11.3604 21.048 11.1569 20.8954 11.1159 20.9089C11.0748 20.9225 11.0334 21.0547 11.0236 21.2039C11.0069 21.4577 11.0283 21.5016 11.3721 21.9168C11.5736 22.1601 11.7611 22.3831 11.7888 22.4124C11.8491 22.4761 12.6518 21.8943 12.7087 21.7458C12.7683 21.5898 12.8234 20.8943 12.7761 20.8943C12.7532 20.8943 12.5855 21.0557 12.4033 21.253Z" fill="#11151A"/>
</g>
</svg>
