<svg width="343" height="79" viewBox="0 0 343 79" fill="none" xmlns="http://www.w3.org/2000/svg">
<mask id="mask0_611_1416" style="mask-type:luminance" maskUnits="userSpaceOnUse" x="2" y="2" width="73" height="73">
<path d="M11.9203 13.92C-1.83969 28.48 -1.11969 51.44 13.4403 65.12C20.2403 71.52 28.8803 74.8 37.5203 74.96H39.0403C48.4003 74.8 57.7603 70.96 64.7203 63.6C78.4003 49.04 77.7603 26.16 63.2003 12.4001C56.1603 5.84006 47.2803 2.56006 38.4003 2.56006C28.7203 2.56006 19.0403 6.40005 11.9203 13.92Z" fill="white"/>
</mask>
<g mask="url(#mask0_611_1416)">
<path d="M-37.9997 40.96L35.9203 -37.5199L114.64 36.64L40.7203 115.12L-37.9997 40.96Z" fill="url(#paint0_radial_611_1416)"/>
</g>
<mask id="mask1_611_1416" style="mask-type:luminance" maskUnits="userSpaceOnUse" x="0" y="0" width="79" height="79">
<path d="M36.8 73.5199C18.8 72.3199 4.56 57.3599 4.56 39.12C4.56 20.08 20.08 4.64 39.12 4.64C58.16 4.64 73.68 20.08 73.68 39.12C73.68 58.1599 58.16 73.5999 39.12 73.5999C38.32 73.5999 37.52 73.5199 36.8 73.5199ZM0 37.28V41.12C0.96 61.8399 18.16 78.3999 39.12 78.3999C60.72 78.3999 78.32 60.7999 78.32 39.2C78.32 18.48 62.24 1.52 41.84 0.0800048C40.96 4.88162e-06 40 0 39.12 0C18.16 0 0.96 16.56 0 37.28Z" fill="white"/>
</mask>
<g mask="url(#mask1_611_1416)">
<path d="M-38.56 32.4L45.92 -38.5599L116.88 46L32.32 116.96L-38.56 32.4Z" fill="url(#paint1_radial_611_1416)"/>
</g>
<mask id="mask2_611_1416" style="mask-type:luminance" maskUnits="userSpaceOnUse" x="4" y="4" width="70" height="70">
<path d="M15.1999 62.64C9.11994 56.5601 5.35994 48.2401 5.35994 38.9601C5.35994 29.6801 9.11994 21.3601 15.1999 15.2801C21.2799 9.20011 29.7599 5.5201 39.0399 5.5201C48.3199 5.5201 56.7999 9.28011 62.8799 15.2801C68.9599 21.3601 72.7199 29.6801 72.7199 38.9601C72.7199 48.1601 68.9599 56.5601 62.8799 62.64C56.7999 68.72 48.3199 72.4 39.0399 72.4C29.6799 72.4 21.2799 68.64 15.1999 62.64ZM3.99994 38.9601C3.99994 58.1601 19.6799 73.68 38.9599 73.68C58.3199 73.68 73.9199 58.1601 73.9199 38.9601C73.9199 19.7601 58.2399 4.24011 38.9599 4.24011C19.6799 4.24011 3.99994 19.7601 3.99994 38.9601Z" fill="white"/>
</mask>
<g mask="url(#mask2_611_1416)">
<path d="M6.15991 85.68L-7.84009 6.32009L71.9199 -7.75989L85.9199 71.6L6.15991 85.68Z" fill="url(#paint2_linear_611_1416)"/>
</g>
<mask id="mask3_611_1416" style="mask-type:luminance" maskUnits="userSpaceOnUse" x="3" y="3" width="72" height="71">
<path d="M14.3196 63.28C7.99963 57.04 4.07963 48.4 4.07963 38.8001C4.07963 29.2801 7.99963 20.5601 14.3196 14.3201C20.6396 8.08008 29.3596 4.16008 39.0396 4.16008C48.7196 4.16008 57.4396 8.00008 63.7596 14.3201C70.0796 20.5601 73.9996 29.2001 73.9996 38.8001C73.9996 48.32 70.0796 57.04 63.7596 63.28C57.4396 69.52 48.7196 73.44 39.0396 73.44C29.3596 73.44 20.6396 69.6 14.3196 63.28ZM13.9996 14.0801C7.59963 20.4001 3.67963 29.2001 3.67963 38.8801C3.67963 48.56 7.59963 57.28 13.9996 63.68C20.3996 70 29.1996 73.92 38.9596 73.92C48.7196 73.92 57.5196 70 63.9196 63.68C70.3196 57.36 74.2396 48.56 74.2396 38.8801C74.2396 29.2001 70.3196 20.4801 63.9196 14.0801C57.5196 7.68009 48.7196 3.84009 38.9596 3.84009C29.2796 3.84009 20.3996 7.68009 13.9996 14.0801Z" fill="white"/>
</mask>
<g mask="url(#mask3_611_1416)">
<path d="M-30.8803 32.7201L45.1197 -30.9598L108.88 44.8801L32.8797 108.64L-30.8803 32.7201Z" fill="url(#paint3_radial_611_1416)"/>
</g>
<path d="M50.7997 42.24C53.1197 37.36 55.1197 33.04 57.4397 28.16C57.5197 28 57.9997 27.92 58.1597 27.92C61.6797 27.92 65.6797 27.92 69.1997 27.92C69.5197 27.92 69.7597 28.2401 69.5997 28.4801C64.5597 38.96 59.3597 49.84 54.3197 60.32C54.2397 60.48 54.0797 60.56 53.9197 60.56H46.7997C46.5597 60.56 46.4797 60.48 46.3997 60.32C43.9997 55.2 42.1597 50.08 39.7597 44.96C39.5997 44.64 39.2797 44.88 39.1197 45.2C38.2397 47.04 37.2797 49.04 36.3197 50.96C36.0797 51.36 35.0397 51.52 34.7197 50.8C33.1197 47.28 32.3997 43.44 30.5597 40C30.4797 39.84 30.4797 39.76 30.5597 39.6C32.3197 35.76 33.7597 32 35.5997 28.16C35.6797 28 35.7597 27.92 35.9997 27.92C38.3197 27.92 40.7197 27.92 42.9597 27.92C43.1997 27.92 43.2797 28 43.3597 28.16C45.6797 33.04 47.7597 37.36 50.0797 42.24C50.2397 42.64 50.6397 42.64 50.7997 42.24Z" fill="#2A302F"/>
<path d="M34.2396 55.04C29.9996 46.24 25.5996 37.04 21.4396 28.16C21.3596 28 21.1996 27.92 21.0396 27.92C17.5196 27.92 13.5196 27.92 9.99959 27.92C9.59959 27.92 9.19958 28.3201 9.27958 28.6401C14.3196 39.04 18.8796 49.84 23.8396 60.24C23.9196 60.4 23.9996 60.64 24.2396 60.64C26.5596 60.64 29.4396 60.64 31.5196 60.64C31.6796 60.64 31.8396 60.56 31.9196 60.4C32.9596 58.16 33.8396 56.4 34.3196 55.44C34.3196 55.28 34.3196 55.2 34.2396 55.04Z" fill="#2A302F"/>
<path d="M49.9197 42.72C52.2397 37.92 54.4797 33.04 56.7997 28.24C56.8797 28.08 56.9597 28 57.1997 28H67.9997C68.3197 28 68.5597 28.32 68.3997 28.64C63.4397 39.12 58.3997 49.52 53.4397 60C53.3597 60.16 53.2797 60.24 53.0397 60.24H46.5597C46.3197 60.24 46.2397 60.16 46.1597 60C43.7597 54.96 41.3597 49.92 38.9597 44.8C38.7997 44.48 38.3197 44.48 38.1597 44.8C37.2797 46.64 36.2397 48.8 35.2797 50.8C35.1197 51.12 34.7197 51.12 34.5597 50.8C32.7997 47.12 31.0397 43.52 29.2797 39.92C29.1997 39.76 29.1997 39.68 29.2797 39.52C31.0397 35.68 32.7997 32.08 34.6397 28.24C34.7197 28.08 34.7997 28 35.0397 28H41.6797C41.9197 28 41.9997 28.08 42.0797 28.24C44.3997 33.12 46.7197 37.92 49.0397 42.72C49.2797 43.04 49.7597 43.04 49.9197 42.72Z" fill="#D1050C"/>
<path d="M33.1196 54.96C28.8796 46.08 24.5596 37.04 20.2396 28.16C20.1596 28 19.9996 27.92 19.8396 27.92C16.2396 27.92 12.7196 27.92 9.11963 27.92C8.79963 27.92 8.55963 28.24 8.71963 28.56C13.7596 39.04 18.6396 49.44 23.6796 59.92C23.7596 60.08 23.9196 60.16 24.0796 60.16C26.2396 60.16 28.3996 60.16 30.5596 60.16C30.7196 60.16 30.8796 60.08 30.9596 59.92C31.7596 58.32 32.3196 56.96 33.1196 55.36C33.1996 55.2 33.1996 55.12 33.1196 54.96Z" fill="#525D5A"/>
<path d="M98.08 21.3593H109.76C110 21.3593 110.24 21.5993 110.24 21.8393V36.3192C110.24 36.7992 110.8 36.9592 111.12 36.6392C115.6 31.5992 120.08 26.5592 124.56 21.5193C124.64 21.4393 124.8 21.3593 124.96 21.3593C128.96 21.3593 132.96 21.3593 136.96 21.3593C137.36 21.3593 137.6 21.8393 137.36 22.1593C132.8 27.3592 128.16 32.5593 123.6 37.7592C123.44 37.9992 123.44 38.1592 123.6 38.3992C128.4 44.3992 132.56 50.4792 137.36 56.4792C137.6 56.7992 137.36 57.2792 136.96 57.2792C132.32 57.2792 128.32 57.2792 123.68 57.2792C123.52 57.2792 123.36 57.1992 123.28 57.1192C119.2 51.9192 115.2 46.7192 111.12 41.5192C110.8 41.1192 110.24 41.3592 110.24 41.8392V56.8792C110.24 57.1192 110 57.3592 109.76 57.3592H98.08C97.84 57.3592 97.6 57.1192 97.6 56.8792V21.9993C97.6 21.5193 97.84 21.3593 98.08 21.3593Z" fill="#525D5A"/>
<path d="M168.08 41.1192C169.76 40.4792 173.84 38.1592 173.52 31.6792C173.2 23.7593 165.76 21.3593 158.48 21.3593H139.92C139.68 21.3593 139.44 21.5993 139.44 21.8393V28.8793C139.44 29.1193 139.68 29.3592 139.92 29.3592H158.32C158.32 29.3592 161.68 29.3593 161.76 32.4792C161.84 35.9992 158.48 35.7593 158.48 35.7593H139.92C139.68 35.7593 139.44 35.9992 139.44 36.2392V56.7192C139.44 56.9592 139.68 57.1992 139.92 57.1992H151.12C151.36 57.1992 151.6 56.9592 151.6 56.7192V43.7592C151.6 43.5192 151.84 43.2792 152.08 43.2792H154.8C154.96 43.2792 155.12 43.3592 155.2 43.5192C158.48 47.9992 161.84 52.5592 165.12 57.0392C165.2 57.1992 165.36 57.1992 165.52 57.1992H178.24C178.64 57.1992 178.88 56.7192 178.64 56.3992C175.04 51.5192 171.44 46.7192 167.84 41.8392C167.68 41.5992 167.76 41.2792 168.08 41.1192Z" fill="#525D5A"/>
<path d="M331.6 41.1193C333.28 40.4793 337.36 38.0793 337.04 31.5993C336.72 23.6793 329.28 21.2793 321.92 21.2793H303.36C303.12 21.2793 302.88 21.5193 302.88 21.7593V28.7993C302.88 29.0393 303.12 29.2793 303.36 29.2793H321.84C321.84 29.2793 325.2 29.2793 325.28 32.3993C325.36 35.9193 322 35.6793 322 35.6793H303.36C303.12 35.6793 302.88 35.9193 302.88 36.1593V56.6392C302.88 56.8792 303.12 57.1193 303.36 57.1193H314.64C314.88 57.1193 315.12 56.8792 315.12 56.6392V43.6793C315.12 43.4393 315.36 43.1993 315.6 43.1993H318.32C318.48 43.1993 318.64 43.2793 318.72 43.4393C322.08 47.9193 325.36 52.4793 328.72 56.9593C328.8 57.1193 328.96 57.1193 329.12 57.1193H341.84C342.24 57.1193 342.48 56.6393 342.24 56.3193C338.64 51.4393 335.04 46.6393 331.44 41.7593C331.2 41.5993 331.36 41.1993 331.6 41.1193Z" fill="#525D5A"/>
<path d="M270.08 56.7193V21.7593C270.08 21.5193 270.32 21.2793 270.56 21.2793H297.6C297.84 21.2793 298.08 21.5193 298.08 21.7593V28.7993C298.08 29.0393 297.84 29.2793 297.6 29.2793H282.56C282.32 29.2793 282.08 29.5193 282.08 29.7593V35.1993C282.08 35.4393 282.32 35.6793 282.56 35.6793H296.08C296.32 35.6793 296.56 35.9193 296.56 36.1593V42.7193C296.56 42.9593 296.32 43.1993 296.08 43.1993H282.56C282.32 43.1993 282.08 43.4393 282.08 43.6793V48.6393C282.08 48.8793 282.32 49.1193 282.56 49.1193H297.84C298.08 49.1193 298.32 49.3593 298.32 49.5993V56.6392C298.32 56.8792 298.08 57.1193 297.84 57.1193H270.64C270.24 57.1993 270.08 56.9593 270.08 56.7193Z" fill="#525D5A"/>
<path d="M264.8 21.7593C264.8 21.5193 264.56 21.2793 264.32 21.2793H254.56C254.08 21.2793 254.24 21.2793 253.2 22.6393C252.8 23.1993 247.28 30.7193 243.84 35.4393C243.6 35.7593 243.52 35.8393 243.28 35.4393C239.36 30.0793 234.32 23.1193 234 22.5593C233.12 21.3593 233.04 21.2793 232.8 21.2793H222.96C222.72 21.2793 222.48 21.5193 222.48 21.7593V56.7193C222.48 56.9593 222.72 57.1993 222.96 57.1993C231.36 57.1993 225.28 57.1993 233.68 57.1993C233.92 57.1993 234.16 57.0393 234.16 56.7193C234.16 56.7193 234.16 43.6793 234.16 38.6393C234.16 38.3193 234.48 38.3193 234.64 38.5593C235.28 39.3593 242.4 49.1993 243.12 50.2393C243.44 50.7193 243.76 50.7193 244.16 50.2393C245.04 49.0393 251.76 39.9993 252.8 38.4793C252.96 38.2393 253.28 38.3993 253.28 38.7193C253.28 39.1993 253.28 56.6392 253.28 56.6392C253.28 56.8792 253.44 57.1193 253.76 57.1193C255.2 57.1193 261.76 57.1193 264.48 57.1193C264.8 57.1193 264.96 56.8792 264.96 56.6392C264.88 54.3993 264.8 24.1593 264.8 21.7593Z" fill="#525D5A"/>
<path d="M202.24 43.1992H193.28C192.96 43.1992 192.72 42.7992 192.8 42.4792C194.32 39.1992 195.84 35.8392 197.44 32.4792C197.52 32.3192 197.52 32.1592 197.76 32.1592C198.08 32.1592 198 32.3192 198.08 32.4792C199.6 35.8392 201.12 39.1192 202.72 42.4792C202.8 42.8792 202.64 43.1992 202.24 43.1992ZM220.4 56.5592C215.44 44.9592 209.6 33.2792 204.72 21.6793C204.64 21.4393 204.48 21.3593 204.24 21.3593H204.16H191.28C191.04 21.3593 190.88 21.4393 190.8 21.6793C185.84 33.2792 180 44.9592 175.12 56.5592C174.96 56.8792 175.2 57.1992 175.6 57.1992H186.24C186.48 57.1992 186.56 57.1192 186.72 56.8792C187.44 55.1992 188.16 53.3592 188.88 51.6792C188.96 51.4392 189.12 51.3592 189.36 51.3592H206.4C206.64 51.3592 206.72 51.4392 206.88 51.6792C207.6 53.3592 208.32 55.1192 209.04 56.8792C209.12 57.1192 209.28 57.1992 209.52 57.1992H220.16C220.32 57.1992 220.56 56.8792 220.4 56.5592Z" fill="#525D5A"/>
<defs>
<radialGradient id="paint0_radial_611_1416" cx="0" cy="0" r="1" gradientUnits="userSpaceOnUse" gradientTransform="translate(28.1558 18.6376) rotate(-46.7383) scale(54.8127 54.8127)">
<stop stop-color="white"/>
<stop offset="0.065" stop-color="white"/>
<stop offset="0.2415" stop-color="#F1F2F2"/>
<stop offset="0.4396" stop-color="#DDDEDE"/>
<stop offset="1" stop-color="#A5ACAB"/>
</radialGradient>
<radialGradient id="paint1_radial_611_1416" cx="0" cy="0" r="1" gradientUnits="userSpaceOnUse" gradientTransform="translate(27.4833 7.8129) rotate(-40.0022) scale(81.6927 81.6927)">
<stop stop-color="#DDDEDE"/>
<stop offset="0.1208" stop-color="#B0B5B4"/>
<stop offset="0.2317" stop-color="#8F9695"/>
<stop offset="0.3234" stop-color="#7A8382"/>
<stop offset="0.3846" stop-color="#737C7B"/>
<stop offset="0.5219" stop-color="#5A6362"/>
<stop offset="0.6666" stop-color="#464F4D"/>
<stop offset="0.7637" stop-color="#3F4846"/>
<stop offset="0.8621" stop-color="#394240"/>
<stop offset="0.9937" stop-color="#2A3130"/>
<stop offset="1" stop-color="#29302F"/>
</radialGradient>
<linearGradient id="paint2_linear_611_1416" x1="45.0377" y1="73.1998" x2="32.9672" y2="4.74535" gradientUnits="userSpaceOnUse">
<stop stop-color="#DDDEDE"/>
<stop offset="0.0479197" stop-color="#C5C7C7"/>
<stop offset="0.1422" stop-color="#9C9F9F"/>
<stop offset="0.2421" stop-color="#787D7C"/>
<stop offset="0.3469" stop-color="#5B6160"/>
<stop offset="0.4582" stop-color="#454B4A"/>
<stop offset="0.5791" stop-color="#353C3B"/>
<stop offset="0.7165" stop-color="#2C3332"/>
<stop offset="0.9066" stop-color="#29302F"/>
<stop offset="1" stop-color="#29302F"/>
</linearGradient>
<radialGradient id="paint3_radial_611_1416" cx="0" cy="0" r="1" gradientUnits="userSpaceOnUse" gradientTransform="translate(27.9842 7.66282) rotate(-39.9583) scale(85.1219 85.0986)">
<stop stop-color="#DDDEDE"/>
<stop offset="0.0384615" stop-color="#DDDEDE"/>
<stop offset="0.511" stop-color="#9DA9AB"/>
<stop offset="0.8422" stop-color="#E3E6E7"/>
<stop offset="1" stop-color="white"/>
</radialGradient>
</defs>
</svg>
