<svg width="243" height="68" viewBox="0 0 243 68" fill="none" xmlns="http://www.w3.org/2000/svg">
<path d="M41.8 67.709L47.6857 57.9827H22.9166C32.5567 42.3737 42.9385 25.6473 52.5905 10.0143H77.1143C78.8309 7.2143 81.0381 3.82482 83 0.509033L42.0452 0.509039C28.8024 22.1722 14.1017 45.6537 0.599976 67.709H41.8Z" fill="#1A1A18"/>
<path fill-rule="evenodd" clip-rule="evenodd" d="M50.59 51.7089H34.2C41.0827 40.3565 49.0739 27.7432 56.2165 16.5089L71.3834 16.5089C78.526 27.7431 86.5173 40.3564 93.4 51.7089H77.0099C75.9339 49.9671 74.9109 48.3423 73.9676 46.844L73.967 46.8431L73.585 46.2363L63.8 46.2364H54.0149L53.6329 46.8432L53.6323 46.8441C52.689 48.3423 51.666 49.9671 50.59 51.7089ZM63.8 28.1689L58.4181 38.2889H63.8L69.1818 38.2889L63.8 28.1689Z" fill="#D1050C"/>
<path fill-rule="evenodd" clip-rule="evenodd" d="M113.589 41.0152H135.174C147.683 41.0152 149.4 32.7444 149.4 28.2887C149.4 23.833 147.683 16.5089 135.174 16.5089L97.4 16.5089V51.7089H113.589V41.0152ZM131.249 26.7292H114.079V31.4077H131.249C131.985 31.4077 133.211 30.8507 133.211 29.0684C133.211 27.2861 131.74 26.7292 131.249 26.7292Z" fill="#D1050C"/>
<path d="M165.321 16.5089H148.6C154.256 25.7489 163.6 40.9289 170.239 51.7089H178.6H186.961C193.6 40.9289 202.944 25.7489 208.6 16.5089H191.879C187.639 23.5828 181.797 33.2289 178.6 38.5089C175.403 33.2289 169.561 23.5828 165.321 16.5089Z" fill="#D1050C"/>
<path d="M201 0.508926L195.114 10.2352H219.883C210.243 25.8442 199.861 42.5706 190.209 58.2036H165.686C163.969 61.0036 161.762 64.3931 159.8 67.7089L200.755 67.7089C213.998 46.0457 228.698 22.5642 242.2 0.508926H201Z" fill="#1A1A18"/>
</svg>
