<svg width="628" height="70" viewBox="0 0 628 70" fill="none" xmlns="http://www.w3.org/2000/svg">
<path fill-rule="evenodd" clip-rule="evenodd" d="M116.562 0.735323C125.274 0.317156 134.088 0.642396 142.596 2.68677C148.353 4.08066 154.11 6.49674 157.829 10.9107C160.019 13.5127 160.325 16.9509 160.631 20.1569C161.038 26.2435 160.835 32.3302 160.885 38.4168C160.885 43.0631 160.936 47.7094 160.427 52.3093C160.121 54.3537 159.765 56.491 158.593 58.303C156.81 60.9979 154.059 63.0887 151.053 64.6684C145.856 67.2704 139.997 68.4784 134.139 69.1754C125.681 70.0582 117.122 70.0117 108.716 68.7572C103.061 67.9209 97.3042 66.4805 92.5152 63.4604C89.2037 61.3231 86.1469 58.3495 85.5865 54.5395C84.5676 48.0811 84.8223 41.5299 84.7713 35.025C84.8223 29.9606 84.6695 24.8961 85.077 19.8316C85.2808 17.2297 85.5356 14.4419 87.013 12.1188C89.2037 8.6805 92.9228 6.35735 96.7438 4.68468C103.01 2.17568 109.786 1.10703 116.562 0.735323ZM119.364 16.9045C116.613 17.1832 113.862 17.9266 111.62 19.367C109.48 20.7609 107.901 22.9911 107.748 25.4072C107.443 28.8919 107.544 32.4231 107.544 35.9543C107.544 39.2996 107.443 42.6914 107.952 46.0368C108.309 48.0812 109.888 49.7073 111.62 50.9618C114.881 53.0527 119.007 53.5638 122.93 53.6567C126.548 53.6102 130.318 53.1456 133.476 51.4729C135.922 50.172 137.96 47.9418 138.163 45.2934C138.52 41.9945 138.418 38.6492 138.418 35.3038C138.418 31.912 138.52 28.5202 138.163 25.082C137.96 22.1083 135.463 19.6922 132.661 18.4377C128.534 16.7186 123.796 16.4398 119.364 16.9045Z" fill="#383842"/>
<path fill-rule="evenodd" clip-rule="evenodd" d="M198.212 0.965408C204.175 0.454442 210.137 0.454446 216.1 0.918961C221.756 1.42993 227.413 2.3125 232.713 4.30992C236.688 5.84281 240.51 8.11894 242.956 11.417C244.791 13.786 244.995 16.7589 245.3 19.546C245.861 27.8608 245.606 36.2686 245.606 44.6298C245.453 48.0208 245.453 51.4582 244.791 54.8027C244.179 57.915 241.988 60.5627 239.287 62.4672C234.344 66.1369 227.974 67.7627 221.756 68.7382C213.144 70.0388 204.277 70.0852 195.613 69.0633C190.415 68.3665 185.217 67.3446 180.529 65.2078C177.267 63.7214 174.261 61.6311 172.171 58.8904C170.744 57.0324 170.286 54.7098 170.031 52.5266C169.368 46.813 169.572 41.0531 169.572 35.3395C169.521 30.6015 169.521 25.817 169.725 21.0789C170.031 17.9667 170.031 14.5757 171.916 11.7886C174.821 7.51507 179.968 4.96024 185.064 3.42734C189.294 2.08025 193.779 1.38347 198.212 0.965408ZM203.614 16.9447C199.792 17.4557 195.664 18.8492 193.626 22.0079C192.097 24.0983 192.454 26.746 192.301 29.115C192.301 34.2711 192.199 39.4737 192.454 44.6298C192.454 46.9059 193.779 49.0427 195.664 50.4363C198.671 52.7588 202.697 53.4092 206.519 53.595C210.392 53.7343 214.418 53.3162 217.883 51.644C220.431 50.3433 222.572 48.0672 222.878 45.2801C223.183 42.3072 223.234 39.2879 223.183 36.2686C223.183 32.4595 223.285 28.6041 222.827 24.795C222.521 21.915 220.075 19.6389 217.323 18.4312C213.042 16.666 208.201 16.4338 203.614 16.9447Z" fill="#383842"/>
<path fill-rule="evenodd" clip-rule="evenodd" d="M496.543 0.917814C504.647 0.313874 512.853 0.453242 520.854 1.80049C526.665 2.869 532.577 4.49499 537.164 8.07218C539.457 9.83754 541.547 12.1139 542.209 14.9013C543.178 18.7573 543.127 22.7061 543.178 26.6549C543.229 31.7187 543.229 36.7826 543.229 41.8464C543.127 46.1668 543.178 50.4873 542.413 54.7614C541.955 57.0378 540.68 59.1283 538.897 60.7543C534.666 64.9354 528.55 66.9795 522.587 68.1874C514.127 69.8599 505.361 70.0922 496.747 69.4418C489.765 68.7914 482.629 67.5835 476.462 64.378C473.608 62.7984 470.958 60.8008 469.327 58.1527C467.696 55.737 467.696 52.8102 467.39 50.0692C466.983 42.3574 467.136 34.6455 467.136 26.9801C467.288 23.1707 467.288 19.3147 467.951 15.5517C468.614 12.3927 470.856 9.65171 473.608 7.74698C480.132 3.14774 488.542 1.61467 496.543 0.917814ZM500.977 16.9919C497.766 17.4565 494.505 18.4785 492.313 20.7549C491.141 21.8234 490.376 23.2636 490.172 24.7967C489.765 28.188 489.918 31.5794 489.867 35.0172C489.918 38.4085 489.765 41.8463 490.172 45.2377C490.478 48.6755 493.587 51.2771 496.951 52.3921C501.334 53.7858 506.074 53.9252 510.559 53.2283C513.923 52.5779 517.44 51.2306 519.325 48.4432C520.65 46.6779 520.65 44.4479 520.752 42.4038C520.854 37.5723 520.854 32.7408 520.752 27.8628C520.65 25.8187 520.65 23.5888 519.325 21.8234C517.796 19.547 515.044 18.1998 512.241 17.5029C508.571 16.5738 504.698 16.4809 500.977 16.9919Z" fill="#383842"/>
<path d="M0 4.15039C1.23382 3.96777 2.46763 4.05908 3.70145 4.05908C23.5856 4.05908 43.4876 4.05908 63.4075 4.05908C67.5381 4.10474 71.7224 3.96777 75.853 4.15039C75.6921 8.67008 75.9603 13.1898 75.7457 17.6638C66.8944 25.3336 57.6676 32.6838 48.7626 40.308C42.6472 45.4212 36.3708 50.3974 30.4163 55.6475C45.6513 55.7388 60.8862 55.6475 76.1212 55.6932C76.1212 60.3955 76.0676 65.0522 76.1212 69.7545C50.7654 69.7849 25.3916 69.7849 0 69.7545C0.0536443 65.2348 0 60.7151 0 56.1954C4.34519 52.5431 8.69037 48.8908 13.1428 45.2842C18.9364 40.4906 24.5691 35.56 30.4699 30.812C35.5125 26.6119 40.5551 22.4118 45.5976 18.166C43.881 17.9834 42.218 18.0747 40.5551 18.0747C27.0367 18.0291 13.5184 18.1204 0 18.029C0 13.418 0.107289 8.76139 0 4.15039Z" fill="#383842"/>
<path d="M261.234 4.1276C269.88 3.99058 278.577 4.1276 287.223 4.03625C289.679 4.08193 292.135 3.99058 294.59 4.1276C297.455 15.1343 300.78 26.0497 303.697 37.0108C305.538 30.8452 307.124 24.6339 308.864 18.4227C310.194 13.6272 311.524 8.87739 312.752 4.1276C322.421 3.99058 332.141 4.1276 341.81 4.03625C343.192 4.03625 344.573 4.03625 346.006 4.1276C345.971 26.0193 345.971 47.8958 346.006 69.757C339.611 69.757 333.267 69.8027 326.923 69.757C326.923 53.5438 326.923 37.3305 326.923 21.1173C326.923 20.417 326.889 19.7014 326.821 18.9707C322.881 32.261 319.198 45.6426 315.31 58.9786C314.287 62.5866 313.212 66.149 312.24 69.757C306.476 69.757 300.695 69.757 294.897 69.757C290.054 53.1023 285.194 36.4475 280.317 19.7928C280.266 36.4628 280.368 53.087 280.266 69.757C273.922 69.7113 267.578 69.8483 261.234 69.7113C261.234 47.8805 261.234 26.0041 261.234 4.1276Z" fill="#383842"/>
<path d="M359.846 4.07359C367.764 4.11927 375.734 3.93656 383.704 4.11927C383.652 20.6086 383.704 37.098 383.652 53.5874C395.866 53.6178 408.097 53.6178 420.345 53.5874C420.448 58.9772 420.345 64.3671 420.397 69.757C400.213 69.8027 380.029 69.757 359.846 69.757C359.846 47.8778 359.846 25.9985 359.846 4.07359Z" fill="#383842"/>
<path d="M432.507 4.06626C440.598 4.02058 448.636 4.02058 456.727 4.11195C456.692 25.9784 456.692 47.8601 456.727 69.757C448.636 69.757 440.598 69.8027 432.507 69.757C432.507 47.8753 432.507 25.9479 432.507 4.06626Z" fill="#383842"/>
<path d="M555.339 4.14151C561.166 4.00453 566.994 4.09585 572.769 4.09585C574.316 4.14151 575.915 3.95886 577.411 4.23283C586.899 16.2875 596.336 28.3421 605.825 40.351C605.98 28.2964 605.877 16.2418 605.877 4.14151C610.982 3.9132 616.088 4.14151 621.193 4.05019C623.462 4.09585 625.731 4.05019 628 4.09585C628 25.9829 628 47.87 628 69.757C621.038 69.8027 614.076 69.757 607.166 69.757C606.702 69.7113 606.135 69.8483 605.774 69.62C596.285 57.7024 586.951 45.7391 577.462 33.8214C577.307 45.8304 577.462 57.7937 577.359 69.757C570.036 69.757 562.713 69.8027 555.339 69.757C555.339 47.87 555.339 25.9981 555.339 4.14151Z" fill="#383842"/>
</svg>
