<svg width="503" height="56" viewBox="0 0 503 56" fill="none" xmlns="http://www.w3.org/2000/svg">
<path fill-rule="evenodd" clip-rule="evenodd" d="M93.2496 0.555788C100.219 0.221254 107.27 0.481446 114.076 2.11694C118.682 3.23205 123.288 5.16492 126.263 8.6961C128.015 10.7776 128.26 13.5283 128.505 16.093C128.831 20.9623 128.668 25.8316 128.708 30.701C128.708 34.418 128.749 38.135 128.342 41.8149C128.097 43.4504 127.812 45.1602 126.874 46.6099C125.448 48.7658 123.247 50.4384 120.842 51.7022C116.685 53.7838 111.998 54.7502 107.311 55.3078C100.545 56.014 93.6979 55.9768 86.9729 54.9732C82.4489 54.3042 77.8433 53.1519 74.0121 50.7358C71.3629 49.026 68.9175 46.6471 68.4692 43.5991C67.654 38.4324 67.8578 33.1914 67.817 27.9875C67.8578 23.936 67.7355 19.8844 68.0616 15.8328C68.2246 13.7513 68.4284 11.521 69.6104 9.66253C71.3629 6.91192 74.3382 5.0534 77.395 3.71527C82.4081 1.70807 87.8289 0.853151 93.2496 0.555788ZM95.4912 13.4911C93.2903 13.7141 91.0894 14.3088 89.2961 15.4611C87.5843 16.5762 86.3208 18.3604 86.1986 20.2933C85.954 23.081 86.0355 25.906 86.0355 28.7309C86.0355 31.4072 85.954 34.1206 86.3616 36.7969C86.6469 38.4324 87.9104 39.7334 89.2961 40.737C91.9046 42.4096 95.2059 42.8185 98.3442 42.8929C101.238 42.8557 104.254 42.484 106.781 41.1458C108.737 40.1051 110.368 38.3209 110.531 36.2022C110.816 33.5631 110.734 30.8868 110.734 28.2106C110.734 25.4971 110.816 22.7837 110.531 20.0331C110.368 17.6542 108.37 15.7213 106.129 14.7177C102.827 13.3424 99.0371 13.1194 95.4912 13.4911Z" fill="#383842"/>
<path fill-rule="evenodd" clip-rule="evenodd" d="M158.57 0.739856C163.34 0.331083 168.11 0.331086 172.88 0.702698C177.405 1.11147 181.93 1.81753 186.17 3.41546C189.35 4.64178 192.408 6.46268 194.365 9.10112C195.833 10.9963 195.996 13.3747 196.24 15.6043C196.689 22.2562 196.485 28.9823 196.485 35.6714C196.363 38.3841 196.363 41.134 195.833 43.8096C195.343 46.2994 193.59 48.4176 191.43 49.9412C187.475 52.877 182.379 54.1776 177.405 54.958C170.515 55.9985 163.421 56.0357 156.491 55.2181C152.332 54.6607 148.174 53.8432 144.423 52.1337C141.814 50.9446 139.409 49.2723 137.737 47.0798C136.595 45.5934 136.229 43.7353 136.025 41.9888C135.495 37.4179 135.658 32.8099 135.658 28.2391C135.617 24.4487 135.617 20.6211 135.78 16.8306C136.025 14.3408 136.025 11.6281 137.533 9.39841C139.857 5.97958 143.975 3.93572 148.052 2.7094C151.435 1.63172 155.023 1.07431 158.57 0.739856ZM162.891 13.5233C159.834 13.9321 156.531 15.0469 154.901 17.5739C153.678 19.2461 153.963 21.3643 153.841 23.2595C153.841 27.3844 153.759 31.5465 153.963 35.6714C153.963 37.4923 155.023 39.2017 156.531 40.3165C158.937 42.1746 162.158 42.6948 165.215 42.8435C168.314 42.9549 171.534 42.6205 174.307 41.2827C176.345 40.2422 178.057 38.4213 178.302 36.1916C178.547 33.8133 178.587 31.3978 178.547 28.9823C178.547 25.9351 178.628 22.8507 178.261 19.8035C178.017 17.4995 176.06 15.6786 173.858 14.7125C170.434 13.3003 166.561 13.1145 162.891 13.5233Z" fill="#383842"/>
<path fill-rule="evenodd" clip-rule="evenodd" d="M397.235 0.70178C403.718 0.218629 410.282 0.330123 416.683 1.40792C421.332 2.26273 426.061 3.56352 429.731 6.42526C431.566 7.83755 433.237 9.65866 433.767 11.8886C434.542 14.9733 434.501 18.1324 434.542 21.2915C434.583 25.3425 434.583 29.3935 434.583 33.4446C434.501 36.901 434.542 40.3574 433.93 43.7766C433.564 45.5977 432.544 47.2701 431.117 48.5709C427.733 51.9158 422.84 53.5511 418.07 54.5174C411.301 55.8554 404.288 56.0412 397.398 55.5209C391.812 55.0006 386.103 54.0343 381.17 51.4698C378.887 50.2062 376.766 48.6081 375.462 46.4897C374.157 44.5571 374.157 42.2156 373.912 40.0229C373.586 33.8534 373.708 27.6839 373.708 21.5516C373.831 18.504 373.831 15.4193 374.361 12.4089C374.891 9.88166 376.685 7.68889 378.887 6.16511C384.106 2.48572 390.833 1.25926 397.235 0.70178ZM400.782 13.561C398.213 13.9327 395.604 14.7503 393.85 16.5714C392.913 17.4263 392.301 18.5784 392.138 19.8048C391.812 22.5179 391.934 25.231 391.893 27.9813C391.934 30.6943 391.812 33.4446 392.138 36.1577C392.383 38.9079 394.87 40.9892 397.561 41.8811C401.067 42.9961 404.859 43.1076 408.447 42.5501C411.138 42.0298 413.952 40.952 415.46 38.7221C416.52 37.3098 416.52 35.5258 416.602 33.8906C416.683 30.0254 416.683 26.1601 416.602 22.2578C416.52 20.6225 416.52 18.8385 415.46 17.4263C414.237 15.6051 412.035 14.5273 409.793 13.9699C406.857 13.2265 403.758 13.1522 400.782 13.561Z" fill="#383842"/>
<path d="M-6.10352e-05 3.28784C0.986993 3.14175 1.97405 3.2148 2.9611 3.2148C18.8684 3.2148 34.79 3.2148 50.726 3.2148C54.0304 3.25132 57.3778 3.14175 60.6823 3.28784C60.5536 6.90359 60.7682 10.5193 60.5965 14.0986C53.5155 20.2344 46.134 26.1146 39.0101 32.2139C34.1177 36.3044 29.0966 40.2854 24.333 44.4855C36.521 44.5586 48.7089 44.4855 60.8969 44.522C60.8969 48.2839 60.854 52.0092 60.8969 55.7711C40.6122 55.7954 20.3132 55.7954 -6.10352e-05 55.7711C0.0428544 52.1553 -6.10352e-05 48.5395 -6.10352e-05 44.9238C3.47609 42.002 6.95224 39.0801 10.5142 36.1949C15.1491 32.36 19.6552 28.4155 24.3759 24.6171C28.4099 21.257 32.444 17.8969 36.478 14.5003C35.1047 14.3542 33.7744 14.4273 32.444 14.4273C21.6293 14.3908 10.8146 14.4638 -6.10352e-05 14.3908C-6.10352e-05 10.702 0.0857698 6.97664 -6.10352e-05 3.28784Z" fill="#383842"/>
<path d="M208.987 3.26961C215.904 3.16 222.862 3.26961 229.778 3.19653C231.743 3.23307 233.708 3.16 235.672 3.26961C237.964 12.075 240.624 20.8073 242.957 29.5761C244.431 24.6437 245.699 19.6747 247.091 14.7056C248.155 10.8693 249.219 7.06944 250.201 3.26961C257.937 3.16 265.713 3.26961 273.448 3.19653C274.553 3.19653 275.658 3.19653 276.804 3.26961C276.777 20.7829 276.777 38.2841 276.804 55.7731C271.688 55.7731 266.613 55.8096 261.538 55.7731C261.538 42.8025 261.538 29.8319 261.538 16.8613C261.538 16.3011 261.511 15.7287 261.456 15.1441C258.305 25.7763 255.358 36.4816 252.248 47.1504C251.429 50.0368 250.57 52.8867 249.792 55.7731C245.181 55.7731 240.556 55.7731 235.918 55.7731C232.043 42.4493 228.155 29.1255 224.253 15.8018C224.212 29.1377 224.294 42.4371 224.212 55.7731C219.137 55.7365 214.062 55.8461 208.987 55.7365C208.987 38.2719 208.987 20.7708 208.987 3.26961Z" fill="#383842"/>
<path d="M287.877 3.2264C294.211 3.26294 300.587 3.11678 306.963 3.26294C306.922 16.4544 306.963 29.6459 306.922 42.8374C316.693 42.8618 326.477 42.8618 336.276 42.8374C336.359 47.1493 336.276 51.4612 336.317 55.7731C320.17 55.8096 304.023 55.7731 287.877 55.7731C287.877 38.2697 287.877 20.7663 287.877 3.2264Z" fill="#383842"/>
<path d="M346.005 3.22054C352.478 3.18399 358.909 3.18399 365.382 3.25709C365.354 20.7502 365.354 38.2556 365.382 55.7731C358.909 55.7731 352.478 55.8096 346.005 55.7731C346.005 38.2677 346.005 20.7259 346.005 3.22054Z" fill="#383842"/>
<path d="M444.271 3.28074C448.933 3.17115 453.595 3.24421 458.215 3.24421C459.453 3.28074 460.732 3.13462 461.928 3.3538C469.519 12.9975 477.069 22.6412 484.66 32.2483C484.784 22.6046 484.701 12.961 484.701 3.28074C488.786 3.09809 492.87 3.28074 496.954 3.20768C498.77 3.24421 500.585 3.20768 502.4 3.24421C502.4 20.7538 502.4 38.2635 502.4 55.7731C496.83 55.8096 491.261 55.7731 485.733 55.7731C485.361 55.7365 484.908 55.8461 484.619 55.6635C477.028 46.1294 469.561 36.5588 461.97 27.0247C461.846 36.6318 461.97 46.2024 461.887 55.7731C456.029 55.7731 450.171 55.8096 444.271 55.7731C444.271 38.2635 444.271 20.766 444.271 3.28074Z" fill="#383842"/>
</svg>
