<svg width="505" height="98" viewBox="0 0 505 98" fill="none" xmlns="http://www.w3.org/2000/svg">
<path d="M242 71.5C242 71.8 241.8 72 241.5 72H229.6C229.3 72 229.1 71.8 229.1 71.5V35.4C229.1 35.1 229.3 34.9 229.6 34.9H241.5C241.8 34.9 242 35.1 242 35.4V71.5Z" fill="#525D5A"/>
<path d="M271.7 35.5001C268.3 34.8001 260.4 34.9001 260.1 34.9001H249.1C248.8 34.9001 248.6 35.1001 248.6 35.4001V71.5001C248.6 71.8001 248.8 72.0001 249.1 72.0001C257.8 72.0001 251.5 72.0001 260.1 72.0001C264.9 72.0001 269.7 72.0001 270.9 71.9001C279.6 71.0001 284.7 64.2001 284.7 54.2001C284.7 44.3001 280.9 37.5001 271.7 35.5001ZM263.4 63.2001C263 63.2001 261.7 63.2001 261 63.2001C260.7 63.2001 260.6 63.2001 260.6 62.9001C260.6 57.5001 260.6 49.2001 260.6 43.8001C260.6 43.7001 260.8 43.7001 261.1 43.7001C261.9 43.7001 263.2 43.7001 264.1 43.7001C268.7 43.7001 273.5 46.1001 273.5 53.6001C273.5 60.8001 269.9 63.2001 263.4 63.2001Z" fill="#525D5A"/>
<path d="M417.1 71.3C412 59.3 406 47.2 400.8 35.2C400.7 35 400.6 34.9 400.3 34.9H400.2H386.9C386.7 34.9 386.5 35 386.4 35.2C381.3 47.2 375.3 59.3 370.1 71.3C370 71.6 370.2 72 370.6 72H381.6C381.8 72 382 71.9 382.1 71.7C382.8 69.9 383.6 68.1 384.3 66.3C384.4 66.1 384.5 66 384.8 66H402.4C402.6 66 402.8 66.1 402.9 66.3C403.6 68.1 404.4 69.9 405.1 71.7C405.2 71.9 405.3 72 405.6 72H416.6C417 72 417.2 71.7 417.1 71.3ZM398.3 57.6H389C388.6 57.6 388.4 57.2 388.5 56.9C390.1 53.5 391.7 50 393.3 46.6C393.4 46.4 393.4 46.3 393.6 46.3C393.9 46.3 393.9 46.4 394 46.6C395.6 50 397.2 53.5 398.8 56.9C398.9 57.2 398.6 57.6 398.3 57.6Z" fill="#525D5A"/>
<path d="M475.5 34.9H465.8C465.5 34.9 465.3 35.1 465.3 35.4V71.5C465.3 71.8 465.5 72 465.8 72H476.8C477.1 72 477.3 71.8 477.3 71.5C477.2 65.8 477.1 60 477 54.3C477 53.8 477.6 53.6 477.9 54C483.4 60 488.9 65.9 494.4 71.9C494.5 72 494.6 72.1 494.8 72.1H504.5C504.8 72.1 505 71.9 505 71.6V35.5C505 35.2 504.8 35 504.5 35H493.6C493.3 35 493.1 35.2 493.1 35.5C493.2 41.2 493.2 47 493.3 52.7C493.3 53.2 492.7 53.4 492.4 53C486.9 47 481.4 41.1 475.9 35.1C475.8 35 475.7 34.9 475.5 34.9Z" fill="#525D5A"/>
<path d="M367.3 35.4C367.3 35.1 367.1 34.9 366.8 34.9H356.7C356.2 34.9 356.3 34.9 355.3 36.3C354.9 36.8 349.2 44.7 345.6 49.5C345.4 49.8 345.3 49.9 345 49.5C340.9 44 335.8 36.7 335.4 36.2C334.5 35 334.5 34.8 334.2 34.8H324C323.7 34.8 323.5 35 323.5 35.3V71.5C323.5 71.8 323.7 72 324 72C332.7 72 326.4 72 335.1 72C335.4 72 335.6 71.8 335.6 71.5C335.6 71.5 335.6 58 335.6 52.8C335.6 52.5 335.9 52.5001 336.1 52.7001C336.7 53.6001 344.1 63.7 344.9 64.8C345.3 65.3 345.6 65.3 345.9 64.8C346.8 63.6 353.7 54.2001 354.8 52.7001C355 52.4001 355.3 52.6 355.3 53C355.3 53.5 355.3 71.5 355.3 71.5C355.3 71.8 355.5 72 355.8 72C357.3 72 364 72 366.9 72C367.2 72 367.4 71.8 367.4 71.5C367.4 69.1 367.3 37.9 367.3 35.4Z" fill="#525D5A"/>
<path d="M289 71.5V35.4C289 35.1 289.2 34.9 289.5 34.9H317.4C317.7 34.9 317.9 35.1 317.9 35.4V42.7C317.9 43 317.7 43.2 317.4 43.2H301.8C301.5 43.2 301.3 43.4 301.3 43.7V49.3C301.3 49.6 301.5 49.8 301.8 49.8H315.8C316.1 49.8 316.3 50 316.3 50.3V57.1C316.3 57.4 316.1 57.6 315.8 57.6H301.8C301.5 57.6 301.3 57.8 301.3 58.1V63.2C301.3 63.5 301.5 63.7 301.8 63.7H317.6C317.9 63.7 318.1 63.9 318.1 64.2V71.5C318.1 71.8 317.9 72 317.6 72H289.5C289.2 72 289 71.8 289 71.5Z" fill="#525D5A"/>
<path d="M430.1 34.9H420.4C420.1 34.9 419.9 35.1 419.9 35.4V71.5C419.9 71.8 420.1 72 420.4 72H431.4C431.7 72 431.9 71.8 431.9 71.5C431.8 65.8 431.7 60 431.6 54.3C431.6 53.8 432.2 53.6 432.5 54C438 60 443.5 65.9 449 71.9C449.1 72 449.2 72.1 449.4 72.1H459.1C459.4 72.1 459.6 71.9 459.6 71.6V35.5C459.6 35.2 459.4 35 459.1 35H448.2C447.9 35 447.7 35.2 447.7 35.5C447.8 41.2 447.8 47 447.9 52.7C447.9 53.2 447.3 53.4 447 53C441.5 47 436 41.1 430.5 35.1C430.4 35 430.3 34.9 430.1 34.9Z" fill="#525D5A"/>
<path d="M194.5 71.5V35.4C194.5 35.1 194.7 34.9 195 34.9H222.9C223.2 34.9 223.4 35.1 223.4 35.4V42.7C223.4 43 223.2 43.2 222.9 43.2H207.3C207 43.2 206.8 43.4 206.8 43.7V49.3C206.8 49.6 207 49.8 207.3 49.8H221.3C221.6 49.8 221.8 50 221.8 50.3V57.1C221.8 57.4 221.6 57.6 221.3 57.6H207.3C207 57.6 206.8 57.8 206.8 58.1V63.2C206.8 63.5 207 63.7 207.3 63.7H223.1C223.4 63.7 223.6 63.9 223.6 64.2V71.5C223.6 71.8 223.4 72 223.1 72H195C194.7 72 194.5 71.8 194.5 71.5Z" fill="#525D5A"/>
<path d="M191.1 34.9H178.6C178.4 34.9 178.2 35 178.1 35.2C175.4 40.8 172.8 46.3 170.1 51.9C169.9 52.3 169.4 52.3 169.2 51.9C166.6 46.3 163.9 40.8 161.3 35.2C161.2 35 161.1 34.9 160.8 34.9H153.1C152.9 34.9 152.7 35 152.6 35.2C150.5 39.6 146.7 47.5 144.7 51.9C144.6 52.2 144.1 52.3 143.9 51.9C141.1 46.3 138.7 40.8 135.9 35.2C135.8 35 135.7 34.9 135.4 34.9H123.2C122.8 34.9 122.6 35.3 122.7 35.6C128.5 47.6 134.2 59.7 140 71.7C140.1 71.9 140.2 72 140.5 72H147.9C148.1 72 148.3 71.9 148.4 71.7C149.3 69.9 155.8 56.3 156.8 54.2C157 53.8 157.5 53.8 157.7 54.2C160.5 60 163.3 65.9 166 71.7C166.1 71.9 166.2 72 166.5 72H173.9C174.1 72 174.3 71.9 174.4 71.7C180.2 59.7 185.9 47.6 191.7 35.6C191.8 35.3 191.5 34.9 191.1 34.9Z" fill="#525D5A"/>
<mask id="mask0_554_552" style="mask-type:luminance" maskUnits="userSpaceOnUse" x="2" y="3" width="92" height="91">
<path d="M14.9004 17.3999C-2.29956 35.5999 -1.39956 64.2999 16.8004 81.3999C25.3004 89.3999 36.1004 93.5 46.9004 93.7H48.8004C60.5004 93.5 72.2004 88.7 80.9004 79.5C98.0004 61.3 97.2004 32.7 79.0004 15.5C70.2004 7.29995 59.1004 3.19995 48.0004 3.19995C35.9004 3.19995 23.8004 7.99995 14.9004 17.3999Z" fill="white"/>
</mask>
<g mask="url(#mask0_554_552)">
<path d="M-47.4996 51.2L44.9004 -46.9L143.3 45.8L50.9004 143.9L-47.4996 51.2Z" fill="url(#paint0_radial_554_552)"/>
</g>
<mask id="mask1_554_552" style="mask-type:luminance" maskUnits="userSpaceOnUse" x="0" y="0" width="98" height="98">
<path d="M46 91.9C23.5 90.4 5.7 71.7 5.7 48.9C5.7 25.1 25.1 5.8 48.9 5.8C72.7 5.8 92.1 25.1 92.1 48.9C92.1 72.7 72.7 92 48.9 92C47.9 92 46.9 91.9 46 91.9ZM0 46.6V51.4C1.2 77.3 22.7 98 48.9 98C75.9 98 97.9 76 97.9 49C97.9 23.1 77.8 1.90001 52.3 0.100006C51.2 6.10203e-06 50 0 48.9 0C22.7 0 1.2 20.7 0 46.6Z" fill="white"/>
</mask>
<g mask="url(#mask1_554_552)">
<path d="M-48.2 40.5L57.4 -48.2L146.1 57.5L40.4 146.2L-48.2 40.5Z" fill="url(#paint1_radial_554_552)"/>
</g>
<mask id="mask2_554_552" style="mask-type:luminance" maskUnits="userSpaceOnUse" x="5" y="5" width="88" height="88">
<path d="M19 78.3C11.4 70.7 6.7 60.3 6.7 48.7C6.7 37.1 11.4 26.7001 19 19.1001C26.6 11.5001 37.2 6.90004 48.8 6.90004C60.4 6.90004 71 11.6001 78.6 19.1001C86.2 26.7001 90.9 37.1 90.9 48.7C90.9 60.2 86.2 70.7 78.6 78.3C71 85.9 60.4 90.5 48.8 90.5C37.1 90.5 26.6 85.8 19 78.3ZM5 48.7C5 72.7 24.6 92.1001 48.7 92.1001C72.9 92.1001 92.4 72.7 92.4 48.7C92.4 24.7 72.8 5.30005 48.7 5.30005C24.6 5.30005 5 24.7 5 48.7Z" fill="white"/>
</mask>
<g mask="url(#mask2_554_552)">
<path d="M7.70001 107.1L-9.79999 7.90004L89.9 -9.69995L107.4 89.5L7.70001 107.1Z" fill="url(#paint2_linear_554_552)"/>
</g>
<mask id="mask3_554_552" style="mask-type:luminance" maskUnits="userSpaceOnUse" x="4" y="4" width="89" height="89">
<path d="M17.8996 79.1001C9.99961 71.3001 5.09961 60.5 5.09961 48.5C5.09961 36.6 9.99961 25.7 17.8996 17.9C25.7996 10.1 36.6996 5.20004 48.7996 5.20004C60.8996 5.20004 71.7996 10 79.6996 17.9C87.5996 25.7 92.4996 36.5 92.4996 48.5C92.4996 60.4 87.5996 71.3001 79.6996 79.1001C71.7996 86.9001 60.8996 91.8 48.7996 91.8C36.6996 91.8 25.7996 87.0001 17.8996 79.1001ZM17.4996 17.6001C9.49961 25.5001 4.59961 36.5001 4.59961 48.6001C4.59961 60.7001 9.49961 71.6001 17.4996 79.6001C25.4996 87.5001 36.4996 92.4 48.6996 92.4C60.8996 92.4 71.8996 87.5001 79.8996 79.6001C87.8996 71.7001 92.7996 60.7001 92.7996 48.6001C92.7996 36.5001 87.8996 25.6001 79.8996 17.6001C71.8996 9.60005 60.8996 4.80005 48.6996 4.80005C36.5996 4.80005 25.4996 9.60005 17.4996 17.6001Z" fill="white"/>
</mask>
<g mask="url(#mask3_554_552)">
<path d="M-38.6004 40.9L56.3996 -38.7L136.1 56.1001L41.0996 135.8L-38.6004 40.9Z" fill="url(#paint3_radial_554_552)"/>
</g>
<path d="M63.4996 52.8C66.3996 46.7 68.8996 41.3 71.7996 35.2C71.8996 35 72.4996 34.9 72.6996 34.9C77.0996 34.9 82.0996 34.9 86.4996 34.9C86.8996 34.9 87.1996 35.3 86.9996 35.6C80.6996 48.7 74.1996 62.3 67.8996 75.4C67.7996 75.6 67.5996 75.7 67.3996 75.7H58.4996C58.1996 75.7 58.0996 75.6 57.9996 75.4C54.9996 69 52.6996 62.6 49.6996 56.2C49.4996 55.8 49.0996 56.1 48.8996 56.5C47.7996 58.8 46.5996 61.3 45.3996 63.7C45.0996 64.2 43.7996 64.4 43.3996 63.5C41.3996 59.1 40.4996 54.3 38.1996 50C38.0996 49.8 38.0996 49.7 38.1996 49.5C40.3996 44.7 42.1996 40 44.4996 35.2C44.5996 35 44.6996 34.9 44.9996 34.9C47.8996 34.9 50.8996 34.9 53.6996 34.9C53.9996 34.9 54.0996 35 54.1996 35.2C57.0996 41.3 59.6996 46.7 62.5996 52.8C62.7996 53.3 63.2996 53.3 63.4996 52.8Z" fill="#2A302F"/>
<path d="M42.7996 68.8C37.4996 57.8 31.9996 46.3 26.7996 35.2C26.6996 35 26.4996 34.9 26.2996 34.9C21.8996 34.9 16.8996 34.9 12.4996 34.9C11.9996 34.9 11.4996 35.4 11.5996 35.8C17.8996 48.8 23.5996 62.3 29.7996 75.3C29.8996 75.5 29.9996 75.8 30.2996 75.8C33.1996 75.8 36.7996 75.8 39.3996 75.8C39.5996 75.8 39.7996 75.7 39.8996 75.5C41.1996 72.7 42.2996 70.5 42.8996 69.3C42.8996 69.1 42.8996 69 42.7996 68.8Z" fill="#2A302F"/>
<path d="M62.3996 53.4C65.2996 47.4 68.0996 41.3 70.9996 35.3C71.0996 35.1 71.1996 35 71.4996 35H84.9996C85.3996 35 85.6996 35.4 85.4996 35.8C79.2996 48.9 72.9996 61.9 66.7996 75C66.6996 75.2 66.5996 75.3 66.2996 75.3H58.1996C57.8996 75.3 57.7996 75.2 57.6996 75C54.6996 68.7 51.6996 62.4 48.6996 56C48.4996 55.6 47.8996 55.6 47.6996 56C46.5996 58.3 45.2996 61 44.0996 63.5C43.8996 63.9 43.3996 63.9 43.1996 63.5C40.9996 58.9 38.7996 54.4 36.5996 49.9C36.4996 49.7 36.4996 49.6 36.5996 49.4C38.7996 44.6 40.9996 40.1 43.2996 35.3C43.3996 35.1 43.4996 35 43.7996 35H52.0996C52.3996 35 52.4996 35.1 52.5996 35.3C55.4996 41.4 58.3996 47.4 61.2996 53.4C61.5996 53.8 62.1996 53.8 62.3996 53.4Z" fill="#D1050C"/>
<path d="M41.3996 68.7C36.0996 57.6 30.6996 46.3 25.2996 35.2C25.1996 35 24.9996 34.9 24.7996 34.9C20.2996 34.9 15.8996 34.9 11.3996 34.9C10.9996 34.9 10.6996 35.3 10.8996 35.7C17.1996 48.8 23.2996 61.8 29.5996 74.9C29.6996 75.1 29.8996 75.2 30.0996 75.2C32.7996 75.2 35.4996 75.2 38.1996 75.2C38.3996 75.2 38.5996 75.1 38.6996 74.9C39.6996 72.9 40.3996 71.2 41.3996 69.2C41.4996 69 41.4996 68.9 41.3996 68.7Z" fill="#525D5A"/>
<defs>
<radialGradient id="paint0_radial_554_552" cx="0" cy="0" r="1" gradientUnits="userSpaceOnUse" gradientTransform="translate(35.1947 23.2969) rotate(-46.7384) scale(68.5159)">
<stop stop-color="white"/>
<stop offset="0.065" stop-color="white"/>
<stop offset="0.2415" stop-color="#F1F2F2"/>
<stop offset="0.4396" stop-color="#DDDEDE"/>
<stop offset="1" stop-color="#A5ACAB"/>
</radialGradient>
<radialGradient id="paint1_radial_554_552" cx="0" cy="0" r="1" gradientUnits="userSpaceOnUse" gradientTransform="translate(34.3541 9.76615) rotate(-40.0023) scale(102.116)">
<stop stop-color="#DDDEDE"/>
<stop offset="0.1208" stop-color="#B0B5B4"/>
<stop offset="0.2317" stop-color="#8F9695"/>
<stop offset="0.3234" stop-color="#7A8382"/>
<stop offset="0.3846" stop-color="#737C7B"/>
<stop offset="0.5219" stop-color="#5A6362"/>
<stop offset="0.6666" stop-color="#464F4D"/>
<stop offset="0.7637" stop-color="#3F4846"/>
<stop offset="0.8621" stop-color="#394240"/>
<stop offset="0.9937" stop-color="#2A3130"/>
<stop offset="1" stop-color="#29302F"/>
</radialGradient>
<linearGradient id="paint2_linear_554_552" x1="56.2972" y1="91.4998" x2="41.2091" y2="5.93162" gradientUnits="userSpaceOnUse">
<stop stop-color="#DDDEDE"/>
<stop offset="0.0479197" stop-color="#C5C7C7"/>
<stop offset="0.1422" stop-color="#9C9F9F"/>
<stop offset="0.2421" stop-color="#787D7C"/>
<stop offset="0.3469" stop-color="#5B6160"/>
<stop offset="0.4582" stop-color="#454B4A"/>
<stop offset="0.5791" stop-color="#353C3B"/>
<stop offset="0.7165" stop-color="#2C3332"/>
<stop offset="0.9066" stop-color="#29302F"/>
<stop offset="1" stop-color="#29302F"/>
</linearGradient>
<radialGradient id="paint3_radial_554_552" cx="0" cy="0" r="1" gradientUnits="userSpaceOnUse" gradientTransform="translate(34.9803 9.57842) rotate(-39.9583) scale(106.402 106.373)">
<stop stop-color="#DDDEDE"/>
<stop offset="0.0384615" stop-color="#DDDEDE"/>
<stop offset="0.511" stop-color="#9DA9AB"/>
<stop offset="0.8422" stop-color="#E3E6E7"/>
<stop offset="1" stop-color="white"/>
</radialGradient>
</defs>
</svg>
