<svg width="188" height="105" viewBox="0 0 188 105" fill="none" xmlns="http://www.w3.org/2000/svg">
<path d="M152.157 65.306L166.138 0H141.179L136.488 25.4536H119.786L99.8939 71.9016H99.331V47.7486H82.8169C81.3157 44.5902 78.1255 42.6393 72.0265 42.2678L72.2142 41.3388C83.8491 39.4809 87.6022 32.5137 89.948 21.7377C93.795 3.15847 84.412 0 67.4289 0H22.203L4 85H49.6012C66.3029 85 76.3427 82.5847 81.4095 66.235V84.9071L113.593 85L133.86 39.5738L125.509 85H184.716L188 65.306H152.157ZM60.5793 57.7814C59.078 64.6557 55.6063 66.4208 48.1938 66.4208H30.9291L34.4947 49.7923H52.2285C59.641 49.7923 62.0806 50.8142 60.5793 57.7814ZM66.1152 25.8251C64.614 32.6066 62.4559 34 54.3865 34H37.9663L41.2504 18.5792H60.4855C66.7721 18.765 67.2412 20.7158 66.1152 25.8251Z" fill="#597F97"/>
<path d="M2.25231 95L0 105H61V95H2.25231Z" fill="#A40B1E"/>
<path d="M65 95.0909H67.9912L69.3421 100.818C69.4386 101.182 69.4386 101.545 69.5351 101.909C69.7281 101.273 69.921 100.909 70.0175 100.727L72.8158 95H76L70.4035 105H67.8947L65 95.0909Z" fill="#A40B1E"/>
<path d="M78.7368 95H81.9825L84 105H81.3684L81.0175 103.091H77.6842L76.807 105H74L78.7368 95ZM80.6667 100.909L80.2281 98.5454C80.1404 98.1818 80.1403 97.8182 80.0526 97.4545C79.8772 98.0909 79.7018 98.4545 79.614 98.6364L78.5614 100.909H80.6667Z" fill="#A40B1E"/>
<path d="M86.5848 95.0909H89.7542L91.8983 100C92.178 100.545 92.3644 101.091 92.4576 101.636V101.364C92.4576 100.909 92.5508 100.455 92.5508 99.9091L93.2966 95H96L94.4153 105H91.4322L89.1017 99.9091C88.822 99.3636 88.6356 98.8182 88.5424 98.2727V98.5454C88.5424 99 88.4492 99.4545 88.4492 99.9091L87.7034 105H85L86.5848 95.0909Z" fill="#A40B1E"/>
<path d="M102.7 95H105.7L104.4 102.636H108L107.6 105H101L102.7 95Z" fill="#A40B1E"/>
<path d="M114.862 102.818L114.512 105H109L110.487 95H116L115.65 97.2727H112.675L112.412 98.9091H115.212L114.862 101.091H112.062L111.8 102.727L114.862 102.818Z" fill="#A40B1E"/>
<path d="M118.585 95.0909H121.754L123.898 100C124.178 100.545 124.364 101.091 124.458 101.636V101.364C124.458 100.909 124.551 100.455 124.551 99.9091L125.297 95H128L126.415 105H123.432L121.102 99.9091C120.822 99.3636 120.636 98.8182 120.542 98.2727V98.5454C120.542 99 120.542 99.4545 120.449 99.9091L119.703 105H117L118.585 95.0909Z" fill="#A40B1E"/>
<path d="M139 98.9796C138.913 102.802 137 105 133.957 105C130.913 105 129 102.993 129 100.031C129 98.4062 129.522 96.7816 130.565 95.6349C131.609 94.4881 133 93.9147 134.478 94.0103C136.217 93.9147 137.783 94.8703 138.652 96.4949L136.652 98.0239C136.217 97.1639 135.435 96.5905 134.478 96.5905C132.913 96.5905 131.696 98.0239 131.696 99.744C131.696 99.8396 131.696 99.8396 131.696 99.9352C131.609 101.273 132.478 102.42 133.696 102.611C133.783 102.611 133.87 102.611 133.957 102.611C134.391 102.611 134.913 102.515 135.261 102.229C135.609 101.942 135.87 101.655 135.957 101.177H133.87L134.217 98.9796H139Z" fill="#A40B1E"/>
<path d="M145.862 102.818L145.512 105H140L141.487 95H147L146.65 97.2727H143.675L143.412 98.9091H146.212L145.862 101.091H143.062L142.8 102.727L145.862 102.818Z" fill="#A40B1E"/>
<path d="M148 105L149.626 95.0236H152.4C153.452 94.9329 154.408 95.1143 155.365 95.3864C156.417 95.8398 157.087 96.8375 156.991 97.9258C156.991 99.5583 155.748 100.919 154.026 101.1L156.608 105H153.356L151.348 101.191L150.678 105H148ZM152.591 99.5583C153.739 99.5583 154.313 99.0142 154.313 98.1072C154.313 97.2003 153.739 96.9282 152.591 96.9282H152.209L151.73 99.5583H152.591Z" fill="#A40B1E"/>
<path d="M158.809 95H162L160.191 105H157L158.809 95Z" fill="#A40B1E"/>
<path d="M171.621 97.7025C170.863 97.0393 169.821 96.6604 168.874 96.6604C167.263 96.6604 165.842 97.9867 165.937 99.6918C165.937 99.7865 165.937 99.8813 165.937 99.8813C165.842 101.208 166.789 102.439 168.116 102.534C168.305 102.534 168.495 102.534 168.589 102.534C169.442 102.534 170.2 102.344 170.958 101.965L170.484 104.618C169.632 104.902 168.779 104.997 167.926 104.997C165.368 105.091 163.095 103.102 163 100.544C163 100.355 163 100.165 163 99.8813C163 98.4603 163.474 97.0393 164.326 95.9973C165.463 94.6711 167.168 93.9132 168.874 94.0079C169.916 94.0079 171.053 94.2921 172 94.7658L171.621 97.7025Z" fill="#A40B1E"/>
<path d="M173.612 95H176.457L175.793 98.9091H179.491L180.155 95H183L181.293 105H178.448L179.112 100.909H175.509L174.845 105H172L173.612 95Z" fill="#A40B1E"/>
</svg>
