<svg width="404" height="79" viewBox="0 0 404 79" fill="none" xmlns="http://www.w3.org/2000/svg">
<path d="M193.6 57.2C193.6 57.44 193.44 57.6 193.2 57.6H183.68C183.44 57.6 183.28 57.44 183.28 57.2V28.32C183.28 28.08 183.44 27.92 183.68 27.92H193.2C193.44 27.92 193.6 28.08 193.6 28.32V57.2Z" fill="#525D5A"/>
<path d="M217.36 28.4001C214.64 27.8401 208.32 27.9201 208.08 27.9201H199.28C199.04 27.9201 198.88 28.0801 198.88 28.3201V57.2001C198.88 57.4401 199.04 57.6001 199.28 57.6001C206.24 57.6001 201.2 57.6001 208.08 57.6001C211.92 57.6001 215.76 57.6001 216.72 57.5201C223.68 56.8001 227.76 51.3601 227.76 43.3601C227.76 35.4401 224.72 30.0001 217.36 28.4001ZM210.72 50.5601C210.4 50.5601 209.36 50.5601 208.8 50.5601C208.56 50.5601 208.48 50.5601 208.48 50.3201C208.48 46.0001 208.48 39.3601 208.48 35.0401C208.48 34.9601 208.64 34.9601 208.88 34.9601C209.52 34.9601 210.56 34.9601 211.28 34.9601C214.96 34.9601 218.8 36.8801 218.8 42.8801C218.8 48.6401 215.92 50.5601 210.72 50.5601Z" fill="#525D5A"/>
<path d="M333.68 57.04C329.6 47.44 324.8 37.76 320.64 28.16C320.56 28 320.48 27.92 320.24 27.92H320.16H309.52C309.36 27.92 309.2 28 309.12 28.16C305.04 37.76 300.24 47.44 296.08 57.04C296 57.28 296.16 57.6 296.48 57.6H305.28C305.44 57.6 305.6 57.52 305.68 57.36C306.24 55.92 306.88 54.48 307.44 53.04C307.52 52.88 307.6 52.8 307.84 52.8H321.92C322.08 52.8 322.24 52.88 322.32 53.04C322.88 54.48 323.52 55.92 324.08 57.36C324.16 57.52 324.24 57.6 324.48 57.6H333.28C333.6 57.6 333.76 57.36 333.68 57.04ZM318.64 46.08H311.2C310.88 46.08 310.72 45.76 310.8 45.52C312.08 42.8 313.36 40 314.64 37.28C314.72 37.12 314.72 37.04 314.88 37.04C315.12 37.04 315.12 37.12 315.2 37.28C316.48 40 317.76 42.8 319.04 45.52C319.12 45.76 318.88 46.08 318.64 46.08Z" fill="#525D5A"/>
<path d="M380.4 27.92H372.64C372.4 27.92 372.24 28.08 372.24 28.32V57.2C372.24 57.44 372.4 57.6 372.64 57.6H381.44C381.68 57.6 381.84 57.44 381.84 57.2C381.76 52.64 381.68 48 381.6 43.44C381.6 43.04 382.08 42.88 382.32 43.2C386.72 48 391.12 52.72 395.52 57.52C395.6 57.6 395.68 57.68 395.84 57.68H403.6C403.84 57.68 404 57.52 404 57.28V28.4C404 28.16 403.84 28 403.6 28H394.88C394.64 28 394.48 28.16 394.48 28.4C394.56 32.96 394.56 37.6 394.64 42.16C394.64 42.56 394.16 42.72 393.92 42.4C389.52 37.6 385.12 32.88 380.72 28.0801C380.64 28.0001 380.56 27.92 380.4 27.92Z" fill="#525D5A"/>
<path d="M293.84 28.3201C293.84 28.0801 293.68 27.9201 293.44 27.9201H285.36C284.96 27.9201 285.04 27.9201 284.24 29.0401C283.92 29.4401 279.36 35.7601 276.48 39.6001C276.32 39.8401 276.24 39.9201 276 39.6001C272.72 35.2001 268.64 29.3601 268.32 28.9601C267.6 28.0001 267.6 27.8401 267.36 27.8401H259.2C258.96 27.8401 258.8 28.0001 258.8 28.2401V57.2001C258.8 57.4401 258.96 57.6001 259.2 57.6001C266.16 57.6001 261.12 57.6001 268.08 57.6001C268.32 57.6001 268.48 57.4401 268.48 57.2001C268.48 57.2001 268.48 46.4001 268.48 42.2401C268.48 42.0001 268.72 42.0001 268.88 42.1601C269.36 42.8801 275.28 50.9601 275.92 51.8401C276.24 52.2401 276.48 52.2401 276.72 51.8401C277.44 50.8801 282.96 43.3601 283.84 42.1601C284 41.9201 284.24 42.0801 284.24 42.4001C284.24 42.8001 284.24 57.2001 284.24 57.2001C284.24 57.4401 284.4 57.6001 284.64 57.6001C285.84 57.6001 291.2 57.6001 293.52 57.6001C293.76 57.6001 293.92 57.4401 293.92 57.2001C293.92 55.2801 293.84 30.3201 293.84 28.3201Z" fill="#525D5A"/>
<path d="M231.2 57.2V28.32C231.2 28.08 231.36 27.92 231.6 27.92H253.92C254.16 27.92 254.32 28.08 254.32 28.32V34.16C254.32 34.4 254.16 34.56 253.92 34.56H241.44C241.2 34.56 241.04 34.72 241.04 34.96V39.44C241.04 39.68 241.2 39.84 241.44 39.84H252.64C252.88 39.84 253.04 40 253.04 40.24V45.68C253.04 45.92 252.88 46.08 252.64 46.08H241.44C241.2 46.08 241.04 46.24 241.04 46.48V50.56C241.04 50.8 241.2 50.96 241.44 50.96H254.08C254.32 50.96 254.48 51.12 254.48 51.36V57.2C254.48 57.44 254.32 57.6 254.08 57.6H231.6C231.36 57.6 231.2 57.44 231.2 57.2Z" fill="#525D5A"/>
<path d="M344.08 27.92H336.32C336.08 27.92 335.92 28.08 335.92 28.32V57.2C335.92 57.44 336.08 57.6 336.32 57.6H345.12C345.36 57.6 345.52 57.44 345.52 57.2C345.44 52.64 345.36 48 345.28 43.44C345.28 43.04 345.76 42.88 346 43.2C350.4 48 354.8 52.72 359.2 57.52C359.28 57.6 359.36 57.68 359.52 57.68H367.28C367.52 57.68 367.68 57.52 367.68 57.28V28.4C367.68 28.16 367.52 28 367.28 28H358.56C358.32 28 358.16 28.16 358.16 28.4C358.24 32.96 358.24 37.6 358.32 42.16C358.32 42.56 357.84 42.72 357.6 42.4C353.2 37.6 348.8 32.88 344.4 28.0801C344.32 28.0001 344.24 27.92 344.08 27.92Z" fill="#525D5A"/>
<path d="M155.6 57.2V28.32C155.6 28.08 155.76 27.92 156 27.92H178.32C178.56 27.92 178.72 28.08 178.72 28.32V34.16C178.72 34.4 178.56 34.56 178.32 34.56H165.84C165.6 34.56 165.44 34.72 165.44 34.96V39.44C165.44 39.68 165.6 39.84 165.84 39.84H177.04C177.28 39.84 177.44 40 177.44 40.24V45.68C177.44 45.92 177.28 46.08 177.04 46.08H165.84C165.6 46.08 165.44 46.24 165.44 46.48V50.56C165.44 50.8 165.6 50.96 165.84 50.96H178.48C178.72 50.96 178.88 51.12 178.88 51.36V57.2C178.88 57.44 178.72 57.6 178.48 57.6H156C155.76 57.6 155.6 57.44 155.6 57.2Z" fill="#525D5A"/>
<path d="M152.88 27.92H142.88C142.72 27.92 142.56 28 142.48 28.16C140.32 32.64 138.24 37.04 136.08 41.52C135.92 41.84 135.52 41.84 135.36 41.52C133.28 37.04 131.12 32.64 129.04 28.16C128.96 28 128.88 27.92 128.64 27.92H122.48C122.32 27.92 122.16 28 122.08 28.16C120.4 31.68 117.36 38 115.76 41.52C115.68 41.76 115.28 41.84 115.12 41.52C112.88 37.04 110.96 32.64 108.72 28.16C108.64 28 108.56 27.92 108.32 27.92H98.5602C98.2402 27.92 98.0802 28.2401 98.1602 28.4801C102.8 38.08 107.36 47.76 112 57.36C112.08 57.52 112.16 57.6 112.4 57.6H118.32C118.48 57.6 118.64 57.52 118.72 57.36C119.44 55.92 124.64 45.04 125.44 43.36C125.6 43.04 126 43.04 126.16 43.36C128.4 48 130.64 52.72 132.8 57.36C132.88 57.52 132.96 57.6 133.2 57.6H139.12C139.28 57.6 139.44 57.52 139.52 57.36C144.16 47.76 148.72 38.08 153.36 28.4801C153.44 28.2401 153.2 27.92 152.88 27.92Z" fill="#525D5A"/>
<mask id="mask0_611_1341" style="mask-type:luminance" maskUnits="userSpaceOnUse" x="2" y="2" width="73" height="73">
<path d="M11.9204 13.92C-1.83963 28.48 -1.11963 51.44 13.4404 65.12C20.2404 71.52 28.8804 74.8 37.5204 74.96H39.0404C48.4004 74.8 57.7604 70.96 64.7204 63.6C78.4004 49.04 77.7604 26.16 63.2004 12.4001C56.1604 5.84006 47.2804 2.56006 38.4004 2.56006C28.7204 2.56006 19.0404 6.40005 11.9204 13.92Z" fill="white"/>
</mask>
<g mask="url(#mask0_611_1341)">
<path d="M-37.9996 40.96L35.9204 -37.5199L114.64 36.64L40.7204 115.12L-37.9996 40.96Z" fill="url(#paint0_radial_611_1341)"/>
</g>
<mask id="mask1_611_1341" style="mask-type:luminance" maskUnits="userSpaceOnUse" x="0" y="0" width="79" height="79">
<path d="M36.8 73.5199C18.8 72.3199 4.56 57.3599 4.56 39.12C4.56 20.08 20.08 4.64 39.12 4.64C58.16 4.64 73.68 20.08 73.68 39.12C73.68 58.1599 58.16 73.5999 39.12 73.5999C38.32 73.5999 37.52 73.5199 36.8 73.5199ZM0 37.28V41.12C0.96 61.8399 18.16 78.3999 39.12 78.3999C60.72 78.3999 78.32 60.7999 78.32 39.2C78.32 18.48 62.24 1.52 41.84 0.0800048C40.96 4.88162e-06 40 0 39.12 0C18.16 0 0.96 16.56 0 37.28Z" fill="white"/>
</mask>
<g mask="url(#mask1_611_1341)">
<path d="M-38.56 32.4L45.92 -38.5599L116.88 46L32.32 116.96L-38.56 32.4Z" fill="url(#paint1_radial_611_1341)"/>
</g>
<mask id="mask2_611_1341" style="mask-type:luminance" maskUnits="userSpaceOnUse" x="4" y="4" width="70" height="70">
<path d="M15.2 62.64C9.12003 56.5601 5.36003 48.2401 5.36003 38.9601C5.36003 29.6801 9.12003 21.3601 15.2 15.2801C21.28 9.20011 29.76 5.5201 39.04 5.5201C48.32 5.5201 56.8 9.28011 62.88 15.2801C68.96 21.3601 72.72 29.6801 72.72 38.9601C72.72 48.1601 68.96 56.5601 62.88 62.64C56.8 68.72 48.32 72.4 39.04 72.4C29.68 72.4 21.28 68.64 15.2 62.64ZM4.00003 38.9601C4.00003 58.1601 19.68 73.68 38.96 73.68C58.32 73.68 73.92 58.1601 73.92 38.9601C73.92 19.7601 58.24 4.24011 38.96 4.24011C19.68 4.24011 4.00003 19.7601 4.00003 38.9601Z" fill="white"/>
</mask>
<g mask="url(#mask2_611_1341)">
<path d="M6.16003 85.68L-7.83997 6.32009L71.92 -7.75989L85.92 71.6L6.16003 85.68Z" fill="url(#paint2_linear_611_1341)"/>
</g>
<mask id="mask3_611_1341" style="mask-type:luminance" maskUnits="userSpaceOnUse" x="3" y="3" width="72" height="71">
<path d="M14.3197 63.28C7.99972 57.04 4.07972 48.4 4.07972 38.8001C4.07972 29.2801 7.99972 20.5601 14.3197 14.3201C20.6397 8.08008 29.3597 4.16008 39.0397 4.16008C48.7197 4.16008 57.4397 8.00008 63.7597 14.3201C70.0797 20.5601 73.9997 29.2001 73.9997 38.8001C73.9997 48.32 70.0797 57.04 63.7597 63.28C57.4397 69.52 48.7197 73.44 39.0397 73.44C29.3597 73.44 20.6397 69.6 14.3197 63.28ZM13.9997 14.0801C7.59972 20.4001 3.67972 29.2001 3.67972 38.8801C3.67972 48.56 7.59972 57.28 13.9997 63.68C20.3997 70 29.1997 73.92 38.9597 73.92C48.7197 73.92 57.5197 70 63.9197 63.68C70.3197 57.36 74.2397 48.56 74.2397 38.8801C74.2397 29.2001 70.3197 20.4801 63.9197 14.0801C57.5197 7.68009 48.7197 3.84009 38.9597 3.84009C29.2797 3.84009 20.3997 7.68009 13.9997 14.0801Z" fill="white"/>
</mask>
<g mask="url(#mask3_611_1341)">
<path d="M-30.8803 32.7201L45.1197 -30.9598L108.88 44.8801L32.8797 108.64L-30.8803 32.7201Z" fill="url(#paint3_radial_611_1341)"/>
</g>
<path d="M50.7997 42.24C53.1197 37.36 55.1197 33.04 57.4397 28.16C57.5197 28 57.9997 27.92 58.1597 27.92C61.6797 27.92 65.6797 27.92 69.1997 27.92C69.5197 27.92 69.7597 28.2401 69.5997 28.4801C64.5597 38.96 59.3597 49.84 54.3197 60.32C54.2397 60.48 54.0797 60.56 53.9197 60.56H46.7997C46.5597 60.56 46.4797 60.48 46.3997 60.32C43.9997 55.2 42.1597 50.08 39.7597 44.96C39.5997 44.64 39.2797 44.88 39.1197 45.2C38.2397 47.04 37.2797 49.04 36.3197 50.96C36.0797 51.36 35.0397 51.52 34.7197 50.8C33.1197 47.28 32.3997 43.44 30.5597 40C30.4797 39.84 30.4797 39.76 30.5597 39.6C32.3197 35.76 33.7597 32 35.5997 28.16C35.6797 28 35.7597 27.92 35.9997 27.92C38.3197 27.92 40.7197 27.92 42.9597 27.92C43.1997 27.92 43.2797 28 43.3597 28.16C45.6797 33.04 47.7597 37.36 50.0797 42.24C50.2397 42.64 50.6397 42.64 50.7997 42.24Z" fill="#2A302F"/>
<path d="M34.2397 55.04C29.9997 46.24 25.5997 37.04 21.4397 28.16C21.3597 28 21.1997 27.92 21.0397 27.92C17.5197 27.92 13.5197 27.92 9.99971 27.92C9.59971 27.92 9.19971 28.3201 9.27971 28.6401C14.3197 39.04 18.8797 49.84 23.8397 60.24C23.9197 60.4 23.9997 60.64 24.2397 60.64C26.5597 60.64 29.4397 60.64 31.5197 60.64C31.6797 60.64 31.8397 60.56 31.9197 60.4C32.9597 58.16 33.8397 56.4 34.3197 55.44C34.3197 55.28 34.3197 55.2 34.2397 55.04Z" fill="#2A302F"/>
<path d="M49.9197 42.72C52.2397 37.92 54.4797 33.04 56.7997 28.24C56.8797 28.08 56.9597 28 57.1997 28H67.9997C68.3197 28 68.5597 28.32 68.3997 28.64C63.4397 39.12 58.3997 49.52 53.4397 60C53.3597 60.16 53.2797 60.24 53.0397 60.24H46.5597C46.3197 60.24 46.2397 60.16 46.1597 60C43.7597 54.96 41.3597 49.92 38.9597 44.8C38.7997 44.48 38.3197 44.48 38.1597 44.8C37.2797 46.64 36.2397 48.8 35.2797 50.8C35.1197 51.12 34.7197 51.12 34.5597 50.8C32.7997 47.12 31.0397 43.52 29.2797 39.92C29.1997 39.76 29.1997 39.68 29.2797 39.52C31.0397 35.68 32.7997 32.08 34.6397 28.24C34.7197 28.08 34.7997 28 35.0397 28H41.6797C41.9197 28 41.9997 28.08 42.0797 28.24C44.3997 33.12 46.7197 37.92 49.0397 42.72C49.2797 43.04 49.7597 43.04 49.9197 42.72Z" fill="#D1050C"/>
<path d="M33.1197 54.96C28.8797 46.08 24.5597 37.04 20.2397 28.16C20.1597 28 19.9997 27.92 19.8397 27.92C16.2397 27.92 12.7197 27.92 9.11969 27.92C8.79969 27.92 8.55969 28.24 8.71969 28.56C13.7597 39.04 18.6397 49.44 23.6797 59.92C23.7597 60.08 23.9197 60.16 24.0797 60.16C26.2397 60.16 28.3997 60.16 30.5597 60.16C30.7197 60.16 30.8797 60.08 30.9597 59.92C31.7597 58.32 32.3197 56.96 33.1197 55.36C33.1997 55.2 33.1997 55.12 33.1197 54.96Z" fill="#525D5A"/>
<defs>
<radialGradient id="paint0_radial_611_1341" cx="0" cy="0" r="1" gradientUnits="userSpaceOnUse" gradientTransform="translate(28.1558 18.6376) rotate(-46.7383) scale(54.8127 54.8127)">
<stop stop-color="white"/>
<stop offset="0.065" stop-color="white"/>
<stop offset="0.2415" stop-color="#F1F2F2"/>
<stop offset="0.4396" stop-color="#DDDEDE"/>
<stop offset="1" stop-color="#A5ACAB"/>
</radialGradient>
<radialGradient id="paint1_radial_611_1341" cx="0" cy="0" r="1" gradientUnits="userSpaceOnUse" gradientTransform="translate(27.4833 7.8129) rotate(-40.0022) scale(81.6927 81.6927)">
<stop stop-color="#DDDEDE"/>
<stop offset="0.1208" stop-color="#B0B5B4"/>
<stop offset="0.2317" stop-color="#8F9695"/>
<stop offset="0.3234" stop-color="#7A8382"/>
<stop offset="0.3846" stop-color="#737C7B"/>
<stop offset="0.5219" stop-color="#5A6362"/>
<stop offset="0.6666" stop-color="#464F4D"/>
<stop offset="0.7637" stop-color="#3F4846"/>
<stop offset="0.8621" stop-color="#394240"/>
<stop offset="0.9937" stop-color="#2A3130"/>
<stop offset="1" stop-color="#29302F"/>
</radialGradient>
<linearGradient id="paint2_linear_611_1341" x1="45.0378" y1="73.1998" x2="32.9673" y2="4.74535" gradientUnits="userSpaceOnUse">
<stop stop-color="#DDDEDE"/>
<stop offset="0.0479197" stop-color="#C5C7C7"/>
<stop offset="0.1422" stop-color="#9C9F9F"/>
<stop offset="0.2421" stop-color="#787D7C"/>
<stop offset="0.3469" stop-color="#5B6160"/>
<stop offset="0.4582" stop-color="#454B4A"/>
<stop offset="0.5791" stop-color="#353C3B"/>
<stop offset="0.7165" stop-color="#2C3332"/>
<stop offset="0.9066" stop-color="#29302F"/>
<stop offset="1" stop-color="#29302F"/>
</linearGradient>
<radialGradient id="paint3_radial_611_1341" cx="0" cy="0" r="1" gradientUnits="userSpaceOnUse" gradientTransform="translate(27.9842 7.66282) rotate(-39.9583) scale(85.1219 85.0986)">
<stop stop-color="#DDDEDE"/>
<stop offset="0.0384615" stop-color="#DDDEDE"/>
<stop offset="0.511" stop-color="#9DA9AB"/>
<stop offset="0.8422" stop-color="#E3E6E7"/>
<stop offset="1" stop-color="white"/>
</radialGradient>
</defs>
</svg>
