<svg width="428" height="98" viewBox="0 0 428 98" fill="none" xmlns="http://www.w3.org/2000/svg">
<mask id="mask0_554_627" style="mask-type:luminance" maskUnits="userSpaceOnUse" x="2" y="3" width="92" height="91">
<path d="M14.9004 17.3999C-2.29956 35.5999 -1.39956 64.2999 16.8004 81.3999C25.3004 89.3999 36.1004 93.5 46.9004 93.7H48.8004C60.5004 93.5 72.2004 88.7 80.9004 79.5C98.0004 61.3 97.2004 32.7 79.0004 15.5C70.2004 7.29995 59.1004 3.19995 48.0004 3.19995C35.9004 3.19995 23.8004 7.99995 14.9004 17.3999Z" fill="white"/>
</mask>
<g mask="url(#mask0_554_627)">
<path d="M-47.4996 51.2L44.9004 -46.9L143.3 45.8L50.9004 143.9L-47.4996 51.2Z" fill="url(#paint0_radial_554_627)"/>
</g>
<mask id="mask1_554_627" style="mask-type:luminance" maskUnits="userSpaceOnUse" x="0" y="0" width="98" height="98">
<path d="M46 91.9C23.5 90.4 5.7 71.7 5.7 48.9C5.7 25.1 25.1 5.8 48.9 5.8C72.7 5.8 92.1 25.1 92.1 48.9C92.1 72.7 72.7 92 48.9 92C47.9 92 46.9 91.9 46 91.9ZM0 46.6V51.4C1.2 77.3 22.7 98 48.9 98C75.9 98 97.9 76 97.9 49C97.9 23.1 77.8 1.90001 52.3 0.100006C51.2 6.10203e-06 50 0 48.9 0C22.7 0 1.2 20.7 0 46.6Z" fill="white"/>
</mask>
<g mask="url(#mask1_554_627)">
<path d="M-48.2 40.5L57.4 -48.2L146.1 57.5L40.4 146.2L-48.2 40.5Z" fill="url(#paint1_radial_554_627)"/>
</g>
<mask id="mask2_554_627" style="mask-type:luminance" maskUnits="userSpaceOnUse" x="5" y="5" width="88" height="88">
<path d="M19 78.3C11.4 70.7 6.7 60.3 6.7 48.7C6.7 37.1 11.4 26.7001 19 19.1001C26.6 11.5001 37.2 6.90004 48.8 6.90004C60.4 6.90004 71 11.6001 78.6 19.1001C86.2 26.7001 90.9 37.1 90.9 48.7C90.9 60.2 86.2 70.7 78.6 78.3C71 85.9 60.4 90.5 48.8 90.5C37.1 90.5 26.6 85.8 19 78.3ZM5 48.7C5 72.7 24.6 92.1001 48.7 92.1001C72.9 92.1001 92.4 72.7 92.4 48.7C92.4 24.7 72.8 5.30005 48.7 5.30005C24.6 5.30005 5 24.7 5 48.7Z" fill="white"/>
</mask>
<g mask="url(#mask2_554_627)">
<path d="M7.70001 107.1L-9.79999 7.90004L89.9 -9.69995L107.4 89.5L7.70001 107.1Z" fill="url(#paint2_linear_554_627)"/>
</g>
<mask id="mask3_554_627" style="mask-type:luminance" maskUnits="userSpaceOnUse" x="4" y="4" width="89" height="89">
<path d="M17.8996 79.1001C9.99961 71.3001 5.09961 60.5 5.09961 48.5C5.09961 36.6 9.99961 25.7 17.8996 17.9C25.7996 10.1 36.6996 5.20004 48.7996 5.20004C60.8996 5.20004 71.7996 10 79.6996 17.9C87.5996 25.7 92.4996 36.5 92.4996 48.5C92.4996 60.4 87.5996 71.3001 79.6996 79.1001C71.7996 86.9001 60.8996 91.8 48.7996 91.8C36.6996 91.8 25.7996 87.0001 17.8996 79.1001ZM17.4996 17.6001C9.49961 25.5001 4.59961 36.5001 4.59961 48.6001C4.59961 60.7001 9.49961 71.6001 17.4996 79.6001C25.4996 87.5001 36.4996 92.4 48.6996 92.4C60.8996 92.4 71.8996 87.5001 79.8996 79.6001C87.8996 71.7001 92.7996 60.7001 92.7996 48.6001C92.7996 36.5001 87.8996 25.6001 79.8996 17.6001C71.8996 9.60005 60.8996 4.80005 48.6996 4.80005C36.5996 4.80005 25.4996 9.60005 17.4996 17.6001Z" fill="white"/>
</mask>
<g mask="url(#mask3_554_627)">
<path d="M-38.6004 40.9L56.3996 -38.7L136.1 56.1001L41.0996 135.8L-38.6004 40.9Z" fill="url(#paint3_radial_554_627)"/>
</g>
<path d="M63.4996 52.8C66.3996 46.7 68.8996 41.3 71.7996 35.2C71.8996 35 72.4996 34.9 72.6996 34.9C77.0996 34.9 82.0996 34.9 86.4996 34.9C86.8996 34.9 87.1996 35.3 86.9996 35.6C80.6996 48.7 74.1996 62.3 67.8996 75.4C67.7996 75.6 67.5996 75.7 67.3996 75.7H58.4996C58.1996 75.7 58.0996 75.6 57.9996 75.4C54.9996 69 52.6996 62.6 49.6996 56.2C49.4996 55.8 49.0996 56.1 48.8996 56.5C47.7996 58.8 46.5996 61.3 45.3996 63.7C45.0996 64.2 43.7996 64.4 43.3996 63.5C41.3996 59.1 40.4996 54.3 38.1996 50C38.0996 49.8 38.0996 49.7 38.1996 49.5C40.3996 44.7 42.1996 40 44.4996 35.2C44.5996 35 44.6996 34.9 44.9996 34.9C47.8996 34.9 50.8996 34.9 53.6996 34.9C53.9996 34.9 54.0996 35 54.1996 35.2C57.0996 41.3 59.6996 46.7 62.5996 52.8C62.7996 53.3 63.2996 53.3 63.4996 52.8Z" fill="#2A302F"/>
<path d="M42.7996 68.8C37.4996 57.8 31.9996 46.3 26.7996 35.2C26.6996 35 26.4996 34.9 26.2996 34.9C21.8996 34.9 16.8996 34.9 12.4996 34.9C11.9996 34.9 11.4996 35.4 11.5996 35.8C17.8996 48.8 23.5996 62.3 29.7996 75.3C29.8996 75.5 29.9996 75.8 30.2996 75.8C33.1996 75.8 36.7996 75.8 39.3996 75.8C39.5996 75.8 39.7996 75.7 39.8996 75.5C41.1996 72.7 42.2996 70.5 42.8996 69.3C42.8996 69.1 42.8996 69 42.7996 68.8Z" fill="#2A302F"/>
<path d="M62.3996 53.4C65.2996 47.4 68.0996 41.3 70.9996 35.3C71.0996 35.1 71.1996 35 71.4996 35H84.9996C85.3996 35 85.6996 35.4 85.4996 35.8C79.2996 48.9 72.9996 61.9 66.7996 75C66.6996 75.2 66.5996 75.3 66.2996 75.3H58.1996C57.8996 75.3 57.7996 75.2 57.6996 75C54.6996 68.7 51.6996 62.4 48.6996 56C48.4996 55.6 47.8996 55.6 47.6996 56C46.5996 58.3 45.2996 61 44.0996 63.5C43.8996 63.9 43.3996 63.9 43.1996 63.5C40.9996 58.9 38.7996 54.4 36.5996 49.9C36.4996 49.7 36.4996 49.6 36.5996 49.4C38.7996 44.6 40.9996 40.1 43.2996 35.3C43.3996 35.1 43.4996 35 43.7996 35H52.0996C52.3996 35 52.4996 35.1 52.5996 35.3C55.4996 41.4 58.3996 47.4 61.2996 53.4C61.5996 53.8 62.1996 53.8 62.3996 53.4Z" fill="#D1050C"/>
<path d="M41.3996 68.7C36.0996 57.6 30.6996 46.3 25.2996 35.2C25.1996 35 24.9996 34.9 24.7996 34.9C20.2996 34.9 15.8996 34.9 11.3996 34.9C10.9996 34.9 10.6996 35.3 10.8996 35.7C17.1996 48.8 23.2996 61.8 29.5996 74.9C29.6996 75.1 29.8996 75.2 30.0996 75.2C32.7996 75.2 35.4996 75.2 38.1996 75.2C38.3996 75.2 38.5996 75.1 38.6996 74.9C39.6996 72.9 40.3996 71.2 41.3996 69.2C41.4996 69 41.4996 68.9 41.3996 68.7Z" fill="#525D5A"/>
<path d="M122.6 26.6991H137.2C137.5 26.6991 137.8 26.9991 137.8 27.2991V45.3991C137.8 45.9991 138.5 46.1991 138.9 45.7991C144.5 39.4991 150.1 33.1991 155.7 26.8991C155.8 26.7991 156 26.6991 156.2 26.6991C161.2 26.6991 166.2 26.6991 171.2 26.6991C171.7 26.6991 172 27.2991 171.7 27.6991C166 34.1991 160.2 40.6991 154.5 47.1991C154.3 47.4991 154.3 47.6991 154.5 47.9991C160.5 55.4991 165.7 63.0991 171.7 70.5991C172 70.9991 171.7 71.5991 171.2 71.5991C165.4 71.5991 160.4 71.5991 154.6 71.5991C154.4 71.5991 154.2 71.4991 154.1 71.3991C149 64.8991 144 58.3991 138.9 51.8991C138.5 51.3991 137.8 51.6991 137.8 52.2991V71.0991C137.8 71.3991 137.5 71.6991 137.2 71.6991H122.6C122.3 71.6991 122 71.3991 122 71.0991V27.4991C122 26.8991 122.3 26.6991 122.6 26.6991Z" fill="#525D5A"/>
<path d="M210.1 51.3991C212.2 50.5991 217.3 47.6991 216.9 39.5991C216.5 29.6991 207.2 26.6991 198.1 26.6991H174.9C174.6 26.6991 174.3 26.9991 174.3 27.2991V36.0991C174.3 36.3991 174.6 36.6991 174.9 36.6991H197.9C197.9 36.6991 202.1 36.6991 202.2 40.5991C202.3 44.9991 198.1 44.6991 198.1 44.6991H174.9C174.6 44.6991 174.3 44.9991 174.3 45.2991V70.8991C174.3 71.1991 174.6 71.4991 174.9 71.4991H188.9C189.2 71.4991 189.5 71.1991 189.5 70.8991V54.6991C189.5 54.3991 189.8 54.0991 190.1 54.0991H193.5C193.7 54.0991 193.9 54.1991 194 54.3991C198.1 59.9991 202.3 65.6991 206.4 71.2991C206.5 71.4991 206.7 71.4991 206.9 71.4991H222.8C223.3 71.4991 223.6 70.8991 223.3 70.4991C218.8 64.3991 214.3 58.3991 209.8 52.2991C209.6 51.9991 209.7 51.5991 210.1 51.3991Z" fill="#525D5A"/>
<path d="M414.5 51.3991C416.6 50.5991 421.7 47.5991 421.3 39.4991C420.9 29.5991 411.6 26.5991 402.4 26.5991H379.2C378.9 26.5991 378.6 26.8991 378.6 27.1991V35.9991C378.6 36.2991 378.9 36.5991 379.2 36.5991H402.3C402.3 36.5991 406.5 36.5991 406.6 40.4991C406.7 44.8991 402.5 44.5991 402.5 44.5991H379.2C378.9 44.5991 378.6 44.8991 378.6 45.1991V70.7991C378.6 71.0991 378.9 71.3991 379.2 71.3991H393.3C393.6 71.3991 393.9 71.0991 393.9 70.7991V54.5991C393.9 54.2991 394.2 53.9991 394.5 53.9991H397.9C398.1 53.9991 398.3 54.0991 398.4 54.2991C402.6 59.8991 406.7 65.5991 410.9 71.1991C411 71.3991 411.2 71.3991 411.4 71.3991H427.3C427.8 71.3991 428.1 70.7991 427.8 70.3991C423.3 64.2991 418.8 58.2991 414.3 52.1991C414 51.9991 414.2 51.4991 414.5 51.3991Z" fill="#525D5A"/>
<path d="M337.6 70.8991V27.1991C337.6 26.8991 337.9 26.5991 338.2 26.5991H372C372.3 26.5991 372.6 26.8991 372.6 27.1991V35.9991C372.6 36.2991 372.3 36.5991 372 36.5991H353.2C352.9 36.5991 352.6 36.8991 352.6 37.1991V43.9991C352.6 44.2991 352.9 44.5991 353.2 44.5991H370.1C370.4 44.5991 370.7 44.8991 370.7 45.1991V53.3991C370.7 53.6991 370.4 53.9991 370.1 53.9991H353.2C352.9 53.9991 352.6 54.2991 352.6 54.5991V60.7991C352.6 61.0991 352.9 61.3991 353.2 61.3991H372.3C372.6 61.3991 372.9 61.6991 372.9 61.9991V70.7991C372.9 71.0991 372.6 71.3991 372.3 71.3991H338.3C337.8 71.4991 337.6 71.1991 337.6 70.8991Z" fill="#525D5A"/>
<path d="M331 27.1991C331 26.8991 330.7 26.5991 330.4 26.5991H318.2C317.6 26.5991 317.8 26.5991 316.5 28.2991C316 28.9991 309.1 38.3991 304.8 44.2991C304.5 44.6991 304.4 44.7991 304.1 44.2991C299.2 37.5991 292.9 28.8991 292.5 28.1991C291.4 26.6991 291.3 26.5991 291 26.5991H278.7C278.4 26.5991 278.1 26.8991 278.1 27.1991V70.8991C278.1 71.1991 278.4 71.4991 278.7 71.4991C289.2 71.4991 281.6 71.4991 292.1 71.4991C292.4 71.4991 292.7 71.2991 292.7 70.8991C292.7 70.8991 292.7 54.5991 292.7 48.2991C292.7 47.8991 293.1 47.8991 293.3 48.1991C294.1 49.1991 303 61.4991 303.9 62.7991C304.3 63.3991 304.7 63.3991 305.2 62.7991C306.3 61.2991 314.7 49.9991 316 48.0991C316.2 47.7991 316.6 47.9991 316.6 48.3991C316.6 48.9991 316.6 70.7991 316.6 70.7991C316.6 71.0991 316.8 71.3991 317.2 71.3991C319 71.3991 327.2 71.3991 330.6 71.3991C331 71.3991 331.2 71.0991 331.2 70.7991C331.1 67.9991 331 30.1991 331 27.1991Z" fill="#525D5A"/>
<path d="M252.8 53.9991H241.6C241.2 53.9991 240.9 53.4991 241 53.0991C242.9 48.9991 244.8 44.7991 246.8 40.5991C246.9 40.3991 246.9 40.1991 247.2 40.1991C247.6 40.1991 247.5 40.3991 247.6 40.5991C249.5 44.7991 251.4 48.8991 253.4 53.0991C253.5 53.5991 253.3 53.9991 252.8 53.9991ZM275.5 70.6991C269.3 56.1991 262 41.5991 255.9 27.0991C255.8 26.7991 255.6 26.6991 255.3 26.6991H255.2H239.1C238.8 26.6991 238.6 26.7991 238.5 27.0991C232.3 41.5991 225 56.1991 218.9 70.6991C218.7 71.0991 219 71.4991 219.5 71.4991H232.8C233.1 71.4991 233.2 71.3991 233.4 71.0991C234.3 68.9991 235.2 66.6991 236.1 64.5991C236.2 64.2991 236.4 64.1991 236.7 64.1991H258C258.3 64.1991 258.4 64.2991 258.6 64.5991C259.5 66.6991 260.4 68.8991 261.3 71.0991C261.4 71.3991 261.6 71.4991 261.9 71.4991H275.2C275.4 71.4991 275.7 71.0991 275.5 70.6991Z" fill="#525D5A"/>
<defs>
<radialGradient id="paint0_radial_554_627" cx="0" cy="0" r="1" gradientUnits="userSpaceOnUse" gradientTransform="translate(35.1947 23.2969) rotate(-46.7384) scale(68.5159)">
<stop stop-color="white"/>
<stop offset="0.065" stop-color="white"/>
<stop offset="0.2415" stop-color="#F1F2F2"/>
<stop offset="0.4396" stop-color="#DDDEDE"/>
<stop offset="1" stop-color="#A5ACAB"/>
</radialGradient>
<radialGradient id="paint1_radial_554_627" cx="0" cy="0" r="1" gradientUnits="userSpaceOnUse" gradientTransform="translate(34.3541 9.76615) rotate(-40.0023) scale(102.116)">
<stop stop-color="#DDDEDE"/>
<stop offset="0.1208" stop-color="#B0B5B4"/>
<stop offset="0.2317" stop-color="#8F9695"/>
<stop offset="0.3234" stop-color="#7A8382"/>
<stop offset="0.3846" stop-color="#737C7B"/>
<stop offset="0.5219" stop-color="#5A6362"/>
<stop offset="0.6666" stop-color="#464F4D"/>
<stop offset="0.7637" stop-color="#3F4846"/>
<stop offset="0.8621" stop-color="#394240"/>
<stop offset="0.9937" stop-color="#2A3130"/>
<stop offset="1" stop-color="#29302F"/>
</radialGradient>
<linearGradient id="paint2_linear_554_627" x1="56.2972" y1="91.4998" x2="41.2091" y2="5.93162" gradientUnits="userSpaceOnUse">
<stop stop-color="#DDDEDE"/>
<stop offset="0.0479197" stop-color="#C5C7C7"/>
<stop offset="0.1422" stop-color="#9C9F9F"/>
<stop offset="0.2421" stop-color="#787D7C"/>
<stop offset="0.3469" stop-color="#5B6160"/>
<stop offset="0.4582" stop-color="#454B4A"/>
<stop offset="0.5791" stop-color="#353C3B"/>
<stop offset="0.7165" stop-color="#2C3332"/>
<stop offset="0.9066" stop-color="#29302F"/>
<stop offset="1" stop-color="#29302F"/>
</linearGradient>
<radialGradient id="paint3_radial_554_627" cx="0" cy="0" r="1" gradientUnits="userSpaceOnUse" gradientTransform="translate(34.9803 9.57842) rotate(-39.9583) scale(106.402 106.373)">
<stop stop-color="#DDDEDE"/>
<stop offset="0.0384615" stop-color="#DDDEDE"/>
<stop offset="0.511" stop-color="#9DA9AB"/>
<stop offset="0.8422" stop-color="#E3E6E7"/>
<stop offset="1" stop-color="white"/>
</radialGradient>
</defs>
</svg>
