<svg width="337" height="98" viewBox="0 0 337 98" fill="none" xmlns="http://www.w3.org/2000/svg">
<mask id="mask0_554_588" style="mask-type:luminance" maskUnits="userSpaceOnUse" x="2" y="3" width="92" height="91">
<path d="M14.9004 17.3999C-2.29956 35.5999 -1.39956 64.2999 16.8004 81.3999C25.3004 89.3999 36.1004 93.5 46.9004 93.7H48.8004C60.5004 93.5 72.2004 88.7 80.9004 79.5C98.0004 61.3 97.2004 32.7 79.0004 15.5C70.2004 7.29995 59.1004 3.19995 48.0004 3.19995C35.9004 3.19995 23.8004 7.99995 14.9004 17.3999Z" fill="white"/>
</mask>
<g mask="url(#mask0_554_588)">
<path d="M-47.4996 51.2L44.9004 -46.9L143.3 45.8L50.9004 143.9L-47.4996 51.2Z" fill="url(#paint0_radial_554_588)"/>
</g>
<mask id="mask1_554_588" style="mask-type:luminance" maskUnits="userSpaceOnUse" x="0" y="0" width="98" height="98">
<path d="M46 91.9C23.5 90.4 5.7 71.7 5.7 48.9C5.7 25.1 25.1 5.8 48.9 5.8C72.7 5.8 92.1 25.1 92.1 48.9C92.1 72.7 72.7 92 48.9 92C47.9 92 46.9 91.9 46 91.9ZM0 46.6V51.4C1.2 77.3 22.7 98 48.9 98C75.9 98 97.9 76 97.9 49C97.9 23.1 77.8 1.90001 52.3 0.100006C51.2 6.10203e-06 50 0 48.9 0C22.7 0 1.2 20.7 0 46.6Z" fill="white"/>
</mask>
<g mask="url(#mask1_554_588)">
<path d="M-48.2 40.5L57.4 -48.2L146.1 57.5L40.4 146.2L-48.2 40.5Z" fill="url(#paint1_radial_554_588)"/>
</g>
<mask id="mask2_554_588" style="mask-type:luminance" maskUnits="userSpaceOnUse" x="5" y="5" width="88" height="88">
<path d="M19 78.3C11.4 70.7 6.7 60.3 6.7 48.7C6.7 37.1 11.4 26.7001 19 19.1001C26.6 11.5001 37.2 6.90004 48.8 6.90004C60.4 6.90004 71 11.6001 78.6 19.1001C86.2 26.7001 90.9 37.1 90.9 48.7C90.9 60.2 86.2 70.7 78.6 78.3C71 85.9 60.4 90.5 48.8 90.5C37.1 90.5 26.6 85.8 19 78.3ZM5 48.7C5 72.7 24.6 92.1001 48.7 92.1001C72.9 92.1001 92.4 72.7 92.4 48.7C92.4 24.7 72.8 5.30005 48.7 5.30005C24.6 5.30005 5 24.7 5 48.7Z" fill="white"/>
</mask>
<g mask="url(#mask2_554_588)">
<path d="M7.70001 107.1L-9.79999 7.90004L89.9 -9.69995L107.4 89.5L7.70001 107.1Z" fill="url(#paint2_linear_554_588)"/>
</g>
<mask id="mask3_554_588" style="mask-type:luminance" maskUnits="userSpaceOnUse" x="4" y="4" width="89" height="89">
<path d="M17.8996 79.1001C9.99961 71.3001 5.09961 60.5 5.09961 48.5C5.09961 36.6 9.99961 25.7 17.8996 17.9C25.7996 10.1 36.6996 5.20004 48.7996 5.20004C60.8996 5.20004 71.7996 10 79.6996 17.9C87.5996 25.7 92.4996 36.5 92.4996 48.5C92.4996 60.4 87.5996 71.3001 79.6996 79.1001C71.7996 86.9001 60.8996 91.8 48.7996 91.8C36.6996 91.8 25.7996 87.0001 17.8996 79.1001ZM17.4996 17.6001C9.49961 25.5001 4.59961 36.5001 4.59961 48.6001C4.59961 60.7001 9.49961 71.6001 17.4996 79.6001C25.4996 87.5001 36.4996 92.4 48.6996 92.4C60.8996 92.4 71.8996 87.5001 79.8996 79.6001C87.8996 71.7001 92.7996 60.7001 92.7996 48.6001C92.7996 36.5001 87.8996 25.6001 79.8996 17.6001C71.8996 9.60005 60.8996 4.80005 48.6996 4.80005C36.5996 4.80005 25.4996 9.60005 17.4996 17.6001Z" fill="white"/>
</mask>
<g mask="url(#mask3_554_588)">
<path d="M-38.6004 40.9L56.3996 -38.7L136.1 56.1001L41.0996 135.8L-38.6004 40.9Z" fill="url(#paint3_radial_554_588)"/>
</g>
<path d="M63.4996 52.8C66.3996 46.7 68.8996 41.3 71.7996 35.2C71.8996 35 72.4996 34.9 72.6996 34.9C77.0996 34.9 82.0996 34.9 86.4996 34.9C86.8996 34.9 87.1996 35.3 86.9996 35.6C80.6996 48.7 74.1996 62.3 67.8996 75.4C67.7996 75.6 67.5996 75.7 67.3996 75.7H58.4996C58.1996 75.7 58.0996 75.6 57.9996 75.4C54.9996 69 52.6996 62.6 49.6996 56.2C49.4996 55.8 49.0996 56.1 48.8996 56.5C47.7996 58.8 46.5996 61.3 45.3996 63.7C45.0996 64.2 43.7996 64.4 43.3996 63.5C41.3996 59.1 40.4996 54.3 38.1996 50C38.0996 49.8 38.0996 49.7 38.1996 49.5C40.3996 44.7 42.1996 40 44.4996 35.2C44.5996 35 44.6996 34.9 44.9996 34.9C47.8996 34.9 50.8996 34.9 53.6996 34.9C53.9996 34.9 54.0996 35 54.1996 35.2C57.0996 41.3 59.6996 46.7 62.5996 52.8C62.7996 53.3 63.2996 53.3 63.4996 52.8Z" fill="#2A302F"/>
<path d="M42.7996 68.8C37.4996 57.8 31.9996 46.3 26.7996 35.2C26.6996 35 26.4996 34.9 26.2996 34.9C21.8996 34.9 16.8996 34.9 12.4996 34.9C11.9996 34.9 11.4996 35.4 11.5996 35.8C17.8996 48.8 23.5996 62.3 29.7996 75.3C29.8996 75.5 29.9996 75.8 30.2996 75.8C33.1996 75.8 36.7996 75.8 39.3996 75.8C39.5996 75.8 39.7996 75.7 39.8996 75.5C41.1996 72.7 42.2996 70.5 42.8996 69.3C42.8996 69.1 42.8996 69 42.7996 68.8Z" fill="#2A302F"/>
<path d="M62.3996 53.4C65.2996 47.4 68.0996 41.3 70.9996 35.3C71.0996 35.1 71.1996 35 71.4996 35H84.9996C85.3996 35 85.6996 35.4 85.4996 35.8C79.2996 48.9 72.9996 61.9 66.7996 75C66.6996 75.2 66.5996 75.3 66.2996 75.3H58.1996C57.8996 75.3 57.7996 75.2 57.6996 75C54.6996 68.7 51.6996 62.4 48.6996 56C48.4996 55.6 47.8996 55.6 47.6996 56C46.5996 58.3 45.2996 61 44.0996 63.5C43.8996 63.9 43.3996 63.9 43.1996 63.5C40.9996 58.9 38.7996 54.4 36.5996 49.9C36.4996 49.7 36.4996 49.6 36.5996 49.4C38.7996 44.6 40.9996 40.1 43.2996 35.3C43.3996 35.1 43.4996 35 43.7996 35H52.0996C52.3996 35 52.4996 35.1 52.5996 35.3C55.4996 41.4 58.3996 47.4 61.2996 53.4C61.5996 53.8 62.1996 53.8 62.3996 53.4Z" fill="#D1050C"/>
<path d="M41.3996 68.7C36.0996 57.6 30.6996 46.3 25.2996 35.2C25.1996 35 24.9996 34.9 24.7996 34.9C20.2996 34.9 15.8996 34.9 11.3996 34.9C10.9996 34.9 10.6996 35.3 10.8996 35.7C17.1996 48.8 23.2996 61.8 29.5996 74.9C29.6996 75.1 29.8996 75.2 30.0996 75.2C32.7996 75.2 35.4996 75.2 38.1996 75.2C38.3996 75.2 38.5996 75.1 38.6996 74.9C39.6996 72.9 40.3996 71.2 41.3996 69.2C41.4996 69 41.4996 68.9 41.3996 68.7Z" fill="#525D5A"/>
<path d="M163.783 83.7586C163.783 72.957 163.783 62.1529 163.783 51.3506C163.783 51.1042 163.987 50.9017 164.237 50.9017C171.95 50.9017 181.583 50.9017 189.299 50.9017C189.546 50.9017 189.749 51.1042 189.749 51.3506C189.749 53.538 189.749 55.7261 189.749 57.9122C189.749 58.1612 189.546 58.3623 189.299 58.3623C185.278 58.3623 179.34 58.3623 175.323 58.3623C175.072 58.3623 174.87 58.5623 174.87 58.8119C174.87 60.4994 174.87 62.1852 174.87 63.874C174.87 64.1217 175.072 64.3216 175.323 64.3216C178.861 64.3216 184.318 64.3216 187.857 64.3216C188.108 64.3216 188.311 64.5228 188.311 64.7712C188.311 66.7946 188.311 68.815 188.311 70.8373C188.311 71.0856 188.108 71.288 187.857 71.288C184.318 71.288 178.861 71.288 175.323 71.288C175.072 71.288 174.87 71.4886 174.87 71.7363C174.87 73.2593 174.87 74.7824 174.87 76.3036C174.87 76.5538 175.072 76.7544 175.323 76.7544C179.403 76.7544 185.398 76.7544 189.477 76.7544C189.726 76.7544 189.928 76.9543 189.928 77.2046C189.928 79.3876 189.928 81.5743 189.928 83.7586C189.928 84.0069 189.726 84.21 189.477 84.21C181.701 84.21 172.012 84.21 164.237 84.21C163.987 84.21 163.783 84.0069 163.783 83.7586Z" fill="#525D5A"/>
<path d="M327.08 31.0674C328.609 30.4664 332.399 28.2821 332.13 22.2707C331.804 14.8933 324.916 12.6811 318.146 12.6811C312.218 12.6811 302.992 12.6811 300.924 12.6811C300.674 12.6811 300.472 12.8822 300.472 13.1312C300.472 15.3161 300.472 17.5023 300.472 19.6897C300.472 19.9368 300.674 20.1404 300.924 20.1404C306.247 20.1404 312.727 20.1404 318.05 20.1404C318.05 20.1404 321.157 20.1404 321.227 23.0542C321.29 26.2984 318.19 26.1059 318.19 26.1059C312.819 26.1059 306.296 26.1059 300.924 26.1059C300.674 26.1059 300.472 26.3058 300.472 26.5523C300.472 32.8811 300.472 39.2104 300.472 45.5397C300.472 45.7881 300.674 45.9886 300.924 45.9886C304.435 45.9886 307.861 45.9886 311.367 45.9886C311.62 45.9886 311.822 45.7881 311.822 45.5397C311.822 41.5319 311.822 37.5228 311.822 33.5137C311.822 33.2673 312.023 33.0648 312.274 33.0648C313.016 33.0648 314.046 33.0648 314.791 33.0648C314.956 33.0648 315.062 33.117 315.155 33.248C318.237 37.4334 321.317 41.6201 324.398 45.8036C324.499 45.9365 324.601 45.9886 324.766 45.9886C328.266 45.9886 333.044 45.9886 336.55 45.9886C336.918 45.9886 337.13 45.5708 336.912 45.274C333.566 40.767 330.224 36.2581 326.877 31.7504C326.708 31.5139 326.801 31.1755 327.08 31.0674Z" fill="#525D5A"/>
<path d="M309.617 50.898C306.72 50.898 303.827 50.898 300.93 50.898C300.679 50.898 300.477 51.0992 300.477 51.3481C300.477 62.1504 300.477 72.952 300.477 83.7554C300.477 84.0045 300.679 84.2051 300.93 84.2051C304.209 84.2051 307.487 84.2051 310.763 84.2051C311.016 84.2051 311.222 83.9989 311.217 83.7474C311.137 78.594 311.057 73.4437 310.978 68.2947C310.971 67.8805 311.483 67.68 311.763 67.9836C316.707 73.3406 321.655 78.702 326.598 84.059C326.695 84.1634 326.794 84.2051 326.932 84.2051C329.829 84.2051 332.721 84.2051 335.617 84.2051C335.867 84.2051 336.067 84.0045 336.067 83.7554C336.067 72.952 336.067 62.1504 336.067 51.3481C336.067 51.0992 335.867 50.898 335.617 50.898C332.359 50.898 329.103 50.898 325.846 50.898C325.59 50.898 325.39 51.1029 325.393 51.3531C325.453 56.504 325.512 61.6567 325.576 66.8076C325.576 67.2212 325.066 67.4223 324.785 67.1181C319.84 61.7604 314.894 56.4028 309.949 51.0426C309.855 50.9408 309.755 50.898 309.617 50.898Z" fill="#525D5A"/>
<path d="M256.321 50.9359C252.296 50.8248 249.35 50.8018 244.708 50.8018C234.688 50.8018 231.054 56.4991 231.054 60.6149C231.054 70.1891 247.35 70.6907 247.376 74.2279C247.387 75.3337 246.628 75.9882 242.945 76.0689C239.1 76.1533 236.225 76.0217 230.911 75.9087C230.637 75.9006 230.407 76.0956 230.407 76.3563C230.41 78.8118 230.413 81.2707 230.417 83.7264C230.417 83.9647 230.616 84.1597 230.864 84.1758C235.197 84.4253 239.719 84.2987 244.43 84.2987C254.282 84.2987 258.742 80.7417 258.777 74.5818C258.833 65.2989 242.474 64.8699 242.474 60.9006C242.474 59.5098 244.309 58.6573 246.522 58.648C251.412 58.6262 251.617 58.6505 256.276 58.6995C256.553 58.702 256.776 58.5052 256.776 58.2525C256.776 55.9626 256.776 53.6734 256.776 51.3861C256.776 51.1451 256.575 50.9471 256.321 50.9359Z" fill="#525D5A"/>
<path d="M227.093 51.3469C227.093 57.0796 227.093 63.6517 227.093 69.3825C227.093 78.9491 222.051 85.1238 210.894 85.1238C199.735 85.1238 194.26 79.4813 194.26 70.5814C194.26 64.4489 194.26 57.4776 194.26 51.3469C194.26 51.0992 194.465 50.898 194.715 50.898C197.899 50.898 201.086 50.898 204.27 50.898C204.52 50.898 204.725 51.0992 204.725 51.3469C204.725 57.0014 204.725 63.4952 204.725 69.1484C204.725 73.7362 207.121 75.9267 210.607 75.9267C214.044 75.9267 216.634 73.7362 216.634 68.5735C216.634 63.1128 216.634 56.8076 216.634 51.3469C216.634 51.0992 216.834 50.898 217.085 50.898C220.272 50.898 223.457 50.898 226.64 50.898C226.892 50.898 227.093 51.0992 227.093 51.3469Z" fill="#525D5A"/>
<path d="M270.721 45.5397C270.721 34.7381 270.721 23.9347 270.721 13.13C270.721 12.8835 270.925 12.6811 271.174 12.6811C278.891 12.6811 288.521 12.6811 296.237 12.6811C296.487 12.6811 296.693 12.8835 296.693 13.13C296.693 15.3174 296.693 17.5054 296.693 19.6928C296.693 19.9405 296.487 20.1417 296.237 20.1417C292.217 20.1417 286.282 20.1417 282.263 20.1417C282.012 20.1417 281.809 20.3422 281.809 20.5899C281.809 22.2781 281.809 23.9657 281.809 25.6552C281.809 25.9029 282.012 26.1022 282.263 26.1022C285.803 26.1022 291.258 26.1022 294.798 26.1022C295.046 26.1022 295.253 26.3046 295.253 26.5523C295.253 28.5758 295.253 30.5974 295.253 32.6184C295.253 32.8662 295.046 33.0673 294.798 33.0673C291.258 33.0673 285.803 33.0673 282.263 33.0673C282.012 33.0673 281.809 33.2685 281.809 33.5162C281.809 35.0393 281.809 36.5623 281.809 38.0872C281.809 38.3349 282.012 38.5349 282.263 38.5349C286.344 38.5349 292.338 38.5349 296.418 38.5349C296.668 38.5349 296.87 38.7367 296.87 38.985C296.87 41.1699 296.87 43.3536 296.87 45.5397C296.87 45.7881 296.668 45.9886 296.418 45.9886C288.641 45.9886 278.953 45.9886 271.174 45.9886C270.925 45.9886 270.721 45.7881 270.721 45.5397Z" fill="#525D5A"/>
<path d="M131.981 50.898C129.087 50.898 126.19 50.898 123.296 50.898C123.045 50.898 122.844 51.0992 122.844 51.3481C122.844 62.1504 122.844 72.952 122.844 83.7554C122.844 84.0045 123.045 84.2051 123.296 84.2051C126.575 84.2051 129.851 84.2051 133.13 84.2051C133.385 84.2051 133.588 83.9989 133.583 83.7474C133.505 78.594 133.424 73.4437 133.345 68.2947C133.338 67.8805 133.849 67.68 134.131 67.9836C139.076 73.3406 144.019 78.702 148.965 84.059C149.063 84.1634 149.156 84.2051 149.297 84.2051C152.193 84.2051 155.088 84.2051 157.983 84.2051C158.232 84.2051 158.434 84.0045 158.434 83.7554C158.434 72.952 158.434 62.1504 158.434 51.3481C158.434 51.0992 158.232 50.898 157.983 50.898C154.724 50.898 151.468 50.898 148.212 50.898C147.956 50.898 147.753 51.1029 147.756 51.3531C147.817 56.504 147.877 61.6567 147.938 66.8076C147.943 67.2212 147.433 67.4223 147.154 67.1181C142.207 61.7604 137.262 56.4028 132.316 51.0426C132.221 50.9408 132.122 50.898 131.981 50.898Z" fill="#525D5A"/>
<path d="M231.489 12.6811C235.108 12.6811 238.726 12.6811 242.344 12.6811C242.595 12.6811 242.798 12.8835 242.798 13.1287C242.798 17.6165 242.798 22.1006 242.798 26.5846C242.798 26.9988 243.314 27.1943 243.59 26.8827C247.753 22.2024 251.92 17.5165 256.086 12.8319C256.181 12.7258 256.276 12.6811 256.424 12.6811C260.141 12.6811 263.855 12.6811 267.572 12.6811C267.962 12.6811 268.17 13.1368 267.912 13.4267C263.65 18.2479 259.392 23.0679 255.135 27.8891C254.953 28.0915 254.951 28.2511 255.118 28.4628C259.574 34.0632 264.028 39.6624 268.485 45.261C268.719 45.5559 268.507 45.9886 268.127 45.9886C263.838 45.9886 259.548 45.9886 255.258 45.9886C255.099 45.9886 254.998 45.939 254.902 45.8154C251.137 40.9849 247.372 36.1563 243.607 31.3307C243.343 30.9905 242.798 31.1755 242.798 31.6045C242.798 36.2481 242.798 40.893 242.798 45.5385C242.798 45.7881 242.595 45.9886 242.344 45.9886C238.726 45.9886 235.108 45.9886 231.489 45.9886C231.238 45.9886 231.038 45.7881 231.038 45.5385C231.038 34.7363 231.038 23.9347 231.038 13.1287C231.038 12.8835 231.238 12.6811 231.489 12.6811Z" fill="#525D5A"/>
<path d="M227.12 14.2662C225.77 13.6211 219.305 10.8258 211.672 12.4923C203.191 14.3351 197.736 20.5583 197.706 29.686C197.683 38.9875 204.415 44.9685 213.542 46.0532C221.469 46.9982 226.123 44.899 227.204 44.3321C227.382 44.2402 227.453 44.1285 227.453 43.9292C227.453 41.1376 227.453 38.3474 227.453 35.559C227.453 35.1914 227.04 34.9741 226.734 35.1796C225.617 35.9321 223.221 37.3837 219.674 37.3856C213.881 37.3893 209.321 34.4376 209.272 29.165C209.228 23.9409 214.113 20.6694 218.104 20.6694C222.279 20.6694 225.374 22.4837 226.715 23.4398C227.022 23.6578 227.446 23.4373 227.445 23.0654C227.422 20.2665 227.399 17.4706 227.38 14.6747C227.377 14.4686 227.305 14.355 227.12 14.2662Z" fill="#525D5A"/>
<path d="M198.972 45.9886C195.412 45.9886 191.853 45.9886 188.291 45.9886C188.074 45.9886 187.956 45.9129 187.876 45.708C187.22 44.1223 186.54 42.4738 185.888 40.8868C185.803 40.6844 185.689 40.608 185.47 40.608C180.387 40.608 175.305 40.608 170.223 40.608C169.891 40.608 169.676 40.2684 169.815 39.9691C170.87 37.7321 171.978 35.4987 173.032 33.2635C173.12 33.076 173.235 33.004 173.443 33.004C176.227 33.004 178.957 33.004 181.738 33.004C182.068 33.004 182.285 32.6669 182.152 32.3694C180.727 29.283 179.306 26.1991 177.883 23.112C177.822 22.976 177.822 22.8667 177.885 22.732C179.45 19.4668 181.018 16.2015 182.582 12.9369C182.672 12.7531 182.785 12.6811 182.994 12.6811C183.717 12.6811 184.442 12.6835 185.166 12.6835C185.385 12.6835 185.499 12.758 185.583 12.958C190.177 23.7397 194.794 34.5811 199.388 45.3634C199.514 45.6614 199.293 45.9886 198.972 45.9886Z" fill="#525D5A"/>
<path d="M178.464 12.6811H167.282C167.074 12.6811 166.963 12.7531 166.873 12.9369C164.483 17.9245 162.09 22.9127 159.698 27.899C159.535 28.2443 159.037 28.2412 158.877 27.8953C156.558 22.9102 154.102 17.9269 151.782 12.9418C151.695 12.7531 151.581 12.6811 151.372 12.6811H144.489C144.279 12.6811 144.166 12.7531 144.079 12.9418C142.227 16.8752 138.78 23.9527 136.946 27.8966C136.815 28.1791 136.446 28.2213 136.247 27.8941C133.771 22.8593 131.557 17.9673 129.082 12.9319C128.992 12.7512 128.881 12.6811 128.675 12.6811H117.454C117.12 12.6811 116.901 13.0275 117.045 13.3262C122.261 24.1122 127.326 34.9312 132.545 45.7179C132.631 45.903 132.745 45.9737 132.951 45.9737H139.605C139.81 45.9737 139.923 45.903 140.012 45.7179C140.795 44.0918 146.664 31.9168 147.552 30.0181C147.717 29.6735 148.211 29.6711 148.374 30.015C150.87 35.2373 153.363 40.5099 155.86 45.731C155.951 45.9197 156.063 45.9886 156.271 45.9886H162.93C163.139 45.9886 163.249 45.9197 163.339 45.7316C168.518 34.948 173.694 24.111 178.873 13.3249C179.016 13.0256 178.796 12.6811 178.464 12.6811Z" fill="#525D5A"/>
<path d="M278.953 59.8507C283.011 59.8507 285.559 62.8315 285.559 67.5509C285.559 72.2796 283.011 75.2574 278.953 75.2574C274.834 75.2574 272.326 72.2796 272.326 67.5509C272.326 62.8315 274.834 59.8507 278.953 59.8507ZM278.953 84.6216C291.349 84.6216 296.633 76.0447 296.633 67.5509C296.633 58.9709 291.196 50.4876 278.953 50.4876C266.837 50.4876 261.265 58.7362 261.265 67.5509C261.265 76.7724 267.21 84.6216 278.953 84.6216Z" fill="#525D5A"/>
<defs>
<radialGradient id="paint0_radial_554_588" cx="0" cy="0" r="1" gradientUnits="userSpaceOnUse" gradientTransform="translate(35.1947 23.2969) rotate(-46.7384) scale(68.5159)">
<stop stop-color="white"/>
<stop offset="0.065" stop-color="white"/>
<stop offset="0.2415" stop-color="#F1F2F2"/>
<stop offset="0.4396" stop-color="#DDDEDE"/>
<stop offset="1" stop-color="#A5ACAB"/>
</radialGradient>
<radialGradient id="paint1_radial_554_588" cx="0" cy="0" r="1" gradientUnits="userSpaceOnUse" gradientTransform="translate(34.3541 9.76615) rotate(-40.0023) scale(102.116)">
<stop stop-color="#DDDEDE"/>
<stop offset="0.1208" stop-color="#B0B5B4"/>
<stop offset="0.2317" stop-color="#8F9695"/>
<stop offset="0.3234" stop-color="#7A8382"/>
<stop offset="0.3846" stop-color="#737C7B"/>
<stop offset="0.5219" stop-color="#5A6362"/>
<stop offset="0.6666" stop-color="#464F4D"/>
<stop offset="0.7637" stop-color="#3F4846"/>
<stop offset="0.8621" stop-color="#394240"/>
<stop offset="0.9937" stop-color="#2A3130"/>
<stop offset="1" stop-color="#29302F"/>
</radialGradient>
<linearGradient id="paint2_linear_554_588" x1="56.2972" y1="91.4998" x2="41.2091" y2="5.93162" gradientUnits="userSpaceOnUse">
<stop stop-color="#DDDEDE"/>
<stop offset="0.0479197" stop-color="#C5C7C7"/>
<stop offset="0.1422" stop-color="#9C9F9F"/>
<stop offset="0.2421" stop-color="#787D7C"/>
<stop offset="0.3469" stop-color="#5B6160"/>
<stop offset="0.4582" stop-color="#454B4A"/>
<stop offset="0.5791" stop-color="#353C3B"/>
<stop offset="0.7165" stop-color="#2C3332"/>
<stop offset="0.9066" stop-color="#29302F"/>
<stop offset="1" stop-color="#29302F"/>
</linearGradient>
<radialGradient id="paint3_radial_554_588" cx="0" cy="0" r="1" gradientUnits="userSpaceOnUse" gradientTransform="translate(34.9803 9.57842) rotate(-39.9583) scale(106.402 106.373)">
<stop stop-color="#DDDEDE"/>
<stop offset="0.0384615" stop-color="#DDDEDE"/>
<stop offset="0.511" stop-color="#9DA9AB"/>
<stop offset="0.8422" stop-color="#E3E6E7"/>
<stop offset="1" stop-color="white"/>
</radialGradient>
</defs>
</svg>
