<svg width="270" height="79" viewBox="0 0 270 79" fill="none" xmlns="http://www.w3.org/2000/svg">
<mask id="mask0_611_1377" style="mask-type:luminance" maskUnits="userSpaceOnUse" x="2" y="2" width="73" height="73">
<path d="M11.9203 13.92C-1.83966 28.48 -1.11966 51.44 13.4403 65.12C20.2403 71.52 28.8803 74.8 37.5203 74.96H39.0403C48.4003 74.8 57.7603 70.96 64.7203 63.6C78.4003 49.04 77.7603 26.16 63.2003 12.4001C56.1603 5.84006 47.2803 2.56006 38.4003 2.56006C28.7203 2.56006 19.0403 6.40005 11.9203 13.92Z" fill="white"/>
</mask>
<g mask="url(#mask0_611_1377)">
<path d="M-37.9997 40.96L35.9203 -37.5199L114.64 36.64L40.7203 115.12L-37.9997 40.96Z" fill="url(#paint0_radial_611_1377)"/>
</g>
<mask id="mask1_611_1377" style="mask-type:luminance" maskUnits="userSpaceOnUse" x="0" y="0" width="79" height="79">
<path d="M36.8 73.5199C18.8 72.3199 4.56 57.3599 4.56 39.12C4.56 20.08 20.08 4.64 39.12 4.64C58.16 4.64 73.68 20.08 73.68 39.12C73.68 58.1599 58.16 73.5999 39.12 73.5999C38.32 73.5999 37.52 73.5199 36.8 73.5199ZM0 37.28V41.12C0.96 61.8399 18.16 78.3999 39.12 78.3999C60.72 78.3999 78.32 60.7999 78.32 39.2C78.32 18.48 62.24 1.52 41.84 0.0800048C40.96 4.88162e-06 40 0 39.12 0C18.16 0 0.96 16.56 0 37.28Z" fill="white"/>
</mask>
<g mask="url(#mask1_611_1377)">
<path d="M-38.56 32.4L45.92 -38.5599L116.88 46L32.32 116.96L-38.56 32.4Z" fill="url(#paint1_radial_611_1377)"/>
</g>
<mask id="mask2_611_1377" style="mask-type:luminance" maskUnits="userSpaceOnUse" x="4" y="4" width="70" height="70">
<path d="M15.2 62.64C9.11997 56.5601 5.35997 48.2401 5.35997 38.9601C5.35997 29.6801 9.11997 21.3601 15.2 15.2801C21.28 9.20011 29.76 5.5201 39.04 5.5201C48.32 5.5201 56.8 9.28011 62.88 15.2801C68.96 21.3601 72.72 29.6801 72.72 38.9601C72.72 48.1601 68.96 56.5601 62.88 62.64C56.8 68.72 48.32 72.4 39.04 72.4C29.68 72.4 21.28 68.64 15.2 62.64ZM3.99997 38.9601C3.99997 58.1601 19.68 73.68 38.96 73.68C58.32 73.68 73.92 58.1601 73.92 38.9601C73.92 19.7601 58.24 4.24011 38.96 4.24011C19.68 4.24011 3.99997 19.7601 3.99997 38.9601Z" fill="white"/>
</mask>
<g mask="url(#mask2_611_1377)">
<path d="M6.15994 85.68L-7.84006 6.32009L71.9199 -7.75989L85.9199 71.6L6.15994 85.68Z" fill="url(#paint2_linear_611_1377)"/>
</g>
<mask id="mask3_611_1377" style="mask-type:luminance" maskUnits="userSpaceOnUse" x="3" y="3" width="72" height="71">
<path d="M14.3197 63.28C7.99966 57.04 4.07966 48.4 4.07966 38.8001C4.07966 29.2801 7.99966 20.5601 14.3197 14.3201C20.6397 8.08008 29.3597 4.16008 39.0397 4.16008C48.7197 4.16008 57.4397 8.00008 63.7597 14.3201C70.0797 20.5601 73.9997 29.2001 73.9997 38.8001C73.9997 48.32 70.0797 57.04 63.7597 63.28C57.4397 69.52 48.7197 73.44 39.0397 73.44C29.3597 73.44 20.6397 69.6 14.3197 63.28ZM13.9997 14.0801C7.59966 20.4001 3.67966 29.2001 3.67966 38.8801C3.67966 48.56 7.59966 57.28 13.9997 63.68C20.3997 70 29.1997 73.92 38.9597 73.92C48.7197 73.92 57.5197 70 63.9197 63.68C70.3197 57.36 74.2397 48.56 74.2397 38.8801C74.2397 29.2001 70.3197 20.4801 63.9197 14.0801C57.5197 7.68009 48.7197 3.84009 38.9597 3.84009C29.2797 3.84009 20.3997 7.68009 13.9997 14.0801Z" fill="white"/>
</mask>
<g mask="url(#mask3_611_1377)">
<path d="M-30.8804 32.7201L45.1196 -30.9598L108.88 44.8801L32.8796 108.64L-30.8804 32.7201Z" fill="url(#paint3_radial_611_1377)"/>
</g>
<path d="M50.7997 42.24C53.1197 37.36 55.1197 33.04 57.4397 28.16C57.5197 28 57.9997 27.92 58.1597 27.92C61.6797 27.92 65.6797 27.92 69.1997 27.92C69.5197 27.92 69.7597 28.2401 69.5997 28.4801C64.5597 38.96 59.3597 49.84 54.3197 60.32C54.2397 60.48 54.0797 60.56 53.9197 60.56H46.7997C46.5597 60.56 46.4797 60.48 46.3997 60.32C43.9997 55.2 42.1597 50.08 39.7597 44.96C39.5997 44.64 39.2797 44.88 39.1197 45.2C38.2397 47.04 37.2797 49.04 36.3197 50.96C36.0797 51.36 35.0397 51.52 34.7197 50.8C33.1197 47.28 32.3997 43.44 30.5597 40C30.4797 39.84 30.4797 39.76 30.5597 39.6C32.3197 35.76 33.7597 32 35.5997 28.16C35.6797 28 35.7597 27.92 35.9997 27.92C38.3197 27.92 40.7197 27.92 42.9597 27.92C43.1997 27.92 43.2797 28 43.3597 28.16C45.6797 33.04 47.7597 37.36 50.0797 42.24C50.2397 42.64 50.6397 42.64 50.7997 42.24Z" fill="#2A302F"/>
<path d="M34.2397 55.04C29.9997 46.24 25.5997 37.04 21.4397 28.16C21.3597 28 21.1997 27.92 21.0397 27.92C17.5197 27.92 13.5197 27.92 9.99968 27.92C9.59968 27.92 9.19968 28.3201 9.27968 28.6401C14.3197 39.04 18.8797 49.84 23.8397 60.24C23.9197 60.4 23.9997 60.64 24.2397 60.64C26.5597 60.64 29.4397 60.64 31.5197 60.64C31.6797 60.64 31.8397 60.56 31.9197 60.4C32.9597 58.16 33.8397 56.4 34.3197 55.44C34.3197 55.28 34.3197 55.2 34.2397 55.04Z" fill="#2A302F"/>
<path d="M49.9197 42.72C52.2397 37.92 54.4797 33.04 56.7997 28.24C56.8797 28.08 56.9597 28 57.1997 28H67.9997C68.3197 28 68.5597 28.32 68.3997 28.64C63.4397 39.12 58.3997 49.52 53.4397 60C53.3597 60.16 53.2797 60.24 53.0397 60.24H46.5597C46.3197 60.24 46.2397 60.16 46.1597 60C43.7597 54.96 41.3597 49.92 38.9597 44.8C38.7997 44.48 38.3197 44.48 38.1597 44.8C37.2797 46.64 36.2397 48.8 35.2797 50.8C35.1197 51.12 34.7197 51.12 34.5597 50.8C32.7997 47.12 31.0397 43.52 29.2797 39.92C29.1997 39.76 29.1997 39.68 29.2797 39.52C31.0397 35.68 32.7997 32.08 34.6397 28.24C34.7197 28.08 34.7997 28 35.0397 28H41.6797C41.9197 28 41.9997 28.08 42.0797 28.24C44.3997 33.12 46.7197 37.92 49.0397 42.72C49.2797 43.04 49.7597 43.04 49.9197 42.72Z" fill="#D1050C"/>
<path d="M33.1197 54.96C28.8797 46.08 24.5597 37.04 20.2397 28.16C20.1597 28 19.9997 27.92 19.8397 27.92C16.2397 27.92 12.7197 27.92 9.11966 27.92C8.79966 27.92 8.55966 28.24 8.71966 28.56C13.7597 39.04 18.6397 49.44 23.6797 59.92C23.7597 60.08 23.9197 60.16 24.0797 60.16C26.2397 60.16 28.3997 60.16 30.5597 60.16C30.7197 60.16 30.8797 60.08 30.9597 59.92C31.7597 58.32 32.3197 56.96 33.1197 55.36C33.1997 55.2 33.1997 55.12 33.1197 54.96Z" fill="#525D5A"/>
<path d="M131.026 67.0068C131.026 58.3655 131.026 49.7223 131.026 41.0805C131.026 40.8833 131.19 40.7214 131.39 40.7214C137.56 40.7214 145.266 40.7214 151.439 40.7214C151.637 40.7214 151.799 40.8833 151.799 41.0805C151.799 42.8304 151.799 44.5808 151.799 46.3297C151.799 46.5289 151.637 46.6899 151.439 46.6899C148.222 46.6899 143.472 46.6899 140.258 46.6899C140.058 46.6899 139.896 46.8498 139.896 47.0495C139.896 48.3995 139.896 49.7481 139.896 51.0992C139.896 51.2973 140.058 51.4573 140.258 51.4573C143.089 51.4573 147.454 51.4573 150.285 51.4573C150.486 51.4573 150.649 51.6182 150.649 51.8169C150.649 53.4357 150.649 55.052 150.649 56.6698C150.649 56.8685 150.486 57.0304 150.285 57.0304C147.454 57.0304 143.089 57.0304 140.258 57.0304C140.058 57.0304 139.896 57.1908 139.896 57.389C139.896 58.6074 139.896 59.8259 139.896 61.0428C139.896 61.243 140.058 61.4035 140.258 61.4035C143.522 61.4035 148.319 61.4035 151.582 61.4035C151.781 61.4035 151.943 61.5634 151.943 61.7636C151.943 63.5101 151.943 65.2594 151.943 67.0068C151.943 67.2055 151.781 67.3679 151.582 67.3679C145.361 67.3679 137.61 67.3679 131.39 67.3679C131.19 67.3679 131.026 67.2055 131.026 67.0068Z" fill="#525D5A"/>
<path d="M261.664 24.8539C262.887 24.3731 265.919 22.6257 265.704 17.8165C265.443 11.9146 259.933 10.1448 254.517 10.1448C249.775 10.1448 242.394 10.1448 240.739 10.1448C240.539 10.1448 240.378 10.3058 240.378 10.505C240.378 12.2529 240.378 14.0018 240.378 15.7517C240.378 15.9494 240.539 16.1123 240.739 16.1123C244.997 16.1123 250.181 16.1123 254.44 16.1123C254.44 16.1123 256.925 16.1123 256.981 18.4434C257.032 21.0387 254.552 20.8847 254.552 20.8847C250.255 20.8847 245.036 20.8847 240.739 20.8847C240.539 20.8847 240.378 21.0447 240.378 21.2419C240.378 26.3048 240.378 31.3683 240.378 36.4318C240.378 36.6305 240.539 36.7909 240.739 36.7909C243.548 36.7909 246.289 36.7909 249.094 36.7909C249.296 36.7909 249.458 36.6305 249.458 36.4318C249.458 33.2255 249.458 30.0182 249.458 26.811C249.458 26.6138 249.618 26.4519 249.819 26.4519C250.413 26.4519 251.236 26.4519 251.832 26.4519C251.965 26.4519 252.05 26.4936 252.124 26.5984C254.59 29.9467 257.053 33.296 259.519 36.6429C259.6 36.7492 259.681 36.7909 259.813 36.7909C262.613 36.7909 266.435 36.7909 269.24 36.7909C269.534 36.7909 269.704 36.4566 269.53 36.2192C266.853 32.6136 264.179 29.0064 261.502 25.4003C261.366 25.2111 261.441 24.9404 261.664 24.8539Z" fill="#525D5A"/>
<path d="M247.693 40.7184C245.376 40.7184 243.062 40.7184 240.744 40.7184C240.543 40.7184 240.382 40.8793 240.382 41.0785C240.382 49.7203 240.382 58.3615 240.382 67.0042C240.382 67.2035 240.543 67.364 240.744 67.364C243.367 67.364 245.99 67.364 248.61 67.364C248.813 67.364 248.977 67.1991 248.973 66.9978C248.91 62.8751 248.846 58.7549 248.783 54.6357C248.777 54.3044 249.187 54.144 249.41 54.3868C253.365 58.6725 257.324 62.9615 261.278 67.2472C261.356 67.3306 261.435 67.364 261.546 67.364C263.863 67.364 266.177 67.364 268.493 67.364C268.693 67.364 268.853 67.2035 268.853 67.0042C268.853 58.3615 268.853 49.7203 268.853 41.0785C268.853 40.8793 268.693 40.7184 268.493 40.7184C265.887 40.7184 263.282 40.7184 260.677 40.7184C260.472 40.7184 260.312 40.8823 260.314 41.0825C260.362 45.2032 260.409 49.3254 260.46 53.4461C260.461 53.7769 260.053 53.9378 259.828 53.6944C255.872 49.4083 251.915 45.1222 247.959 40.8341C247.884 40.7526 247.804 40.7184 247.693 40.7184Z" fill="#525D5A"/>
<path d="M205.056 40.7487C201.837 40.6598 199.48 40.6414 195.766 40.6414C187.75 40.6414 184.843 45.1992 184.843 48.4919C184.843 56.1512 197.88 56.5525 197.901 59.3823C197.909 60.267 197.302 60.7905 194.356 60.8551C191.28 60.9226 188.98 60.8173 184.729 60.7269C184.51 60.7204 184.326 60.8764 184.326 61.085C184.328 63.0494 184.331 65.0165 184.334 66.981C184.334 67.1717 184.493 67.3277 184.691 67.3406C188.157 67.5402 191.775 67.4389 195.544 67.4389C203.425 67.4389 206.994 64.5933 207.021 59.6654C207.066 52.2391 193.979 51.8959 193.979 48.7204C193.979 47.6078 195.447 46.9258 197.218 46.9183C201.129 46.901 201.293 46.9203 205.021 46.9596C205.243 46.9616 205.421 46.8041 205.421 46.6019C205.421 44.7701 205.421 42.9387 205.421 41.1088C205.421 40.9161 205.26 40.7576 205.056 40.7487Z" fill="#525D5A"/>
<path d="M181.675 41.0775C181.675 45.6637 181.675 50.9213 181.675 55.506C181.675 63.1593 177.64 68.099 168.716 68.099C159.788 68.099 155.408 63.585 155.408 56.4651C155.408 51.5591 155.408 45.9821 155.408 41.0775C155.408 40.8793 155.572 40.7184 155.772 40.7184C158.319 40.7184 160.869 40.7184 163.416 40.7184C163.616 40.7184 163.78 40.8793 163.78 41.0775C163.78 45.6011 163.78 50.7962 163.78 55.3187C163.78 58.9889 165.697 60.7413 168.486 60.7413C171.235 60.7413 173.307 58.9889 173.307 54.8588C173.307 50.4902 173.307 45.4461 173.307 41.0775C173.307 40.8793 173.467 40.7184 173.668 40.7184C176.217 40.7184 178.766 40.7184 181.312 40.7184C181.513 40.7184 181.675 40.8793 181.675 41.0775Z" fill="#525D5A"/>
<path d="M216.577 36.4318C216.577 27.7905 216.577 19.1477 216.577 10.504C216.577 10.3068 216.74 10.1448 216.939 10.1448C223.113 10.1448 230.817 10.1448 236.99 10.1448C237.189 10.1448 237.354 10.3068 237.354 10.504C237.354 12.2539 237.354 14.0043 237.354 15.7542C237.354 15.9524 237.189 16.1133 236.99 16.1133C233.773 16.1133 229.026 16.1133 225.811 16.1133C225.609 16.1133 225.448 16.2738 225.448 16.4719C225.448 17.8225 225.448 19.1726 225.448 20.5241C225.448 20.7223 225.609 20.8817 225.811 20.8817C228.642 20.8817 233.006 20.8817 235.838 20.8817C236.037 20.8817 236.202 21.0437 236.202 21.2419C236.202 22.8606 236.202 24.4779 236.202 26.0947C236.202 26.2929 236.037 26.4538 235.838 26.4538C233.006 26.4538 228.642 26.4538 225.811 26.4538C225.609 26.4538 225.448 26.6148 225.448 26.813C225.448 28.0314 225.448 29.2498 225.448 30.4698C225.448 30.6679 225.609 30.8279 225.811 30.8279C229.075 30.8279 233.871 30.8279 237.134 30.8279C237.334 30.8279 237.496 30.9893 237.496 31.188C237.496 32.9359 237.496 34.6829 237.496 36.4318C237.496 36.6305 237.334 36.7909 237.134 36.7909C230.913 36.7909 223.162 36.7909 216.939 36.7909C216.74 36.7909 216.577 36.6305 216.577 36.4318Z" fill="#525D5A"/>
<path d="M105.585 40.7184C103.27 40.7184 100.952 40.7184 98.6367 40.7184C98.436 40.7184 98.2756 40.8793 98.2756 41.0785C98.2756 49.7203 98.2756 58.3615 98.2756 67.0042C98.2756 67.2035 98.436 67.364 98.6367 67.364C101.26 67.364 103.88 67.364 106.504 67.364C106.708 67.364 106.87 67.1991 106.867 66.9978C106.804 62.8751 106.739 58.7549 106.676 54.6357C106.67 54.3044 107.079 54.144 107.305 54.3868C111.261 58.6725 115.215 62.9615 119.172 67.2472C119.25 67.3306 119.325 67.364 119.438 67.364C121.755 67.364 124.071 67.364 126.386 67.364C126.586 67.364 126.748 67.2035 126.748 67.0042C126.748 58.3615 126.748 49.7203 126.748 41.0785C126.748 40.8793 126.586 40.7184 126.386 40.7184C123.779 40.7184 121.174 40.7184 118.569 40.7184C118.365 40.7184 118.203 40.8823 118.205 41.0825C118.253 45.2032 118.301 49.3254 118.35 53.4461C118.354 53.7769 117.946 53.9378 117.723 53.6944C113.766 49.4083 109.809 45.1222 105.853 40.8341C105.777 40.7526 105.698 40.7184 105.585 40.7184Z" fill="#525D5A"/>
<path d="M185.191 10.1448C188.086 10.1448 190.981 10.1448 193.875 10.1448C194.076 10.1448 194.238 10.3068 194.238 10.503C194.238 14.0932 194.238 17.6804 194.238 21.2677C194.238 21.599 194.651 21.7555 194.872 21.5061C198.203 17.7619 201.536 14.0132 204.869 10.2655C204.945 10.1806 205.021 10.1448 205.139 10.1448C208.113 10.1448 211.084 10.1448 214.057 10.1448C214.369 10.1448 214.536 10.5094 214.329 10.7414C210.92 14.5984 207.514 18.4543 204.108 22.3113C203.962 22.4732 203.961 22.6009 204.095 22.7702C207.659 27.2506 211.222 31.7299 214.788 36.2087C214.975 36.4447 214.806 36.7909 214.502 36.7909C211.071 36.7909 207.638 36.7909 204.206 36.7909C204.079 36.7909 203.998 36.7512 203.921 36.6523C200.909 32.7879 197.898 28.925 194.885 25.0645C194.674 24.7924 194.238 24.9404 194.238 25.2836C194.238 28.9985 194.238 32.7144 194.238 36.4308C194.238 36.6305 194.076 36.7909 193.875 36.7909C190.981 36.7909 188.086 36.7909 185.191 36.7909C184.991 36.7909 184.83 36.6305 184.83 36.4308C184.83 27.789 184.83 19.1477 184.83 10.503C184.83 10.3068 184.991 10.1448 185.191 10.1448Z" fill="#525D5A"/>
<path d="M181.696 11.4129C180.616 10.8968 175.444 8.66065 169.338 9.99382C162.553 11.4681 158.188 16.4466 158.165 23.7487C158.147 31.19 163.532 35.9748 170.833 36.8425C177.175 37.5985 180.898 35.9191 181.763 35.4656C181.906 35.3921 181.962 35.3027 181.962 35.1433C181.962 32.9101 181.962 30.6778 181.962 28.4471C181.962 28.1531 181.632 27.9792 181.387 28.1436C180.494 28.7456 178.576 29.907 175.739 29.9084C171.105 29.9114 167.457 27.5501 167.417 23.332C167.382 19.1527 171.291 16.5355 174.483 16.5355C177.823 16.5355 180.299 17.9869 181.372 18.7518C181.618 18.9262 181.957 18.7498 181.956 18.4523C181.938 16.2131 181.919 13.9764 181.904 11.7398C181.902 11.5749 181.844 11.484 181.696 11.4129Z" fill="#525D5A"/>
<path d="M159.178 36.7909C156.329 36.7909 153.482 36.7909 150.633 36.7909C150.459 36.7909 150.365 36.7303 150.301 36.5664C149.776 35.2978 149.232 33.979 148.711 32.7094C148.643 32.5475 148.551 32.4864 148.376 32.4864C144.309 32.4864 140.244 32.4864 136.179 32.4864C135.913 32.4864 135.741 32.2147 135.852 31.9753C136.696 30.1856 137.582 28.399 138.425 26.6108C138.496 26.4608 138.588 26.4032 138.755 26.4032C140.981 26.4032 143.165 26.4032 145.391 26.4032C145.654 26.4032 145.828 26.1335 145.721 25.8955C144.582 23.4264 143.445 20.9592 142.306 18.4896C142.257 18.3808 142.257 18.2934 142.308 18.1856C143.56 15.5734 144.814 12.9612 146.066 10.3495C146.137 10.2025 146.228 10.1448 146.396 10.1448C146.974 10.1448 147.554 10.1468 148.133 10.1468C148.308 10.1468 148.399 10.2064 148.466 10.3664C152.141 18.9918 155.836 27.6648 159.511 36.2907C159.612 36.5291 159.434 36.7909 159.178 36.7909Z" fill="#525D5A"/>
<path d="M142.771 10.1448H133.826C133.659 10.1448 133.57 10.2025 133.498 10.3495C131.586 14.3396 129.672 18.3301 127.758 22.3192C127.628 22.5954 127.23 22.5929 127.102 22.3162C125.246 18.3282 123.281 14.3416 121.426 10.3535C121.356 10.2025 121.265 10.1448 121.097 10.1448H115.591C115.423 10.1448 115.333 10.2025 115.264 10.3535C113.781 13.5001 111.024 19.1621 109.557 22.3172C109.452 22.5432 109.156 22.577 108.998 22.3153C107.017 18.2874 105.245 14.3738 103.265 10.3455C103.194 10.201 103.105 10.1448 102.94 10.1448H93.9631C93.6963 10.1448 93.521 10.422 93.6357 10.6609C97.8091 19.2898 101.861 27.945 106.036 36.5743C106.105 36.7223 106.196 36.779 106.361 36.779H111.684C111.848 36.779 111.938 36.7223 112.01 36.5743C112.636 35.2734 117.331 25.5334 118.042 24.0145C118.173 23.7388 118.569 23.7368 118.699 24.012C120.696 28.1898 122.69 32.4079 124.688 36.5848C124.761 36.7358 124.85 36.7909 125.016 36.7909H130.344C130.511 36.7909 130.599 36.7358 130.672 36.5853C134.814 27.9584 138.955 19.2888 143.098 10.6599C143.212 10.4205 143.037 10.1448 142.771 10.1448Z" fill="#525D5A"/>
<path d="M223.162 47.8805C226.409 47.8805 228.448 50.2652 228.448 54.0407C228.448 57.8237 226.409 60.2059 223.162 60.2059C219.867 60.2059 217.861 57.8237 217.861 54.0407C217.861 50.2652 219.867 47.8805 223.162 47.8805ZM223.162 67.6973C233.079 67.6973 237.306 60.8358 237.306 54.0407C237.306 47.1767 232.957 40.3901 223.162 40.3901C213.469 40.3901 209.012 46.9889 209.012 54.0407C209.012 61.4179 213.768 67.6973 223.162 67.6973Z" fill="#525D5A"/>
<defs>
<radialGradient id="paint0_radial_611_1377" cx="0" cy="0" r="1" gradientUnits="userSpaceOnUse" gradientTransform="translate(28.1558 18.6376) rotate(-46.7383) scale(54.8127 54.8127)">
<stop stop-color="white"/>
<stop offset="0.065" stop-color="white"/>
<stop offset="0.2415" stop-color="#F1F2F2"/>
<stop offset="0.4396" stop-color="#DDDEDE"/>
<stop offset="1" stop-color="#A5ACAB"/>
</radialGradient>
<radialGradient id="paint1_radial_611_1377" cx="0" cy="0" r="1" gradientUnits="userSpaceOnUse" gradientTransform="translate(27.4833 7.8129) rotate(-40.0022) scale(81.6927 81.6927)">
<stop stop-color="#DDDEDE"/>
<stop offset="0.1208" stop-color="#B0B5B4"/>
<stop offset="0.2317" stop-color="#8F9695"/>
<stop offset="0.3234" stop-color="#7A8382"/>
<stop offset="0.3846" stop-color="#737C7B"/>
<stop offset="0.5219" stop-color="#5A6362"/>
<stop offset="0.6666" stop-color="#464F4D"/>
<stop offset="0.7637" stop-color="#3F4846"/>
<stop offset="0.8621" stop-color="#394240"/>
<stop offset="0.9937" stop-color="#2A3130"/>
<stop offset="1" stop-color="#29302F"/>
</radialGradient>
<linearGradient id="paint2_linear_611_1377" x1="45.0377" y1="73.1998" x2="32.9672" y2="4.74535" gradientUnits="userSpaceOnUse">
<stop stop-color="#DDDEDE"/>
<stop offset="0.0479197" stop-color="#C5C7C7"/>
<stop offset="0.1422" stop-color="#9C9F9F"/>
<stop offset="0.2421" stop-color="#787D7C"/>
<stop offset="0.3469" stop-color="#5B6160"/>
<stop offset="0.4582" stop-color="#454B4A"/>
<stop offset="0.5791" stop-color="#353C3B"/>
<stop offset="0.7165" stop-color="#2C3332"/>
<stop offset="0.9066" stop-color="#29302F"/>
<stop offset="1" stop-color="#29302F"/>
</linearGradient>
<radialGradient id="paint3_radial_611_1377" cx="0" cy="0" r="1" gradientUnits="userSpaceOnUse" gradientTransform="translate(27.9842 7.66282) rotate(-39.9583) scale(85.1219 85.0986)">
<stop stop-color="#DDDEDE"/>
<stop offset="0.0384615" stop-color="#DDDEDE"/>
<stop offset="0.511" stop-color="#9DA9AB"/>
<stop offset="0.8422" stop-color="#E3E6E7"/>
<stop offset="1" stop-color="white"/>
</radialGradient>
</defs>
</svg>
