<svg width="302" height="84" viewBox="0 0 302 84" fill="none" xmlns="http://www.w3.org/2000/svg">
<path d="M51.5 84L58.8571 71.8421H27.8958C39.9459 52.3309 52.9231 31.4229 64.9881 11.8816H95.6429C97.7887 8.3816 100.548 4.14474 103 0L51.8065 7.32902e-06C35.253 27.0789 16.8771 56.4309 0 84H51.5Z" fill="#1A1A18"/>
<path fill-rule="evenodd" clip-rule="evenodd" d="M62.4876 64H42C50.6034 49.8095 60.5924 34.0428 69.5207 20L88.4793 20C97.4076 34.0428 107.397 49.8094 116 64H95.5124C94.1674 61.8228 92.8887 59.7918 91.7095 57.9189L91.7088 57.9178L91.2314 57.1593L79 57.1594H66.7687L66.2912 57.9179L66.2905 57.919C65.1113 59.7918 63.8326 61.8228 62.4876 64ZM79 34.575L72.2727 47.225H79L85.7273 47.225L79 34.575Z" fill="#D1050C"/>
<path fill-rule="evenodd" clip-rule="evenodd" d="M141.236 50.6329H168.217C183.854 50.6329 186 40.2943 186 34.7247C186 29.1551 183.854 20 168.217 20L121 20V64H141.236V50.6329ZM163.311 32.7754H141.849V38.6235H163.311C164.231 38.6235 165.764 37.9272 165.764 35.6994C165.764 33.4716 163.925 32.7754 163.311 32.7754Z" fill="#D1050C"/>
<path d="M205.902 20H185C192.07 31.55 203.75 50.525 212.049 64H222.5H232.951C241.25 50.525 252.93 31.55 260 20H239.098C233.799 28.8424 226.496 40.9 222.5 47.5C218.504 40.9 211.201 28.8424 205.902 20Z" fill="#D1050C"/>
<path d="M250.5 0L243.143 12.1579H274.104C262.054 31.6691 249.077 52.5771 237.012 72.1184H206.357C204.211 75.6184 201.452 79.8553 199 84L250.193 84C266.747 56.9211 285.123 27.5691 302 0H250.5Z" fill="#1A1A18"/>
</svg>
