<svg width="554" height="109" viewBox="0 0 554 109" fill="none" xmlns="http://www.w3.org/2000/svg">
<path fill-rule="evenodd" clip-rule="evenodd" d="M43.9505 43.6752H7.03116L0 107.536H57.4517L59.0282 94.9008H38.3889L43.9505 43.6752ZM146.429 75.4729C148.815 52.0044 135.085 42.7078 112.445 42.7078C108.044 42.7078 103.643 42.7078 99.2455 42.7078C78.1253 42.7078 62.7461 52.5038 59.6389 73.9084C56.5928 95.1278 68.6359 108.353 92.2754 108.353C96.3102 108.353 100.345 108.353 104.38 108.353C126.263 108.353 144.364 100.143 146.429 75.4729ZM94.0809 88.4959C93.6458 92.086 95.52 95.2047 100.2 95.2047C104.838 95.2047 108.842 93.2245 108.994 88.5168C109.903 79.6114 110.808 70.7024 111.712 61.7969C112.105 58.1719 109.307 55.832 105.238 55.832C100.631 55.832 97.6156 58.3395 97.2873 61.3255L94.0809 88.4959ZM433.688 43.3399H383.206L375.992 107.536H410.876L416.366 56.2721H424.286C427.683 56.2721 430.737 58.2208 430.245 61.5839L425.416 107.536H460.461L465.057 67.3078C467.695 49.8008 455.094 43.3399 433.688 43.3399ZM554 43.6752H513.416C487.933 43.6752 472.645 50.0312 469.718 69.1728C469.122 73.0877 468.615 77.9106 468.45 81.8255C467.706 99.4094 475.882 107.536 498.258 107.536H547.889L552.29 69.8398H518.054L515.55 93.2175H507.202C502.404 93.2175 501.606 90.1093 501.98 86.7008C502.904 78.8465 503.824 70.9853 504.755 63.124C505.095 58.6084 507.843 56.307 512.279 56.307H552.954L554 43.6752ZM375.037 43.6752H338.122L330.911 107.536H368.01L375.037 43.6752ZM335.274 43.6752H302.214L282.35 63.358L284.548 43.6752H247.625L240.415 107.536H277.613L279.689 85.9534L293.564 107.536H328.552L306.062 72.239L335.274 43.6752ZM206.568 43.3399H156.083L148.868 107.536H183.753L189.246 56.2721H197.163C200.564 56.2721 203.614 58.2208 203.121 61.5839L198.289 107.536H233.338L237.934 67.3078C240.571 49.8008 227.971 43.3399 206.568 43.3399Z" fill="black"/>
<path fill-rule="evenodd" clip-rule="evenodd" d="M395.577 0L342.279 12.8902L339.256 39.3133L392.547 27.0936L395.577 0Z" fill="#24378C"/>
</svg>
