<svg width="444" height="88" viewBox="0 0 444 88" fill="none" xmlns="http://www.w3.org/2000/svg">
<path fill-rule="evenodd" clip-rule="evenodd" d="M35.5604 35.5077H6.02496L0.400024 86.5964H46.3614L47.6226 76.4882H31.1112L35.5604 35.5077ZM117.543 60.9459C119.452 42.1711 108.468 34.7338 90.3562 34.7338C86.8353 34.7338 83.3143 34.7338 79.7964 34.7338C62.9003 34.7338 50.5969 42.5707 48.1112 59.6943C45.6743 76.6698 55.3088 87.2502 74.2204 87.2502C77.4481 87.2502 80.6759 87.2502 83.9037 87.2502C101.411 87.2502 115.891 80.6818 117.543 60.9459ZM75.6648 71.3643C75.3167 74.2364 76.816 76.7313 80.5599 76.7313C84.2701 76.7313 87.4735 75.1472 87.5956 71.381C88.3224 64.2567 89.0461 57.1295 89.7699 50.0051C90.0844 47.1051 87.846 45.2332 84.5908 45.2332C80.9049 45.2332 78.4925 47.2392 78.2299 49.628L75.6648 71.3643ZM347.35 35.2395H306.965L301.193 86.5964H329.101L333.492 45.5852H339.829C342.547 45.5852 344.99 47.1442 344.596 49.8347L340.733 86.5964H368.769L372.446 54.4139C374.556 40.4082 364.475 35.2395 347.35 35.2395ZM443.6 35.5077H411.133C390.746 35.5077 378.516 40.5926 376.174 55.9058C375.698 59.0377 375.292 62.896 375.16 66.028C374.565 80.0951 381.106 86.5964 399.007 86.5964H438.711L442.232 56.4394H414.843L412.84 75.1416H406.162C402.323 75.1416 401.685 72.655 401.984 69.9282C402.723 63.6448 403.459 57.3558 404.204 51.0668C404.476 47.4543 406.675 45.6132 410.223 45.6132H442.763L443.6 35.5077ZM300.43 35.5077H270.898L265.129 86.5964H294.808L300.43 35.5077ZM268.619 35.5077H242.171L226.28 51.254L228.039 35.5077H198.5L192.732 86.5964H222.49L224.151 69.3303L235.252 86.5964H263.242L245.249 58.3588L268.619 35.5077ZM165.655 35.2395H125.266L119.495 86.5964H147.402L151.797 45.5852H158.13C160.851 45.5852 163.291 47.1442 162.897 49.8347L159.031 86.5964H187.07L190.747 54.4139C192.857 40.4082 182.777 35.2395 165.655 35.2395Z" fill="black"/>
<path fill-rule="evenodd" clip-rule="evenodd" d="M316.862 0.567627L274.223 10.8798L271.804 32.0182L314.437 22.2425L316.862 0.567627Z" fill="#24378C"/>
</svg>
