<svg width="151" height="84" viewBox="0 0 151 84" fill="none" xmlns="http://www.w3.org/2000/svg">
<path d="M121.726 52.2448L132.91 0H112.943L109.19 20.3628H95.8287L79.9152 57.5213H79.4648V38.1989H66.2536C65.0525 35.6721 62.5004 34.1114 57.6212 33.8142L57.7714 33.071C67.0793 31.5847 70.0818 26.0109 71.9584 17.3901C75.036 2.52677 67.5296 0 53.9431 0H17.7624L3.20001 67.9999H39.681C53.0423 67.9999 61.0742 66.0677 65.1276 52.9879V67.9256L90.8745 67.9999L107.088 31.659L100.408 67.9999H147.773L150.4 52.2448H121.726ZM48.4635 46.2251C47.2624 51.7245 44.4851 53.1366 38.555 53.1366H24.7433L27.5957 39.8338H41.7828C47.7128 39.8338 49.6645 40.6513 48.4635 46.2251ZM52.8922 20.6601C51.6912 26.0852 49.9647 27.2 43.5092 27.2H30.3731L33.0003 14.8634H48.3884C53.4177 15.012 53.793 16.5727 52.8922 20.6601Z" fill="#597F97"/>
<path d="M1.80185 75.9999L0 83.9999H48.8V75.9999H1.80185Z" fill="#A40B1E"/>
<path d="M52 76.0726H54.393L55.4737 80.6544C55.5509 80.9453 55.5509 81.2362 55.6281 81.5271C55.7825 81.0181 55.9368 80.7271 56.014 80.5817L58.2526 75.9999H60.8L56.3228 83.9999H54.3158L52 76.0726Z" fill="#A40B1E"/>
<path d="M62.9895 75.9999H65.586L67.2 83.9999H65.0947L64.8141 82.4726H62.1474L61.4456 83.9999H59.2L62.9895 75.9999ZM64.5333 80.7271L64.1825 78.8362C64.1123 78.5453 64.1123 78.2544 64.0421 77.9635C63.9018 78.4726 63.7614 78.7635 63.6912 78.909L62.8491 80.7271H64.5333Z" fill="#A40B1E"/>
<path d="M69.2678 76.0726H71.8034L73.5186 79.9999C73.7424 80.4362 73.8915 80.8726 73.9661 81.309V81.0908C73.9661 80.7271 74.0407 80.3635 74.0407 79.9271L74.6373 75.9999H76.8L75.5322 83.9999H73.1458L71.2814 79.9271C71.0576 79.4908 70.9085 79.0544 70.8339 78.6181V78.8362C70.8339 79.1999 70.7593 79.5635 70.7593 79.9271L70.1627 83.9999H68L69.2678 76.0726Z" fill="#A40B1E"/>
<path d="M82.16 75.9999H84.56L83.52 82.109H86.4L86.08 83.9999H80.8L82.16 75.9999Z" fill="#A40B1E"/>
<path d="M91.89 82.2544L91.61 83.9999H87.2L88.39 75.9999H92.8L92.52 77.8181H90.14L89.93 79.1271H92.17L91.89 80.8726H89.65L89.44 82.1817L91.89 82.2544Z" fill="#A40B1E"/>
<path d="M94.8678 76.0726H97.4034L99.1187 79.9999C99.3424 80.4362 99.4916 80.8726 99.5661 81.309V81.0908C99.5661 80.7271 99.6407 80.3635 99.6407 79.9271L100.237 75.9999H102.4L101.132 83.9999H98.7458L96.8814 79.9271C96.6577 79.4908 96.5085 79.0544 96.4339 78.6181V78.8362C96.4339 79.1999 96.4339 79.5635 96.3594 79.9271L95.7627 83.9999H93.6L94.8678 76.0726Z" fill="#A40B1E"/>
<path d="M111.2 79.1836C111.13 82.2416 109.6 83.9999 107.165 83.9999C104.73 83.9999 103.2 82.3945 103.2 80.0245C103.2 78.7249 103.617 77.4252 104.452 76.5078C105.287 75.5904 106.4 75.1317 107.583 75.2082C108.974 75.1317 110.226 75.8962 110.922 77.1959L109.322 78.4191C108.974 77.731 108.348 77.2723 107.583 77.2723C106.33 77.2723 105.357 78.4191 105.357 79.7952C105.357 79.8716 105.357 79.8716 105.357 79.9481C105.287 81.0184 105.983 81.9358 106.957 82.0887C107.026 82.0887 107.096 82.0887 107.165 82.0887C107.513 82.0887 107.93 82.0122 108.209 81.7829C108.487 81.5535 108.696 81.3242 108.765 80.9419H107.096L107.374 79.1836H111.2Z" fill="#A40B1E"/>
<path d="M116.69 82.2544L116.41 83.9999H112L113.19 75.9999H117.6L117.32 77.8181H114.94L114.73 79.1271H116.97L116.69 80.8726H114.45L114.24 82.1817L116.69 82.2544Z" fill="#A40B1E"/>
<path d="M118.4 83.9999L119.701 76.0188H121.92C122.762 75.9462 123.527 76.0913 124.292 76.309C125.134 76.6717 125.669 77.4699 125.593 78.3405C125.593 79.6465 124.598 80.7349 123.221 80.88L125.287 83.9999H122.685L121.078 80.9525L120.543 83.9999H118.4ZM122.073 79.6465C122.991 79.6465 123.45 79.2112 123.45 78.4856C123.45 77.7601 122.991 77.5424 122.073 77.5424H121.767L121.384 79.6465H122.073Z" fill="#A40B1E"/>
<path d="M127.047 75.9999H129.6L128.153 83.9999H125.6L127.047 75.9999Z" fill="#A40B1E"/>
<path d="M137.297 78.1619C136.691 77.6314 135.857 77.3283 135.099 77.3283C133.811 77.3283 132.674 78.3893 132.75 79.7534C132.75 79.8292 132.75 79.905 132.75 79.905C132.674 80.966 133.432 81.9512 134.493 82.0269C134.644 82.0269 134.796 82.0269 134.872 82.0269C135.554 82.0269 136.16 81.8754 136.766 81.5722L136.387 83.6942C135.705 83.9216 135.023 83.9973 134.341 83.9973C132.295 84.0731 130.476 82.4816 130.4 80.4355C130.4 80.2839 130.4 80.1323 130.4 79.905C130.4 78.7682 130.779 77.6314 131.461 76.7978C132.371 75.7368 133.735 75.1305 135.099 75.2063C135.933 75.2063 136.842 75.4337 137.6 75.8126L137.297 78.1619Z" fill="#A40B1E"/>
<path d="M138.89 75.9999H141.165L140.634 79.1271H143.593L144.124 75.9999H146.4L145.034 83.9999H142.759L143.29 80.7271H140.407L139.876 83.9999H137.6L138.89 75.9999Z" fill="#A40B1E"/>
</svg>
