<svg width="20" height="21" viewBox="0 0 20 21" fill="none" xmlns="http://www.w3.org/2000/svg">
<path d="M10.8334 9.66675H14.1667V11.3334H9.16669L9.16669 6.33341H10.8334L10.8334 9.66675Z" fill="white"/>
<path fill-rule="evenodd" clip-rule="evenodd" d="M1.66669 10.5001C1.66669 5.89771 5.39765 2.16675 10 2.16675C14.6024 2.16675 18.3334 5.89771 18.3334 10.5001C18.3334 15.1025 14.6024 18.8334 10 18.8334C5.39765 18.8334 1.66669 15.1025 1.66669 10.5001ZM10 3.83341C6.31812 3.83341 3.33335 6.81818 3.33335 10.5001C3.33335 14.182 6.31812 17.1667 10 17.1667C13.6819 17.1667 16.6667 14.182 16.6667 10.5001C16.6667 6.81818 13.6819 3.83341 10 3.83341Z" fill="white"/>
</svg>
