<svg width="16" height="16" viewBox="0 0 16 16" fill="none" xmlns="http://www.w3.org/2000/svg">
<path d="M8.66667 7.33334H11.3333V8.66668H7.33334L7.33333 4.66668H8.66667L8.66667 7.33334Z" fill="#252525"/>
<path fill-rule="evenodd" clip-rule="evenodd" d="M1.33334 8.00001C1.33334 4.31811 4.3181 1.33334 8 1.33334C11.6819 1.33334 14.6667 4.31811 14.6667 8.00001C14.6667 11.6819 11.6819 14.6667 8 14.6667C4.3181 14.6667 1.33334 11.6819 1.33334 8.00001ZM8 2.66668C5.05448 2.66668 2.66667 5.05449 2.66667 8.00001C2.66667 10.9455 5.05448 13.3333 8 13.3333C10.9455 13.3333 13.3333 10.9455 13.3333 8.00001C13.3333 5.05449 10.9455 2.66668 8 2.66668Z" fill="#252525"/>
</svg>
