<svg width="20" height="21" viewBox="0 0 20 21" fill="none" xmlns="http://www.w3.org/2000/svg">
<path fill-rule="evenodd" clip-rule="evenodd" d="M9.99998 5.91675C8.38915 5.91675 7.08331 7.22258 7.08331 8.83341C7.08331 10.4442 8.38915 11.7501 9.99998 11.7501C11.6108 11.7501 12.9166 10.4442 12.9166 8.83341C12.9166 7.22258 11.6108 5.91675 9.99998 5.91675ZM8.74998 8.83341C8.74998 8.14306 9.30962 7.58341 9.99998 7.58341C10.6903 7.58341 11.25 8.14306 11.25 8.83341C11.25 9.52377 10.6903 10.0834 9.99998 10.0834C9.30962 10.0834 8.74998 9.52377 8.74998 8.83341Z" fill="white"/>
<path fill-rule="evenodd" clip-rule="evenodd" d="M9.99998 2.16675C6.31808 2.16675 3.33331 5.15152 3.33331 8.83341C3.33331 10.0602 3.75919 11.2903 4.33831 12.4071C4.92117 13.5312 5.68865 14.5966 6.44004 15.509C7.19346 16.4239 7.94456 17.2016 8.50641 17.75C8.78784 18.0248 9.02308 18.2432 9.18908 18.394C9.27211 18.4694 9.33791 18.528 9.38361 18.5682C9.40646 18.5883 9.4243 18.6039 9.43675 18.6147C9.44065 18.6181 9.44402 18.621 9.44685 18.6235L9.45137 18.6274L9.45733 18.6325C9.4575 18.6327 9.45765 18.6328 9.99998 18.0001L9.45765 18.6328L9.99998 19.0976L10.5423 18.6328L9.99998 18.0001C10.5423 18.6328 10.5425 18.6327 10.5426 18.6325L10.5486 18.6274L10.554 18.6228C10.5566 18.6205 10.5597 18.6178 10.5632 18.6147C10.5757 18.6039 10.5935 18.5883 10.6163 18.5682C10.662 18.528 10.7278 18.4694 10.8109 18.394C10.9769 18.2432 11.2121 18.0248 11.4936 17.75C12.0554 17.2016 12.8065 16.4239 13.5599 15.509C14.3113 14.5966 15.0788 13.5312 15.6617 12.4071C16.2408 11.2903 16.6666 10.0602 16.6666 8.83341C16.6666 5.15152 13.6819 2.16675 9.99998 2.16675ZM10.3293 16.5574C10.2097 16.6742 10.0993 16.7799 9.99998 16.8735C9.9007 16.7799 9.79023 16.6742 9.67064 16.5574C9.13873 16.0382 8.4315 15.3055 7.72659 14.4495C7.01964 13.5911 6.32879 12.6252 5.8179 11.6399C5.30327 10.6474 4.99998 9.68997 4.99998 8.83341C4.99998 6.07199 7.23856 3.83341 9.99998 3.83341C12.7614 3.83341 15 6.07199 15 8.83341C15 9.68997 14.6967 10.6474 14.1821 11.6399C13.6712 12.6252 12.9803 13.5911 12.2734 14.4495C11.5685 15.3055 10.8612 16.0382 10.3293 16.5574Z" fill="white"/>
</svg>
