<svg width="16" height="16" viewBox="0 0 16 16" fill="none" xmlns="http://www.w3.org/2000/svg">
<path fill-rule="evenodd" clip-rule="evenodd" d="M7.99999 4.33334C6.71133 4.33334 5.66666 5.37801 5.66666 6.66668C5.66666 7.95534 6.71133 9.00001 7.99999 9.00001C9.28865 9.00001 10.3333 7.95534 10.3333 6.66668C10.3333 5.37801 9.28865 4.33334 7.99999 4.33334ZM6.99999 6.66668C6.99999 6.11439 7.44771 5.66668 7.99999 5.66668C8.55227 5.66668 8.99999 6.11439 8.99999 6.66668C8.99999 7.21896 8.55227 7.66668 7.99999 7.66668C7.44771 7.66668 6.99999 7.21896 6.99999 6.66668Z" fill="#252525"/>
<path fill-rule="evenodd" clip-rule="evenodd" d="M7.99999 1.33334C5.05447 1.33334 2.66666 3.72116 2.66666 6.66668C2.66666 7.6481 3.00736 8.63215 3.47065 9.52564C3.93694 10.4249 4.55093 11.2772 5.15204 12.0071C5.75477 12.739 6.35566 13.3612 6.80513 13.8C7.03028 14.0198 7.21847 14.1945 7.35127 14.3151C7.4177 14.3755 7.47034 14.4223 7.50689 14.4545C7.52518 14.4706 7.53944 14.4831 7.54941 14.4917C7.55252 14.4944 7.55522 14.4968 7.55749 14.4987L7.5611 14.5019L7.56587 14.506C7.56601 14.5061 7.56613 14.5062 7.99999 14L7.56613 14.5062L7.99999 14.8781L8.43385 14.5062L7.99999 14C8.43385 14.5062 8.43397 14.5061 8.43411 14.506L8.43888 14.5019L8.44317 14.4981C8.44529 14.4963 8.44776 14.4942 8.45057 14.4917C8.46054 14.4831 8.4748 14.4706 8.49309 14.4545C8.52964 14.4223 8.58228 14.3755 8.64871 14.3151C8.78151 14.1945 8.9697 14.0198 9.19485 13.8C9.64432 13.3612 10.2452 12.739 10.8479 12.0071C11.4491 11.2772 12.063 10.4249 12.5293 9.52564C12.9926 8.63215 13.3333 7.6481 13.3333 6.66668C13.3333 3.72116 10.9455 1.33334 7.99999 1.33334ZM8.26347 12.8459C8.16779 12.9393 8.07942 13.0238 7.99999 13.0987C7.92056 13.0238 7.83219 12.9393 7.73651 12.8459C7.31099 12.4305 6.74521 11.8443 6.18128 11.1595C5.61572 10.4728 5.06304 9.70011 4.65433 8.91188C4.24262 8.11788 3.99999 7.35192 3.99999 6.66668C3.99999 4.45754 5.79085 2.66668 7.99999 2.66668C10.2091 2.66668 12 4.45754 12 6.66668C12 7.35192 11.7574 8.11788 11.3457 8.91188C10.9369 9.70011 10.3843 10.4728 9.8187 11.1595C9.25477 11.8443 8.68899 12.4305 8.26347 12.8459Z" fill="#252525"/>
</svg>
