<svg width="16" height="16" viewBox="0 0 16 16" fill="none" xmlns="http://www.w3.org/2000/svg">
<path fill-rule="evenodd" clip-rule="evenodd" d="M3.64698 7.29272C5.16297 9.1456 6.86 10.8426 8.71288 12.3586L9.1927 12.7512C9.98794 13.4019 11.1468 13.3441 11.8734 12.6175L12.9954 11.4955L10.874 9.37421L9.10626 11.142L4.85616 6.89187L6.62982 5.13L4.51007 3.01025L3.3881 4.13222C2.66155 4.85877 2.60375 6.01766 3.2544 6.81291L3.64698 7.29272ZM7.86856 13.3906C5.94706 11.8184 4.18717 10.0585 2.61504 8.13704L2.22246 7.65722C1.13804 6.33182 1.23437 4.40033 2.44529 3.18941L4.51007 1.12463L8.51858 5.13315L6.74492 6.89502L9.10626 9.25636L10.874 7.48859L14.881 11.4955L12.8162 13.5603C11.6053 14.7712 9.67379 14.8676 8.34838 13.7831L7.86856 13.3906Z" fill="#252525"/>
</svg>
