<svg width="20" height="21" viewBox="0 0 20 21" fill="none" xmlns="http://www.w3.org/2000/svg">
<path fill-rule="evenodd" clip-rule="evenodd" d="M4.5587 9.61587C6.45369 11.932 8.57498 14.0533 10.8911 15.9482L11.4908 16.439C12.4849 17.2523 13.9335 17.18 14.8417 16.2718L16.2442 14.8694L13.5925 12.2177L11.3828 14.4274L6.07017 9.11481L8.28725 6.91247L5.63756 4.26278L4.23511 5.66524C3.32691 6.57343 3.25466 8.02205 4.06798 9.0161L4.5587 9.61587ZM9.83568 17.2382C7.4338 15.273 5.23394 13.0731 3.26877 10.6713L2.77805 10.0715C1.42252 8.41474 1.54294 6.00039 3.05659 4.48673L5.63756 1.90576L10.6482 6.9164L8.43113 9.11874L11.3828 12.0704L13.5925 9.86071L18.6012 14.8694L16.0202 17.4504C14.5066 18.964 12.0922 19.0844 10.4355 17.7289L9.83568 17.2382Z" fill="white"/>
</svg>
