<svg width="20" height="21" viewBox="0 0 20 21" fill="none" xmlns="http://www.w3.org/2000/svg">
<path fill-rule="evenodd" clip-rule="evenodd" d="M9.16669 2.16666C5.02455 2.16666 1.66669 5.52452 1.66669 9.66666C1.66669 13.8088 5.02455 17.1667 9.16669 17.1667C10.9375 17.1667 12.565 16.5529 13.8481 15.5266L17.5 19.1785L18.6785 18L15.0266 14.3481C16.053 13.065 16.6667 11.4375 16.6667 9.66666C16.6667 5.52452 13.3088 2.16666 9.16669 2.16666ZM3.33335 9.66666C3.33335 6.445 5.94503 3.83332 9.16669 3.83332C12.3883 3.83332 15 6.445 15 9.66666C15 12.8883 12.3883 15.5 9.16669 15.5C5.94503 15.5 3.33335 12.8883 3.33335 9.66666Z" fill="#929292"/>
</svg>
